<svg width="160" height="44" viewBox="0 0 160 44" fill="none" xmlns="http://www.w3.org/2000/svg">
<rect width="160" height="44" fill="white"/>
<path fill-rule="evenodd" clip-rule="evenodd" d="M26.1102 19.1043C26.7034 17.7436 26.0803 16.1573 24.7196 15.5641L18.4887 12.8476C17.128 12.2543 15.5417 12.8774 14.9485 14.2381L10.3111 24.875C9.71782 26.2357 10.3409 27.822 11.7016 28.4152L17.9325 31.1317C19.2932 31.725 20.8795 31.1019 21.4728 29.7412L26.1102 19.1043Z" fill="white" stroke="black" stroke-width="0.5" stroke-miterlimit="1.5" stroke-linecap="round" stroke-linejoin="round"/>
<path fill-rule="evenodd" clip-rule="evenodd" d="M11.3122 13.8489C10.4119 12.6688 8.72282 12.4416 7.54263 13.3419L2.13832 17.4647C0.958135 18.365 0.730934 20.0541 1.63126 21.2343L8.66933 30.46C9.56966 31.6402 11.2587 31.8674 12.4389 30.9671L17.8432 26.8443C19.0234 25.9439 19.2506 24.2549 18.3503 23.0747L11.3122 13.8489Z" fill="white" stroke="black" stroke-width="0.5" stroke-miterlimit="1.5" stroke-linecap="round" stroke-linejoin="round"/>
<path fill-rule="evenodd" clip-rule="evenodd" d="M17.4315 13.6728C17.2663 12.1976 15.9346 11.1341 14.4595 11.2992L7.7043 12.0555C6.22912 12.2207 5.16558 13.5524 5.33073 15.0275L6.62178 26.5593C6.78694 28.0345 8.11864 29.098 9.59382 28.9329L16.349 28.1766C17.8242 28.0115 18.8877 26.6797 18.7225 25.2046L17.4315 13.6728Z" fill="white" stroke="black" stroke-width="0.5" stroke-miterlimit="1.5" stroke-linecap="round" stroke-linejoin="round"/>
<path fill-rule="evenodd" clip-rule="evenodd" d="M20.4305 14.6922C20.4305 13.2063 19.1439 12 17.5591 12H10.302C8.71717 12 7.43054 13.2063 7.43054 14.6922V26.3078C7.43054 27.7937 8.71717 29 10.302 29H17.5591C19.1439 29 20.4305 27.7937 20.4305 26.3078V14.6922Z" fill="white" stroke="black" stroke-width="0.5" stroke-miterlimit="1.5" stroke-linecap="round" stroke-linejoin="round"/>
<path d="M43.8783 17.0177C43.823 17.1255 43.7429 17.1795 43.6384 17.1795C43.5583 17.1795 43.4554 17.1208 43.3292 17.0034C43.203 16.886 43.0323 16.7559 42.817 16.6132C42.6031 16.4711 42.3316 16.3383 42.0095 16.2182C41.6864 16.0977 41.288 16.0374 40.8143 16.0374C40.3406 16.0374 39.9237 16.1072 39.5638 16.2468C39.2039 16.3864 38.9023 16.5767 38.6593 16.8178C38.4164 17.0589 38.2318 17.3381 38.1056 17.6553C37.9794 17.9726 37.9164 18.3057 37.9164 18.6547C37.9164 19.1115 38.0103 19.489 38.1979 19.7872C38.3855 20.0854 38.6332 20.3392 38.9408 20.5486C39.2484 20.758 39.5977 20.9341 39.9883 21.0768C40.3812 21.2204 40.7828 21.3616 41.1927 21.5003C41.605 21.6399 42.0064 21.7938 42.3971 21.9619C42.7877 22.13 43.137 22.341 43.4446 22.5948C43.7522 22.8486 43.9999 23.1611 44.1875 23.5323C44.3751 23.9035 44.469 24.365 44.469 24.9171C44.469 25.4817 44.3751 26.0131 44.1875 26.5112C43.9999 27.0093 43.7276 27.4423 43.3707 27.8103C43.0138 28.1783 42.577 28.4686 42.0602 28.6812C41.5434 28.8937 40.9527 29 40.2883 29C39.4269 29 38.6854 28.843 38.0641 28.5289C37.4427 28.2148 36.8982 27.7849 36.4305 27.2393L36.689 26.8205C36.7628 26.7253 36.8489 26.6778 36.9474 26.6778C37.0027 26.6778 37.0735 26.7158 37.1596 26.792C37.2457 26.8681 37.3504 26.9617 37.4734 27.0727C37.6097 27.1946 37.7574 27.3152 37.9164 27.4344C38.0887 27.5645 38.2886 27.685 38.5163 27.7961C38.744 27.9071 39.0054 28.0007 39.3008 28.0768C39.5961 28.1529 39.9314 28.191 40.3067 28.191C40.8235 28.191 41.285 28.1101 41.6911 27.9483C42.0971 27.7865 42.4402 27.566 42.7201 27.2869C43 27.0077 43.2138 26.6762 43.3615 26.2923C43.5092 25.9084 43.583 25.4976 43.583 25.0598C43.583 24.584 43.4891 24.1921 43.3015 23.8844C43.1139 23.5767 42.8662 23.3197 42.5586 23.1135C42.251 22.9073 41.9017 22.7344 41.5111 22.5948C41.1205 22.4553 40.7189 22.3188 40.3067 22.1856C39.8944 22.0523 39.493 21.9032 39.1023 21.7383C38.7117 21.5733 38.3624 21.3623 38.0548 21.1054C37.7473 20.8484 37.4995 20.528 37.3119 20.1441C37.1243 19.7602 37.0304 19.2796 37.0304 18.7022C37.0304 18.2518 37.1135 17.8171 37.2796 17.3984C37.4457 16.9796 37.6887 16.61 38.0087 16.2896C38.3287 15.9692 38.7239 15.7122 39.1946 15.5187C39.6653 15.3252 40.2022 15.2284 40.8051 15.2284C41.4818 15.2284 42.0895 15.3395 42.6278 15.5615C43.1661 15.7836 43.6568 16.1231 44.0998 16.5799L43.8783 17.0177V17.0177ZM56.1621 22.0333C56.7405 22.0333 57.2588 21.9619 57.7172 21.8192C58.1756 21.6764 58.5632 21.4718 58.88 21.2053C59.1969 20.9388 59.4384 20.6184 59.6045 20.244C59.7707 19.8697 59.8537 19.4478 59.8537 18.9782C59.8537 18.0202 59.5507 17.3096 58.9446 16.8464C58.3386 16.3832 57.4542 16.1516 56.2913 16.1516H53.901V22.0333H56.1621V22.0333ZM61.9579 28.8477H61.1458C61.0412 28.8477 60.9535 28.8302 60.8827 28.7953C60.8119 28.7604 60.7459 28.6954 60.6843 28.6003L56.4944 23.1373C56.4452 23.0675 56.3944 23.0072 56.3421 22.9565C56.2897 22.9057 56.2313 22.8661 56.1667 22.8375C56.1021 22.8089 56.0253 22.7884 55.936 22.7756C55.8467 22.763 55.7376 22.7566 55.6084 22.7566H53.901V28.8477H52.9504V15.3807H56.2913C57.7926 15.3807 58.917 15.6805 59.6645 16.2801C60.4121 16.8797 60.7858 17.76 60.7858 18.9211C60.7858 19.4351 60.6997 19.9046 60.5274 20.3297C60.3551 20.7548 60.1075 21.1276 59.7845 21.448C59.4615 21.7684 59.0708 22.0301 58.6124 22.2331C58.154 22.4362 57.6387 22.5726 57.0666 22.6424C57.2142 22.7376 57.3465 22.8645 57.4634 23.0231L61.9579 28.8477V28.8477ZM76.0321 17.0177C75.9767 17.1255 75.8967 17.1795 75.7922 17.1795C75.7121 17.1795 75.6092 17.1208 75.483 17.0034C75.3568 16.886 75.1861 16.7559 74.9708 16.6132C74.7569 16.4711 74.4854 16.3383 74.1633 16.2182C73.8402 16.0977 73.4418 16.0374 72.9681 16.0374C72.4944 16.0374 72.0775 16.1072 71.7176 16.2468C71.3576 16.3864 71.0561 16.5767 70.8131 16.8178C70.5701 17.0589 70.3856 17.3381 70.2594 17.6553C70.1332 17.9726 70.0702 18.3057 70.0702 18.6547C70.0702 19.1115 70.1641 19.489 70.3517 19.7872C70.5393 20.0854 70.787 20.3392 71.0946 20.5486C71.4022 20.758 71.7515 20.9341 72.1421 21.0768C72.535 21.2204 72.9366 21.3616 73.3465 21.5003C73.7588 21.6399 74.1602 21.7938 74.5509 21.9619C74.9415 22.13 75.2908 22.341 75.5984 22.5948C75.9059 22.8486 76.1537 23.1611 76.3413 23.5323C76.5289 23.9035 76.6228 24.365 76.6228 24.9171C76.6228 25.4817 76.5289 26.0131 76.3413 26.5112C76.1537 27.0093 75.8814 27.4423 75.5245 27.8103C75.1676 28.1783 74.7308 28.4686 74.214 28.6812C73.6972 28.8937 73.1065 29 72.442 29C71.5807 29 70.8392 28.843 70.2179 28.5289C69.5965 28.2148 69.052 27.7849 68.5843 27.2393L68.8427 26.8205C68.9166 26.7253 69.0027 26.6778 69.1012 26.6778C69.1565 26.6778 69.2273 26.7158 69.3134 26.792C69.3995 26.8681 69.5042 26.9617 69.6272 27.0727C69.7635 27.1946 69.9112 27.3152 70.0702 27.4344C70.2425 27.5645 70.4424 27.685 70.6701 27.7961C70.8978 27.9071 71.1592 28.0007 71.4545 28.0768C71.7499 28.1529 72.0851 28.191 72.4605 28.191C72.9773 28.191 73.4388 28.1101 73.8448 27.9483C74.2509 27.7865 74.594 27.566 74.8739 27.2869C75.1538 27.0077 75.3676 26.6762 75.5153 26.2923C75.663 25.9084 75.7368 25.4976 75.7368 25.0598C75.7368 24.584 75.6429 24.1921 75.4553 23.8844C75.2677 23.5767 75.02 23.3197 74.7124 23.1135C74.4048 22.9073 74.0555 22.7344 73.6649 22.5948C73.2743 22.4553 72.8727 22.3188 72.4605 22.1856C72.0482 22.0523 71.6468 21.9032 71.2561 21.7383C70.8655 21.5733 70.5162 21.3623 70.2086 21.1054C69.901 20.8484 69.6533 20.528 69.4657 20.1441C69.2781 19.7602 69.1842 19.2796 69.1842 18.7022C69.1842 18.2518 69.2673 17.8171 69.4334 17.3984C69.5995 16.9796 69.8425 16.61 70.1625 16.2896C70.4825 15.9692 70.8777 15.7122 71.3484 15.5187C71.8191 15.3252 72.356 15.2284 72.9589 15.2284C73.6356 15.2284 74.2433 15.3395 74.7816 15.5615C75.3199 15.7836 75.8106 16.1231 76.2536 16.5799L76.0321 17.0177V17.0177ZM105.076 26.5826C105.137 26.5826 105.19 26.6048 105.233 26.6492L105.602 27.0585C105.331 27.3567 105.037 27.6247 104.72 27.8627C104.404 28.1006 104.056 28.3037 103.678 28.4718C103.299 28.6399 102.884 28.77 102.432 28.862C101.979 28.954 101.483 29 100.941 29C100.037 29 99.2077 28.8366 98.4539 28.5099C97.7002 28.1831 97.0527 27.7199 96.5112 27.1203C95.9698 26.5207 95.5498 25.7958 95.2515 24.9456C94.9531 24.0954 94.8039 23.15 94.8039 22.1095C94.8039 21.0879 94.9577 20.1552 95.2653 19.3114C95.5729 18.4675 96.0037 17.7426 96.5574 17.1367C97.1111 16.5307 97.7756 16.0612 98.5508 15.7281C99.3261 15.395 100.181 15.2284 101.117 15.2284C102.009 15.2284 102.799 15.3712 103.488 15.6567C104.177 15.9422 104.805 16.3451 105.371 16.8654L105.085 17.2937C105.036 17.3698 104.959 17.4079 104.854 17.4079C104.78 17.4079 104.66 17.3381 104.494 17.1985C104.328 17.0589 104.097 16.9051 103.802 16.7369C103.504 16.5677 103.133 16.4123 102.699 16.2753C102.259 16.1357 101.732 16.0659 101.117 16.0659C100.329 16.0659 99.6076 16.2055 98.9523 16.4847C98.297 16.7639 97.7341 17.1636 97.2634 17.6839C96.7927 18.2041 96.4252 18.8387 96.1605 19.5873C95.8959 20.336 95.7637 21.1767 95.7637 22.1095C95.7637 23.0612 95.8975 23.9114 96.1652 24.6601C96.4328 25.4088 96.8004 26.0417 97.268 26.5588C97.7357 27.0759 98.2878 27.4724 98.9246 27.7484C99.5614 28.0245 100.249 28.1625 100.987 28.1625C101.455 28.1625 101.872 28.1307 102.238 28.0673C102.604 28.0039 102.941 27.9087 103.248 27.7817C103.556 27.6549 103.842 27.4994 104.107 27.3154C104.371 27.1314 104.633 26.9157 104.891 26.6682C104.916 26.6468 104.947 26.6261 104.983 26.6064C105.014 26.5905 105.045 26.5826 105.076 26.5826V26.5826ZM118.393 24.2699C117.519 24.3016 116.767 24.373 116.137 24.484C115.506 24.595 114.986 24.7457 114.577 24.9361C114.168 25.1264 113.865 25.3533 113.668 25.6166C113.471 25.8799 113.373 26.1797 113.373 26.516C113.373 26.8332 113.423 27.1076 113.525 27.3392C113.626 27.5708 113.762 27.7612 113.931 27.9102C114.1 28.0594 114.296 28.1688 114.517 28.2386C114.738 28.3084 114.969 28.3433 115.209 28.3433C115.566 28.3433 115.894 28.3037 116.192 28.2243C116.49 28.145 116.767 28.034 117.023 27.8912C117.278 27.7484 117.516 27.5787 117.738 27.382C117.974 27.1713 118.192 26.9587 118.393 26.7444V24.2699V24.2699ZM112.994 20.7199C113.474 20.225 113.979 19.8507 114.508 19.5969C115.037 19.3431 115.637 19.2162 116.307 19.2162C116.8 19.2162 117.23 19.2971 117.599 19.4588C117.969 19.6207 118.275 19.8523 118.518 20.1536C118.761 20.455 118.944 20.8198 119.067 21.2481C119.19 21.6764 119.251 22.1539 119.251 22.6805V28.8477H118.901C118.716 28.8477 118.602 28.7589 118.559 28.5812L118.43 27.363C118.178 27.6168 117.927 27.8452 117.678 28.0482C117.429 28.2513 117.169 28.4226 116.898 28.5622C116.627 28.7018 116.335 28.8097 116.021 28.8858C115.708 28.9619 115.363 29 114.988 29C114.674 29 114.369 28.9524 114.074 28.8572C113.779 28.762 113.516 28.6161 113.285 28.4194C113.054 28.2227 112.87 27.9705 112.731 27.6628C112.593 27.3551 112.524 26.9855 112.524 26.554C112.524 26.1543 112.634 25.7831 112.856 25.4405C113.077 25.0979 113.425 24.7997 113.899 24.5459C114.372 24.2921 114.98 24.089 115.721 23.9368C116.463 23.7845 117.353 23.6957 118.393 23.6703V22.6805C118.393 21.8049 118.21 21.1308 117.844 20.6581C117.478 20.1854 116.935 19.949 116.215 19.949C115.772 19.949 115.395 20.0125 115.085 20.1393C114.774 20.2662 114.511 20.4058 114.296 20.5581C114.08 20.7104 113.905 20.85 113.769 20.9769C113.634 21.1038 113.52 21.1672 113.428 21.1672C113.36 21.1672 113.305 21.1513 113.262 21.1196C113.219 21.0879 113.182 21.0467 113.151 20.9959L112.994 20.7199V20.7199ZM128.564 21.6621C128.705 21.2751 128.867 20.9309 129.048 20.6295C129.23 20.3281 129.439 20.0727 129.676 19.8633C129.912 19.654 130.177 19.4937 130.469 19.3827C130.761 19.2717 131.086 19.2162 131.444 19.2162C131.634 19.2162 131.821 19.2336 132.006 19.2685C132.19 19.3034 132.353 19.3653 132.495 19.4541L132.421 20.0823C132.391 20.1838 132.332 20.2345 132.245 20.2345C132.172 20.2345 132.059 20.2123 131.909 20.1679C131.758 20.1235 131.56 20.1013 131.314 20.1013C130.956 20.1013 130.642 20.1568 130.368 20.2678C130.094 20.3789 129.849 20.5454 129.629 20.7675C129.412 20.9896 129.22 21.264 129.057 21.5907C128.894 21.9175 128.746 22.2934 128.61 22.7186V28.8477H127.723V19.378H128.195C128.298 19.378 128.373 19.4002 128.415 19.4446C128.459 19.489 128.487 19.5651 128.499 19.673L128.564 21.6621ZM145.554 21.4147C145.203 20.869 144.814 20.4852 144.387 20.2631C143.959 20.041 143.471 19.93 142.924 19.93C142.383 19.93 141.908 20.0315 141.503 20.2345C141.096 20.4375 140.756 20.7247 140.482 21.0959C140.21 21.467 140.003 21.9112 139.865 22.4283C139.727 22.9454 139.657 23.5148 139.657 24.1366C139.657 25.5452 139.908 26.581 140.409 27.244C140.91 27.9071 141.634 28.2386 142.582 28.2386C143.186 28.2386 143.735 28.0768 144.234 27.7532C144.733 27.4296 145.173 26.976 145.554 26.3922V21.4147V21.4147ZM146.431 15V28.8477H145.95C145.792 28.8477 145.698 28.7652 145.673 28.6003L145.581 27.106C145.176 27.6771 144.702 28.1307 144.161 28.467C143.619 28.8033 143.01 28.9714 142.334 28.9714C141.202 28.9714 140.321 28.5685 139.693 27.7628C139.066 26.9569 138.752 25.7482 138.752 24.1366C138.752 23.445 138.84 22.7994 139.016 22.1998C139.19 21.6003 139.448 21.08 139.786 20.639C140.125 20.198 140.541 19.8507 141.036 19.5969C141.532 19.3431 142.103 19.2162 142.749 19.2162C143.371 19.2162 143.908 19.3336 144.364 19.5683C144.818 19.8031 145.216 20.1521 145.554 20.6152V15H146.431Z" fill="black"/>
</svg>
