<svg xmlns="http://www.w3.org/2000/svg" fill-rule="evenodd" stroke-linejoin="round" stroke-miterlimit="2" clip-rule="evenodd" viewBox="0 0 949 180"><defs/><path fill="#212945" fill-rule="nonzero" d="M693.226 144.675c-1.4 0-25.684 9.625-34.996 13.333-9.309-3.708-33.6-13.333-35-13.333-1.746 0-3.063 1.375-3.063 3.063v29.566a3.026 3.026 0 003.063 3.054c1.4 0 25.691-9.616 35-13.333 9.312 3.717 33.596 13.333 34.996 13.333 1.75 0 3.079-1.37 3.079-3.054v-29.566a3.042 3.042 0 00-3.08-3.063zM80.304 4.33H4.454A4.462 4.462 0 000 8.795v112.983c0 1.18.463 2.317 1.3 3.154.842.838 1.98 1.3 3.154 1.3h7.509a4.453 4.453 0 004.462-4.454V70.933h38.992a4.46 4.46 0 004.462-4.462v-6.713a4.463 4.463 0 00-4.462-4.466H16.425V19.979h63.88c2.466 0 4.462-2 4.462-4.462V8.796a4.466 4.466 0 00-4.463-4.467zM240.171 4.33h-77.625a4.464 4.464 0 00-4.467 4.466v112.983c0 1.18.475 2.321 1.313 3.146a4.45 4.45 0 003.154 1.317h77.625a4.468 4.468 0 004.463-4.463v-6.916c0-2.463-2-4.455-4.463-4.455h-65.858V70.925h38.596a4.459 4.459 0 004.466-4.454v-6.713a4.47 4.47 0 00-4.466-4.466h-38.596V19.97h65.858a4.46 4.46 0 004.463-4.454V8.796c0-2.471-2-4.467-4.463-4.467zM395.725 110.404h-58.741V8.804a4.492 4.492 0 00-1.309-3.166 4.49 4.49 0 00-3.158-1.3h-7.304a4.467 4.467 0 00-4.467 4.466v112.98a4.461 4.461 0 004.467 4.45h70.512a4.454 4.454 0 004.463-4.45v-6.913c0-2.463-2-4.467-4.463-4.467zM541.046 110.404h-7.12v-.216h-2.671v.216h-48.95V8.804c0-2.47-2-4.466-4.467-4.466h-7.304a4.467 4.467 0 00-4.467 4.466v112.98c0 2.462 2.004 4.45 4.467 4.45h70.512c2.463 0 4.467-1.988 4.467-4.45v-6.913a4.472 4.472 0 00-4.467-4.467zM658.334 115.03c-27.421 0-49.742-22.226-49.742-49.542 0-27.434 22.321-49.746 49.742-49.746 27.317 0 49.55 22.312 49.55 49.746 0 27.316-22.233 49.541-49.55 49.541zm0-115.03c-36.109 0-65.471 29.375-65.471 65.488 0 35.987 29.362 65.27 65.47 65.27 35.997 0 65.272-29.283 65.272-65.27C723.605 29.375 694.33 0 658.334 0zM947.41 8.075l-5.3-3.625a4.468 4.468 0 00-3.75-.596 4.412 4.412 0 00-2.86 2.513l-37.287 86.141-37.329-85.916a4.343 4.343 0 00-1.57-1.892l-.242-.175c-1.346-.92-3.25-.958-4.709-.217a4.416 4.416 0 00-2.07 2.209l-37.217 85.991-37.442-86.15a4.444 4.444 0 00-2.542-2.4 4.445 4.445 0 00-3.5.167l-5.466 2.663a4.472 4.472 0 00-2.13 5.791l46.83 108.171a4.417 4.417 0 004.075 2.692h.008a4.476 4.476 0 004.096-2.68l37.646-86.204 37.312 86.192a4.435 4.435 0 004.075 2.692h.017a4.456 4.456 0 004.087-2.68L948.98 13.547a4.481 4.481 0 00-1.57-5.471z"/></svg>