<svg xmlns="http://www.w3.org/2000/svg" fill-rule="evenodd" stroke-linejoin="round" stroke-miterlimit="2" clip-rule="evenodd" viewBox="0 0 131 180"><defs/><path fill="none" d="M0 0h130.742v180H0z"/><clipPath id="a"><path d="M0 0h130.742v180H0z"/></clipPath><g clip-path="url(#a)"><path fill="#212945" fill-rule="nonzero" d="M100.363 144.675c-1.4 0-25.684 9.625-34.996 13.333-9.309-3.708-33.6-13.333-35-13.333-1.746 0-3.063 1.375-3.063 3.063V177.332a3.04 3.04 0 003.026 3.026h.037c1.4 0 25.691-9.616 35-13.333 9.312 3.717 33.596 13.333 34.996 13.333 1.75 0 3.079-1.37 3.079-3.054v-29.566-.021a3.056 3.056 0 00-3.042-3.042h-.038.001zM65.471 115.03c-27.421 0-49.742-22.226-49.742-49.542 0-27.434 22.321-49.746 49.742-49.746 27.317 0 49.55 22.312 49.55 49.746 0 27.316-22.233 49.541-49.55 49.541v.001zm0-115.03C29.362 0 0 29.375 0 65.488c0 35.987 29.362 65.27 65.47 65.27 35.997 0 65.272-29.283 65.272-65.27C130.742 29.375 101.467 0 65.471 0z"/></g></svg>