<svg width="128" height="128" viewBox="0 0 128 128" fill="none" xmlns="http://www.w3.org/2000/svg">
<path d="M76.7928 68.2355C71.8648 69.025 67.6089 68.0381 67.2942 66.0376C66.9742 64.037 70.7075 61.7804 75.6408 60.9962C80.5688 60.212 84.8194 61.1989 85.1341 63.1941C85.4541 65.1894 81.7208 67.4513 76.7928 68.2355V68.2355ZM72.1102 88.8277C70.3075 89.7453 67.0062 86.8912 64.7396 82.4473C62.4676 77.9981 62.0889 73.645 63.8969 72.7274C65.6996 71.8098 68.9955 74.6639 71.2675 79.1078C73.5342 83.5516 73.9182 87.9101 72.1102 88.8277ZM52.697 80.5481C49.1664 84.0798 45.1504 85.7815 43.7211 84.3518C42.2811 82.9221 43.9877 78.8997 47.5077 75.3681C51.0277 71.8311 55.049 70.1293 56.4836 71.5591C57.9183 72.9888 56.217 77.0165 52.697 80.5481ZM39.1984 55.9549C40.1104 54.1464 44.4624 54.5252 48.905 56.7871C53.353 59.049 56.2223 62.3459 55.305 64.1491C54.3823 65.9522 50.0357 65.5841 45.5877 63.3222C41.1397 61.0602 38.2811 57.758 39.1984 55.9549V55.9549ZM64.7982 42.8847C66.7982 43.1941 67.7849 47.4513 67.0062 52.3806C66.2329 57.3152 63.9876 61.0496 61.9823 60.7402C59.9876 60.4201 58.9956 56.1683 59.7689 51.2443C60.5423 46.3096 62.7929 42.5699 64.7982 42.8794V42.8847ZM127.918 56.3763C127.502 53.7569 126.078 53.0047 122.643 51.9111L102.579 45.5094C102.579 45.5094 90.4034 40.9055 81.3848 47.4139C80.1688 48.2888 78.9101 49.2864 77.6515 50.348C78.7075 49.089 79.7048 47.83 80.5848 46.6137C87.0647 37.5766 82.4461 25.408 82.4461 25.408L76.0088 5.34395C74.9048 1.9137 74.1582 0.489314 71.5288 0.0838717C68.9049 -0.33224 67.7582 0.788061 65.6569 3.71151L53.3637 20.8308C53.3637 20.8308 45.2357 30.9828 48.6277 41.583C49.0864 43.0021 49.6463 44.5118 50.2703 46.0429C49.4351 44.6951 48.551 43.3784 47.6197 42.0952C41.0277 33.1381 28.0412 33.7622 28.0412 33.7622C28.0412 33.7622 9.70533 33.6982 6.97468 33.6982C3.36938 33.6822 1.79072 33.965 0.585397 36.3283C-0.619927 38.6916 0.089401 40.1373 2.22272 43.0394C3.83871 45.2533 14.7026 60.02 14.7026 60.02C14.7026 60.02 21.8386 70.8922 32.9585 70.9349C34.4518 70.9402 36.0518 70.8709 37.6998 70.7535C36.1646 71.1324 34.6436 71.5665 33.1398 72.0552C22.5799 75.5548 19.1719 88.1128 19.1719 88.1128L12.5853 108.134C11.4653 111.548 11.2413 113.144 13.1186 115.016C14.996 116.899 16.5853 116.67 20.0039 115.539C22.6119 114.685 40.0038 108.913 40.0038 108.913C40.0038 108.913 52.5477 105.478 56.025 94.9147C56.4943 93.4956 56.9263 91.9485 57.321 90.3588C57.2046 91.9333 57.1512 93.5119 57.161 95.0907C57.2143 106.214 68.0995 113.341 68.0995 113.341L85.0914 125.787C88.0034 127.91 89.4434 128.62 91.8114 127.414C94.174 126.208 94.4513 124.624 94.43 121.018L94.3127 99.9454C94.3127 99.9454 94.9207 86.9552 85.9554 80.3774C84.6749 79.4485 83.3602 78.5676 82.0141 77.7367C83.5448 78.3502 85.0434 78.9104 86.4727 79.3585C97.0647 82.7354 107.209 74.5892 107.209 74.5892L124.296 62.2659C127.214 60.1587 128.328 59.001 127.918 56.3763Z" fill="black"/>
</svg>
