<svg width="128" height="128" viewBox="0 0 128 128" fill="none" xmlns="http://www.w3.org/2000/svg">
<path d="M122.781 42.1698L122.784 42.1784L122.787 42.1869C123.365 43.6956 122.9 45.4861 121.599 46.6958C121.597 46.6972 121.596 46.6987 121.594 46.7001L110.789 56.541L110.209 57.0692L110.312 57.8469C110.579 59.8604 110.724 61.9195 110.724 64C110.724 66.0805 110.579 68.1396 110.312 70.1531L110.209 70.9308L110.789 71.459L121.594 81.2999C121.596 81.3013 121.597 81.3027 121.599 81.3042C122.9 82.5139 123.365 84.3044 122.787 85.8131L122.784 85.8216L122.781 85.8302C121.71 88.7277 120.421 91.53 118.96 94.1875L117.8 96.1881C116.195 98.8643 114.394 101.399 112.419 103.816C111.334 105.094 109.559 105.572 107.908 105.046L93.9982 100.596L93.2495 100.357L92.6266 100.836C89.3998 103.319 85.5898 105.412 81.9435 107.029L81.2485 107.337L81.0861 108.08L77.965 122.35C77.9649 122.35 77.9648 122.351 77.9647 122.351C77.6095 123.948 76.3753 125.165 74.5669 125.657C71.2258 126.211 67.7836 126.5 64.0437 126.5C60.7553 126.5 57.3162 126.211 53.9701 125.657C52.162 125.165 50.9279 123.949 50.5725 122.352C50.5723 122.352 50.5721 122.351 50.5719 122.35L47.4508 108.08L47.2841 107.317L46.5641 107.016C42.7378 105.416 39.1542 103.332 35.9104 100.836L35.2872 100.357L34.5384 100.596L20.6403 105.045C20.6398 105.045 20.6393 105.045 20.6389 105.046C18.9693 105.574 17.1874 105.087 16.1281 103.819C14.1499 101.402 12.3479 98.8666 10.7423 96.1892L9.5856 94.1854C8.11 91.5319 6.82463 88.7296 5.74513 85.8271L5.74305 85.8216C5.17033 84.3 5.63198 82.5084 6.93832 81.3062C6.93899 81.3056 6.93967 81.3049 6.94035 81.3043L17.7407 71.4585L18.3201 70.9303L18.2172 70.1531C17.9511 68.1432 17.8131 66.084 17.8131 64C17.8131 61.916 17.9511 59.8568 18.2172 57.8469L18.3201 57.0697L17.7407 56.5415L6.94035 46.6957C6.93967 46.695 6.93899 46.6944 6.93831 46.6938C5.63267 45.4922 5.16824 43.7233 5.74505 42.1731L5.74512 42.1729C6.82439 39.271 8.11231 36.4683 9.58617 33.8136L10.7399 31.8105C12.3491 29.1315 14.1514 26.5962 16.1288 24.1922C17.1864 22.9148 18.9662 22.4303 20.6374 22.9639L34.5393 27.4039L35.2894 27.6435L35.9126 27.1621C39.1553 24.6576 42.7365 22.5748 46.5589 20.9936L47.2833 20.6939L47.4508 19.928L50.5725 5.65488C50.9524 3.92841 52.2599 2.63009 53.8996 2.35714L53.9011 2.3569C57.266 1.79336 60.7299 1.5 64.2685 1.5C67.8071 1.5 71.2709 1.79336 74.6358 2.3569L74.6373 2.35714C76.277 2.63009 77.5845 3.92841 77.9644 5.65488L81.0861 19.928L81.2493 20.6743L81.9489 20.9811C85.591 22.5788 89.3988 24.6709 92.6243 27.1621L93.2474 27.6433L93.9973 27.404L107.909 22.964L107.911 22.9633C109.564 22.4334 111.336 22.9086 112.419 24.1962C114.393 26.5999 116.195 29.1344 117.8 31.8119L118.96 33.8126C120.421 36.4701 121.71 39.2723 122.781 42.1698ZM64.2685 85.5C76.1489 85.5 85.7499 75.8661 85.7499 63.775C85.7499 52.1339 76.1489 42.275 64.2685 42.275C52.3881 42.275 42.787 52.1339 42.787 63.775C42.787 75.8661 52.3881 85.5 64.2685 85.5Z" stroke="black" stroke-width="3"/>
</svg>
