<svg width="128" height="128" viewBox="0 0 128 128" fill="none" xmlns="http://www.w3.org/2000/svg">
<path d="M13.8466 30.1534C13.4318 30.1534 13.0554 30.0753 12.7173 29.919C12.3793 29.7599 12.1108 29.5312 11.9119 29.233C11.7131 28.9318 11.6136 28.5682 11.6136 28.142C11.6136 27.767 11.6875 27.4631 11.8352 27.2301C11.983 26.9943 12.1804 26.8097 12.4276 26.6761C12.6747 26.5426 12.9474 26.4432 13.2457 26.3778C13.5469 26.3097 13.8494 26.2557 14.1534 26.2159C14.5511 26.1648 14.8736 26.1264 15.1207 26.1009C15.3707 26.0724 15.5526 26.0256 15.6662 25.9602C15.7827 25.8949 15.8409 25.7812 15.8409 25.6193V25.5852C15.8409 25.1648 15.7259 24.8381 15.4957 24.6051C15.2685 24.3722 14.9233 24.2557 14.4602 24.2557C13.9801 24.2557 13.6037 24.3608 13.331 24.571C13.0582 24.7812 12.8665 25.0057 12.7557 25.2443L11.8011 24.9034C11.9716 24.5057 12.1989 24.196 12.483 23.9744C12.7699 23.75 13.0824 23.5937 13.4205 23.5057C13.7614 23.4148 14.0966 23.3693 14.4261 23.3693C14.6364 23.3693 14.8778 23.3949 15.1506 23.446C15.4261 23.4943 15.6918 23.5952 15.9474 23.7486C16.206 23.902 16.4205 24.1335 16.5909 24.4432C16.7614 24.7528 16.8466 25.1676 16.8466 25.6875V30H15.8409V29.1136H15.7898C15.7216 29.2557 15.608 29.4077 15.4489 29.5696C15.2898 29.7315 15.0781 29.8693 14.8139 29.983C14.5497 30.0966 14.2273 30.1534 13.8466 30.1534ZM14 29.25C14.3977 29.25 14.733 29.1719 15.0057 29.0156C15.2813 28.8594 15.4886 28.6577 15.6278 28.4105C15.7699 28.1634 15.8409 27.9034 15.8409 27.6307V26.7102C15.7983 26.7614 15.7045 26.8082 15.5597 26.8509C15.4176 26.8906 15.2528 26.9261 15.0653 26.9574C14.8807 26.9858 14.7003 27.0114 14.5241 27.0341C14.3509 27.054 14.2102 27.071 14.1023 27.0852C13.8409 27.1193 13.5966 27.1747 13.3693 27.2514C13.1449 27.3253 12.9631 27.4375 12.8239 27.5881C12.6875 27.7358 12.6193 27.9375 12.6193 28.1932C12.6193 28.5426 12.7486 28.8068 13.0071 28.9858C13.2685 29.1619 13.5994 29.25 14 29.25ZM18.6822 32.4545V23.4545H19.6538V24.4943H19.7731C19.8469 24.3807 19.9492 24.2358 20.0799 24.0597C20.2134 23.8807 20.4038 23.7216 20.6509 23.5824C20.9009 23.4403 21.239 23.3693 21.6651 23.3693C22.2163 23.3693 22.7021 23.5071 23.1225 23.7827C23.543 24.0582 23.8711 24.4489 24.1069 24.9545C24.3427 25.4602 24.4606 26.0568 24.4606 26.7443C24.4606 27.4375 24.3427 28.0384 24.1069 28.5469C23.8711 29.0526 23.5444 29.4446 23.1268 29.723C22.7092 29.9986 22.2276 30.1364 21.6822 30.1364C21.2617 30.1364 20.9251 30.0668 20.6722 29.9276C20.4194 29.7855 20.2248 29.625 20.0884 29.446C19.9521 29.2642 19.8469 29.1136 19.7731 28.9943H19.6879V32.4545H18.6822ZM19.6708 26.7273C19.6708 27.2216 19.7433 27.6577 19.8881 28.0355C20.033 28.4105 20.2447 28.7045 20.5231 28.9176C20.8015 29.1278 21.1424 29.233 21.5458 29.233C21.9663 29.233 22.3171 29.1222 22.5984 28.9006C22.8825 28.6761 23.0955 28.375 23.2376 27.9972C23.3825 27.6165 23.4549 27.1932 23.4549 26.7273C23.4549 26.267 23.3839 25.8523 23.2418 25.483C23.1026 25.1108 22.891 24.8168 22.6069 24.6009C22.3256 24.3821 21.9719 24.2727 21.5458 24.2727C21.1367 24.2727 20.793 24.3764 20.5146 24.5838C20.2362 24.7884 20.0259 25.0753 19.8839 25.4446C19.7418 25.8111 19.6708 26.2386 19.6708 26.7273ZM25.9947 30V23.4545H27.0004V30H25.9947ZM26.506 22.3636C26.31 22.3636 26.141 22.2969 25.9989 22.1634C25.8597 22.0298 25.7901 21.8693 25.7901 21.6818C25.7901 21.4943 25.8597 21.3338 25.9989 21.2003C26.141 21.0668 26.31 21 26.506 21C26.7021 21 26.8697 21.0668 27.0089 21.2003C27.1509 21.3338 27.2219 21.4943 27.2219 21.6818C27.2219 21.8693 27.1509 22.0298 27.0089 22.1634C26.8697 22.2969 26.7021 22.3636 26.506 22.3636Z" fill="black"/>
</svg>
