<svg width="128" height="128" viewBox="0 0 128 128" fill="none" xmlns="http://www.w3.org/2000/svg">
<path d="M13.7886 93.233L64.3638 122.466L114.942 93.233V34.7683L64.3638 5.5362L13.7886 34.7683V93.233ZM64.3638 128L9 95.9996V32.0013L64.3638 0L119.73 32.0013V95.9996L64.3638 128Z" fill="black"/>
<path d="M13.0635 34.7935L64.3651 5.07935L115.667 34.7935V94.2223L64.3651 123.936L13.0635 94.2223V34.7935Z" fill="white"/>
<path d="M88.238 42.4752C88.238 44.7956 87.7716 47.1007 86.8387 49.3906C85.9059 51.6805 84.6543 53.8024 83.084 55.7564C81.5137 57.7105 79.7024 59.4202 77.6501 60.8858C75.5979 62.3513 73.4679 63.4046 71.2601 64.0458L70.2806 62.4429C71.5866 61.8017 72.7838 60.9774 73.8721 59.9698C74.9604 58.9623 75.8933 57.825 76.6707 56.5579C77.448 55.2908 78.0466 53.9474 78.4664 52.5277C78.8862 51.108 79.0961 49.6654 79.0961 48.1998C79.0961 46.5206 78.8473 44.933 78.3498 43.4369C77.8523 41.9408 77.1215 40.6356 76.1576 39.5212C75.1936 38.4068 74.0043 37.529 72.5894 36.8879C71.1746 36.2467 69.5499 35.9261 67.7153 35.9261C65.4765 35.9261 63.4242 36.3535 61.5585 37.2084C59.6928 38.0633 58.0137 39.2159 56.5211 40.6662C55.0285 42.1164 53.7303 43.7804 52.6265 45.6581C51.5226 47.5358 50.6053 49.5051 49.8746 51.566C49.1438 53.6269 48.5919 55.7106 48.2187 57.8173C47.8456 59.924 47.659 61.9086 47.659 63.771C47.659 65.664 47.8612 67.618 48.2654 69.6331C48.6696 71.6482 49.2604 73.6327 50.0378 75.5868C50.8152 77.5408 51.7791 79.388 52.9296 81.1283C54.0802 82.8686 55.4095 84.3952 56.9176 85.708C58.4257 87.0209 60.1048 88.0666 61.955 88.8452C63.8051 89.6237 65.8185 90.013 67.9952 90.013C69.4877 90.013 70.9414 89.8146 72.3562 89.4176C73.7711 89.0207 75.1314 88.4864 76.4374 87.8147C77.7434 87.143 78.9795 86.3492 80.1455 85.4333C81.3116 84.5173 82.3921 83.525 83.3872 82.4564L84.9264 83.9219C83.5582 85.6928 81.9335 87.3949 80.0522 89.0284C78.171 90.6618 76.1421 92.1121 73.9654 93.3791C71.7887 94.6462 69.511 95.6537 67.1323 96.4018C64.7535 97.1498 62.3981 97.5238 60.0659 97.5238C57.796 97.5238 55.6582 97.1345 53.6526 96.356C51.647 95.5774 49.8046 94.5241 48.1255 93.1959C46.4463 91.8678 44.946 90.3107 43.6245 88.5246C42.3029 86.7385 41.1835 84.8379 40.2662 82.8228C39.3489 80.8077 38.6493 78.7316 38.1673 76.5943C37.6853 74.4571 37.4443 72.3657 37.4443 70.3201C37.4443 67.3585 37.9496 64.313 38.9602 61.1835C39.9708 58.0539 41.3623 55.0161 43.1347 52.0697C44.9071 49.1234 46.9983 46.3374 49.4081 43.7117C51.818 41.0859 54.4144 38.7961 57.1974 36.8421C59.9804 34.888 62.8878 33.3385 65.9196 32.1936C68.9513 31.0487 71.9753 30.4762 74.9915 30.4762C76.8572 30.4762 78.5985 30.7433 80.2155 31.2777C81.8324 31.812 83.2317 32.5829 84.4133 33.5904C85.5949 34.598 86.5278 35.8498 87.2119 37.3458C87.8959 38.8419 88.238 40.5516 88.238 42.4752Z" fill="black"/>
</svg>
