<svg width="128" height="128" viewBox="0 0 128 128" fill="none" xmlns="http://www.w3.org/2000/svg">
<path d="M126.37 98.8391C121.81 99.9991 118.99 98.8891 116.46 95.0891C110.78 86.5791 104.51 78.4591 98.46 70.1891C97.68 69.1191 96.87 68.0691 95.86 66.7391C88.7 76.3991 81.55 85.5991 74.84 95.1691C72.44 98.5891 69.92 100.079 65.44 98.8691L92.36 62.7391L67.3 30.1091C71.61 29.2691 74.59 29.6991 77.23 33.5591C83.06 42.0791 89.49 50.1891 95.9 58.7691C102.35 50.2191 108.7 42.0991 114.7 33.6591C117.11 30.2391 119.7 28.9391 124.03 30.1991C120.75 34.5491 117.54 38.8291 114.31 43.0791C109.95 48.8091 105.67 54.6091 101.15 60.2191C99.54 62.2191 99.8 63.5191 101.24 65.4091C109.6 76.3991 117.86 87.4991 126.37 98.8391ZM1.03 62.1391C1.75 58.5291 2.23 54.8491 3.23 51.3091C9.23 29.8791 33.83 20.9691 50.73 34.2491C60.63 42.0391 63.09 53.0191 62.6 65.3991H6.8C5.96 87.6091 21.95 101.019 42.33 94.1791C49.48 91.7791 53.69 86.1791 55.8 79.1791C56.87 75.6691 58.64 75.1191 61.94 76.1191C60.25 84.8791 56.42 92.1991 48.42 96.7791C36.42 103.639 19.29 101.419 10.28 91.8891C4.96 86.2891 2.7 79.3191 1.7 71.7891C1.55 70.5891 1.24 69.4091 1 68.2191C1.02 66.1924 1.03 64.1658 1.03 62.1391V62.1391ZM6.9 60.6491H57.33C57 44.5891 47 33.1791 33.33 33.0791C18.33 32.9591 7.55 44.0991 6.9 60.6491V60.6491Z" fill="black"/>
</svg>
