<svg width="500" height="500" viewBox="0 0 500 500" fill="none" xmlns="http://www.w3.org/2000/svg">
<rect width="500" height="500" fill="white"/>
<path d="M387.502 250.633H300.02V275.643H360.03C351.271 313.141 323.763 344.377 287.532 356.899L143.733 213.136C158.718 169.377 201.246 138.106 250 138.106C287.497 138.106 321.266 156.854 342.512 185.628L361.261 169.377C336.251 135.608 296.256 113.095 250 113.095C184.995 113.095 129.979 159.352 116.226 220.593L281.236 385.603C341.246 370.618 387.502 315.638 387.502 250.633ZM112.497 251.899C112.497 286.899 126.251 320.633 152.492 346.91C178.733 373.186 213.733 386.905 247.502 386.905L112.497 251.899Z" fill="white"/>
<path d="M250 75C153.759 75 75 153.759 75 250C75 346.241 153.759 425 250 425C346.241 425 425 346.241 425 250C425 153.759 346.241 75 250 75ZM152.492 347.508C126.251 321.266 112.497 286.266 112.497 252.497L248.769 387.503C213.734 386.236 178.734 373.749 152.492 347.508ZM280.005 383.774L116.226 219.995C129.98 158.754 184.995 112.497 250 112.497C296.256 112.497 336.251 135.01 361.261 168.744L342.513 184.995C321.266 156.256 287.497 137.508 250 137.508C201.246 137.508 159.985 168.744 143.734 212.503L287.497 356.266C323.764 343.779 351.236 312.508 359.995 275.01H300.02V250H387.538C387.503 315.005 341.281 370.02 280.005 383.774Z" fill="black"/>
</svg>
