<svg width="128" height="128" viewBox="0 0 128 128" fill="none" xmlns="http://www.w3.org/2000/svg">
<path d="M18.1537 96.508L13.5537 93.851L64.8037 5.09003L69.4007 7.74603L18.1537 96.508Z" fill="black"/>
<path d="M12.4971 86.761H114.993V92.071H12.4971V86.761Z" fill="black"/>
<path d="M65.7943 119.344L14.5293 89.746L17.1853 85.144L68.4513 114.746L65.7943 119.344ZM110.329 42.199L59.0643 12.597L61.7203 8L112.986 37.597L110.329 42.199Z" fill="black"/>
<path d="M17.197 42.179L14.54 37.578L65.81 7.97998L68.466 12.578L17.197 42.179Z" fill="black"/>
<path d="M109.384 96.508L58.1385 7.74603L62.7365 5.09003L113.986 93.851L109.384 96.508ZM16.5635 34.054H21.8765V93.258H16.5645L16.5635 34.054Z" fill="black"/>
<path d="M105.65 34.054H110.962V93.258H105.65V34.054Z" fill="black"/>
<path d="M64.8923 117.097L62.5723 113.077L107.158 87.332L109.478 91.352L64.8923 117.097Z" fill="black"/>
<path d="M118.002 94.984C114.932 100.328 108.084 102.152 102.741 99.082C97.3965 96.008 95.5725 89.16 98.6425 83.816C101.717 78.472 108.565 76.648 113.909 79.719C119.284 82.824 121.108 89.64 118.002 94.984V94.984ZM28.8535 43.496C25.7795 48.84 18.9315 50.664 13.5875 47.593C8.24352 44.519 6.41952 37.672 9.49052 32.328C12.5645 26.984 19.4115 25.16 24.7555 28.23C30.0995 31.336 31.9235 38.152 28.8535 43.496ZM9.52552 94.984C6.45052 89.64 8.27552 82.824 13.6185 79.718C18.9625 76.648 25.7785 78.472 28.8845 83.816C31.9545 89.16 30.1305 95.976 24.7865 99.082C19.4115 102.152 12.5955 100.328 9.52552 94.984V94.984ZM98.6735 43.496C95.6035 38.152 97.4275 31.336 102.772 28.23C108.116 25.16 114.932 26.984 118.037 32.328C121.107 37.672 119.284 44.488 113.94 47.594C108.596 50.664 101.748 48.84 98.6735 43.496ZM63.7635 126.312C62.2966 126.313 60.8437 126.025 59.4882 125.465C58.1326 124.904 56.9009 124.081 55.8636 123.044C54.8263 122.007 54.0037 120.775 53.443 119.419C52.8822 118.064 52.5942 116.611 52.5955 115.144C52.5942 113.677 52.8822 112.224 53.443 110.869C54.0037 109.513 54.8263 108.281 55.8636 107.244C56.9009 106.207 58.1326 105.384 59.4882 104.823C60.8437 104.263 62.2966 103.975 63.7635 103.976C65.2305 103.975 66.6833 104.263 68.0389 104.823C69.3944 105.384 70.6261 106.207 71.6634 107.244C72.7007 108.281 73.5233 109.513 74.0841 110.869C74.6449 112.224 74.9328 113.677 74.9315 115.144C74.9315 121.289 69.9395 126.312 63.7635 126.312ZM63.7635 23.336C62.2966 23.3373 60.8437 23.0493 59.4882 22.4886C58.1326 21.9278 56.9009 21.1052 55.8636 20.0679C54.8263 19.0306 54.0037 17.7989 53.443 16.4434C52.8822 15.0878 52.5942 13.635 52.5955 12.168C52.5942 10.701 52.8822 9.2482 53.443 7.89264C54.0037 6.53708 54.8263 5.30541 55.8636 4.2681C56.9009 3.2308 58.1326 2.40822 59.4882 1.84744C60.8437 1.28666 62.2966 0.998689 63.7635 1C65.2305 0.998689 66.6833 1.28666 68.0389 1.84744C69.3944 2.40822 70.6261 3.2308 71.6634 4.2681C72.7007 5.30541 73.5233 6.53708 74.0841 7.89264C74.6449 9.2482 74.9328 10.701 74.9315 12.168C74.9328 13.635 74.6449 15.0878 74.0841 16.4434C73.5233 17.7989 72.7007 19.0306 71.6634 20.0679C70.6261 21.1052 69.3944 21.9278 68.0389 22.4886C66.6833 23.0493 65.2305 23.3373 63.7635 23.336" fill="black"/>
</svg>
