<svg width="128" height="128" viewBox="0 0 128 128" fill="none" xmlns="http://www.w3.org/2000/svg">
<path fill-rule="evenodd" clip-rule="evenodd" d="M128 0H0V128H128V0ZM99.4892 80.7164C110.435 85.1547 114.13 89.9145 115.04 95.5812C115.914 100.458 114.826 103.621 114.663 104.096C110.624 117.91 88.1081 118.358 79.1104 109.232C78.8388 108.925 78.5816 108.639 78.337 108.367C76.8699 106.735 75.8555 105.607 74.8834 103.482L74.8872 103.479C79.6661 100.731 79.6673 100.73 84.3177 98.039C86.845 101.924 89.1827 104.06 93.3859 104.934C99.0893 105.631 104.828 103.67 103.541 97.6134C102.774 94.7453 98.9716 93.1354 94.5377 91.2581C91.3231 89.897 87.7765 88.3954 84.8139 86.1717C77.6588 81.3663 75.9819 69.6895 81.8619 63.0176C83.8216 60.5499 87.1635 58.7093 90.6701 57.8232L94.3295 57.3499C101.355 57.208 105.747 59.0625 108.971 62.6634C109.868 63.5723 110.599 64.5527 111.97 66.6771C111.194 67.1717 110.579 67.5628 110.044 67.9029C108.001 69.2032 107.126 69.7593 102.878 72.5105C101.732 70.0428 99.8315 68.4958 97.8242 67.8231C94.7076 66.8785 90.7753 67.9055 89.9607 71.1997C89.6769 72.2148 89.7364 73.1594 90.1849 74.8363C91.2073 77.1687 94.1794 78.4329 97.2915 79.7567C98.0242 80.0684 98.7646 80.3834 99.4892 80.7164ZM56.8999 58.0812H68.5182C68.5182 61.6256 68.5246 65.1661 68.5311 68.704C68.544 75.832 68.557 82.9497 68.5172 90.0683C68.5207 91.0326 68.5361 91.9832 68.5512 92.9189C68.6386 98.3186 68.7179 103.22 66.4632 107.377C64.6335 111.097 61.1388 113.541 57.0885 114.721C50.8651 116.15 44.9146 115.335 40.4872 112.678C37.5233 110.86 35.2094 108.062 33.6387 104.838L43.0849 99.0531C43.1599 99.0844 43.3683 99.4507 43.6501 99.9461C43.6814 100.001 43.7136 100.058 43.7467 100.116C44.9503 102.134 45.9892 103.562 48.0322 104.566C50.0395 105.251 54.4441 105.688 56.1438 102.158C56.9727 100.726 56.93 96.7088 56.8788 91.899C56.8658 90.68 56.8523 89.4101 56.8523 88.1185L56.8999 58.0812Z" fill="black"/>
</svg>
