<svg width="500" height="500" fill="none" xmlns="http://www.w3.org/2000/svg"><path d="M425 75H75v350h350V75Z" fill="#000"/><path d="M310.111 348.439c7.05 11.511 16.222 19.972 32.444 19.972 13.628 0 22.334-6.811 22.334-16.222 0-11.278-8.945-15.272-23.945-21.833l-8.222-3.528c-23.733-10.111-39.5-22.778-39.5-49.556 0-24.666 18.794-43.444 48.167-43.444 20.911 0 35.944 7.278 46.777 26.333l-25.611 16.445c-5.639-10.112-11.722-14.095-21.166-14.095-9.634 0-15.739 6.111-15.739 14.095 0 9.866 6.111 13.861 20.222 19.972l8.222 3.522c27.945 11.983 43.722 24.2 43.722 51.667 0 29.611-23.261 45.833-54.5 45.833-30.544 0-50.277-14.556-59.933-33.633l26.728-15.528Zm-116.184 2.85c5.167 9.167 9.867 16.917 21.167 16.917 10.806 0 17.622-4.228 17.622-20.667V235.706h32.889v112.277c0 34.056-19.966 49.556-49.111 49.556-26.333 0-41.583-13.628-49.339-30.042l26.772-16.208Z" fill="#fff"/></svg>