<svg width="128" height="128" viewBox="0 0 128 128" fill="none" xmlns="http://www.w3.org/2000/svg">
<path d="M12.9261 21.2727V30H11.9205V21.2727H12.9261ZM17.4272 30.1364C16.8363 30.1364 16.3178 29.9957 15.8718 29.7145C15.4286 29.4332 15.082 29.0398 14.832 28.5341C14.5849 28.0284 14.4613 27.4375 14.4613 26.7614C14.4613 26.0795 14.5849 25.4844 14.832 24.9759C15.082 24.4673 15.4286 24.0724 15.8718 23.7912C16.3178 23.5099 16.8363 23.3693 17.4272 23.3693C18.0181 23.3693 18.5352 23.5099 18.9783 23.7912C19.4244 24.0724 19.771 24.4673 20.0181 24.9759C20.2681 25.4844 20.3931 26.0795 20.3931 26.7614C20.3931 27.4375 20.2681 28.0284 20.0181 28.5341C19.771 29.0398 19.4244 29.4332 18.9783 29.7145C18.5352 29.9957 18.0181 30.1364 17.4272 30.1364ZM17.4272 29.233C17.8761 29.233 18.2454 29.1179 18.5352 28.8878C18.8249 28.6577 19.0394 28.3551 19.1786 27.9801C19.3178 27.6051 19.3874 27.1989 19.3874 26.7614C19.3874 26.3239 19.3178 25.9162 19.1786 25.5384C19.0394 25.1605 18.8249 24.8551 18.5352 24.6222C18.2454 24.3892 17.8761 24.2727 17.4272 24.2727C16.9783 24.2727 16.609 24.3892 16.3192 24.6222C16.0295 24.8551 15.815 25.1605 15.6758 25.5384C15.5366 25.9162 15.467 26.3239 15.467 26.7614C15.467 27.1989 15.5366 27.6051 15.6758 27.9801C15.815 28.3551 16.0295 28.6577 16.3192 28.8878C16.609 29.1179 16.9783 29.233 17.4272 29.233ZM24.5874 30.1364C23.9737 30.1364 23.4453 29.9915 23.0021 29.7017C22.5589 29.4119 22.218 29.0128 21.9794 28.5043C21.7408 27.9957 21.6214 27.4148 21.6214 26.7614C21.6214 26.0966 21.7436 25.5099 21.9879 25.0014C22.2351 24.4901 22.5788 24.0909 23.0192 23.804C23.4624 23.5142 23.9794 23.3693 24.5703 23.3693C25.0305 23.3693 25.4453 23.4545 25.8146 23.625C26.1839 23.7955 26.4865 24.0341 26.7223 24.3409C26.9581 24.6477 27.1044 25.0057 27.1612 25.4148H26.1555C26.0788 25.1165 25.9084 24.8523 25.6442 24.6222C25.3828 24.3892 25.0305 24.2727 24.5874 24.2727C24.1953 24.2727 23.8516 24.375 23.5561 24.5795C23.2635 24.7812 23.0348 25.0668 22.87 25.4361C22.7081 25.8026 22.6271 26.233 22.6271 26.7273C22.6271 27.233 22.7067 27.6733 22.8658 28.0483C23.0277 28.4233 23.255 28.7145 23.5476 28.9219C23.843 29.1293 24.1896 29.233 24.5874 29.233C24.8487 29.233 25.0859 29.1875 25.299 29.0966C25.5121 29.0057 25.6925 28.875 25.8402 28.7045C25.9879 28.5341 26.093 28.3295 26.1555 28.0909H27.1612C27.1044 28.4773 26.9638 28.8253 26.7393 29.1349C26.5178 29.4418 26.2237 29.6861 25.8572 29.8679C25.4936 30.0469 25.0703 30.1364 24.5874 30.1364ZM30.5575 30.1534C30.1428 30.1534 29.7663 30.0753 29.4283 29.919C29.0902 29.7599 28.8217 29.5312 28.6229 29.233C28.424 28.9318 28.3246 28.5682 28.3246 28.142C28.3246 27.767 28.3984 27.4631 28.5462 27.2301C28.6939 26.9943 28.8913 26.8097 29.1385 26.6761C29.3857 26.5426 29.6584 26.4432 29.9567 26.3778C30.2578 26.3097 30.5604 26.2557 30.8643 26.2159C31.2621 26.1648 31.5845 26.1264 31.8317 26.1009C32.0817 26.0724 32.2635 26.0256 32.3771 25.9602C32.4936 25.8949 32.5518 25.7812 32.5518 25.6193V25.5852C32.5518 25.1648 32.4368 24.8381 32.2067 24.6051C31.9794 24.3722 31.6342 24.2557 31.1712 24.2557C30.6911 24.2557 30.3146 24.3608 30.0419 24.571C29.7692 24.7812 29.5774 25.0057 29.4666 25.2443L28.5121 24.9034C28.6825 24.5057 28.9098 24.196 29.1939 23.9744C29.4808 23.75 29.7933 23.5937 30.1314 23.5057C30.4723 23.4148 30.8075 23.3693 31.1371 23.3693C31.3473 23.3693 31.5888 23.3949 31.8615 23.446C32.1371 23.4943 32.4027 23.5952 32.6584 23.7486C32.9169 23.902 33.1314 24.1335 33.3018 24.4432C33.4723 24.7528 33.5575 25.1676 33.5575 25.6875V30H32.5518V29.1136H32.5007C32.4325 29.2557 32.3189 29.4077 32.1598 29.5696C32.0007 29.7315 31.7891 29.8693 31.5249 29.983C31.2607 30.0966 30.9382 30.1534 30.5575 30.1534ZM30.7109 29.25C31.1087 29.25 31.4439 29.1719 31.7166 29.0156C31.9922 28.8594 32.1996 28.6577 32.3388 28.4105C32.4808 28.1634 32.5518 27.9034 32.5518 27.6307V26.7102C32.5092 26.7614 32.4155 26.8082 32.2706 26.8509C32.1286 26.8906 31.9638 26.9261 31.7763 26.9574C31.5916 26.9858 31.4112 27.0114 31.2351 27.0341C31.0618 27.054 30.9212 27.071 30.8132 27.0852C30.5518 27.1193 30.3075 27.1747 30.0803 27.2514C29.8558 27.3253 29.674 27.4375 29.5348 27.5881C29.3984 27.7358 29.3303 27.9375 29.3303 28.1932C29.3303 28.5426 29.4595 28.8068 29.718 28.9858C29.9794 29.1619 30.3104 29.25 30.7109 29.25ZM36.3988 21.2727V30H35.3931V21.2727H36.3988ZM42.8771 24.9205L41.9737 25.1761C41.9169 25.0256 41.8331 24.8793 41.7223 24.7372C41.6143 24.5923 41.4666 24.473 41.2791 24.3793C41.0916 24.2855 40.8516 24.2386 40.5589 24.2386C40.1584 24.2386 39.8246 24.331 39.5575 24.5156C39.2933 24.6974 39.1612 24.929 39.1612 25.2102C39.1612 25.4602 39.2521 25.6577 39.4339 25.8026C39.6158 25.9474 39.8999 26.0682 40.2862 26.1648L41.2578 26.4034C41.843 26.5455 42.2791 26.7628 42.5661 27.0554C42.853 27.3452 42.9964 27.7187 42.9964 28.1761C42.9964 28.5511 42.8885 28.8864 42.6726 29.1818C42.4595 29.4773 42.1612 29.7102 41.7777 29.8807C41.3942 30.0511 40.9482 30.1364 40.4396 30.1364C39.772 30.1364 39.2195 29.9915 38.782 29.7017C38.3445 29.4119 38.0675 28.9886 37.951 28.4318L38.9055 28.1932C38.9964 28.5455 39.1683 28.8097 39.4212 28.9858C39.6768 29.1619 40.0107 29.25 40.4226 29.25C40.8913 29.25 41.2635 29.1506 41.5391 28.9517C41.8175 28.75 41.9567 28.5085 41.9567 28.2273C41.9567 28 41.8771 27.8097 41.718 27.6562C41.5589 27.5 41.3146 27.3835 40.9851 27.3068L39.8942 27.0511C39.2947 26.9091 38.8544 26.6889 38.5732 26.3906C38.2947 26.0895 38.1555 25.7131 38.1555 25.2614C38.1555 24.892 38.2592 24.5653 38.4666 24.2812C38.6768 23.9972 38.9624 23.7741 39.3232 23.6122C39.6868 23.4503 40.0987 23.3693 40.5589 23.3693C41.2067 23.3693 41.7152 23.5114 42.0845 23.7955C42.4567 24.0795 42.7209 24.4545 42.8771 24.9205ZM47.3569 23.4545V24.3068H43.9648V23.4545H47.3569ZM44.9535 21.8864H45.9592V28.125C45.9592 28.4091 46.0004 28.6222 46.0827 28.7642C46.168 28.9034 46.2759 28.9972 46.4066 29.0455C46.5401 29.0909 46.6808 29.1136 46.8285 29.1136C46.9393 29.1136 47.0302 29.108 47.1012 29.0966C47.1722 29.0824 47.229 29.071 47.2717 29.0625L47.4762 29.9659C47.408 29.9915 47.3129 30.017 47.1907 30.0426C47.0685 30.071 46.9137 30.0852 46.7262 30.0852C46.4421 30.0852 46.1637 30.0241 45.891 29.902C45.6211 29.7798 45.3967 29.5938 45.2177 29.3438C45.0415 29.0938 44.9535 28.7784 44.9535 28.3977V21.8864ZM51.4585 30.1364C50.8675 30.1364 50.3491 29.9957 49.9031 29.7145C49.4599 29.4332 49.1133 29.0398 48.8633 28.5341C48.6161 28.0284 48.4925 27.4375 48.4925 26.7614C48.4925 26.0795 48.6161 25.4844 48.8633 24.9759C49.1133 24.4673 49.4599 24.0724 49.9031 23.7912C50.3491 23.5099 50.8675 23.3693 51.4585 23.3693C52.0494 23.3693 52.5664 23.5099 53.0096 23.7912C53.4556 24.0724 53.8022 24.4673 54.0494 24.9759C54.2994 25.4844 54.4244 26.0795 54.4244 26.7614C54.4244 27.4375 54.2994 28.0284 54.0494 28.5341C53.8022 29.0398 53.4556 29.4332 53.0096 29.7145C52.5664 29.9957 52.0494 30.1364 51.4585 30.1364ZM51.4585 29.233C51.9073 29.233 52.2766 29.1179 52.5664 28.8878C52.8562 28.6577 53.0707 28.3551 53.2099 27.9801C53.3491 27.6051 53.4187 27.1989 53.4187 26.7614C53.4187 26.3239 53.3491 25.9162 53.2099 25.5384C53.0707 25.1605 52.8562 24.8551 52.5664 24.6222C52.2766 24.3892 51.9073 24.2727 51.4585 24.2727C51.0096 24.2727 50.6403 24.3892 50.3505 24.6222C50.0607 24.8551 49.8462 25.1605 49.707 25.5384C49.5678 25.9162 49.4982 26.3239 49.4982 26.7614C49.4982 27.1989 49.5678 27.6051 49.707 27.9801C49.8462 28.3551 50.0607 28.6577 50.3505 28.8878C50.6403 29.1179 51.0096 29.233 51.4585 29.233ZM55.9595 30V23.4545H56.9311V24.4432H56.9993C57.1186 24.1193 57.3345 23.8565 57.647 23.6548C57.9595 23.4531 58.3118 23.3523 58.7038 23.3523C58.7777 23.3523 58.87 23.3537 58.9808 23.3565C59.0916 23.3594 59.1754 23.3636 59.2322 23.3693V24.392C59.1982 24.3835 59.12 24.3707 58.9979 24.3537C58.8786 24.3338 58.7521 24.3239 58.6186 24.3239C58.3004 24.3239 58.0163 24.3906 57.7663 24.5241C57.5192 24.6548 57.3232 24.8366 57.1783 25.0696C57.0362 25.2997 56.9652 25.5625 56.9652 25.858V30H55.9595ZM62.3505 30.1534C61.9357 30.1534 61.5593 30.0753 61.2212 29.919C60.8832 29.7599 60.6147 29.5312 60.4158 29.233C60.217 28.9318 60.1175 28.5682 60.1175 28.142C60.1175 27.767 60.1914 27.4631 60.3391 27.2301C60.4869 26.9943 60.6843 26.8097 60.9315 26.6761C61.1786 26.5426 61.4513 26.4432 61.7496 26.3778C62.0508 26.3097 62.3533 26.2557 62.6573 26.2159C63.055 26.1648 63.3775 26.1264 63.6246 26.1009C63.8746 26.0724 64.0565 26.0256 64.1701 25.9602C64.2866 25.8949 64.3448 25.7812 64.3448 25.6193V25.5852C64.3448 25.1648 64.2298 24.8381 63.9996 24.6051C63.7724 24.3722 63.4272 24.2557 62.9641 24.2557C62.484 24.2557 62.1076 24.3608 61.8349 24.571C61.5621 24.7812 61.3704 25.0057 61.2596 25.2443L60.305 24.9034C60.4755 24.5057 60.7028 24.196 60.9869 23.9744C61.2738 23.75 61.5863 23.5937 61.9244 23.5057C62.2653 23.4148 62.6005 23.3693 62.93 23.3693C63.1403 23.3693 63.3817 23.3949 63.6545 23.446C63.93 23.4943 64.1957 23.5952 64.4513 23.7486C64.7099 23.902 64.9244 24.1335 65.0948 24.4432C65.2653 24.7528 65.3505 25.1676 65.3505 25.6875V30H64.3448V29.1136H64.2937C64.2255 29.2557 64.1119 29.4077 63.9528 29.5696C63.7937 29.7315 63.582 29.8693 63.3178 29.983C63.0536 30.0966 62.7312 30.1534 62.3505 30.1534ZM62.5039 29.25C62.9016 29.25 63.2369 29.1719 63.5096 29.0156C63.7852 28.8594 63.9925 28.6577 64.1317 28.4105C64.2738 28.1634 64.3448 27.9034 64.3448 27.6307V26.7102C64.3022 26.7614 64.2085 26.8082 64.0636 26.8509C63.9215 26.8906 63.7567 26.9261 63.5692 26.9574C63.3846 26.9858 63.2042 27.0114 63.0281 27.0341C62.8548 27.054 62.7141 27.071 62.6062 27.0852C62.3448 27.1193 62.1005 27.1747 61.8732 27.2514C61.6488 27.3253 61.467 27.4375 61.3278 27.5881C61.1914 27.7358 61.1232 27.9375 61.1232 28.1932C61.1232 28.5426 61.2525 28.8068 61.511 28.9858C61.7724 29.1619 62.1033 29.25 62.5039 29.25ZM69.8281 32.5909C69.3423 32.5909 68.9247 32.5284 68.5753 32.4034C68.2259 32.2812 67.9347 32.1193 67.7017 31.9176C67.4716 31.7188 67.2884 31.5057 67.152 31.2784L67.9531 30.7159C68.044 30.8352 68.1591 30.9716 68.2983 31.125C68.4375 31.2812 68.6278 31.4162 68.8693 31.5298C69.1136 31.6463 69.4332 31.7045 69.8281 31.7045C70.3565 31.7045 70.7926 31.5767 71.1364 31.321C71.4801 31.0653 71.652 30.6648 71.652 30.1193V28.7898H71.5668C71.4929 28.9091 71.3878 29.0568 71.2514 29.233C71.1179 29.4062 70.9247 29.5611 70.6719 29.6974C70.4219 29.831 70.0838 29.8977 69.6577 29.8977C69.1293 29.8977 68.6548 29.7727 68.2344 29.5227C67.8168 29.2727 67.4858 28.9091 67.2415 28.4318C67 27.9545 66.8793 27.375 66.8793 26.6932C66.8793 26.0227 66.9972 25.4389 67.233 24.9418C67.4688 24.4418 67.7969 24.0554 68.2173 23.7827C68.6378 23.5071 69.1236 23.3693 69.6747 23.3693C70.1009 23.3693 70.4389 23.4403 70.6889 23.5824C70.9418 23.7216 71.1349 23.8807 71.2685 24.0597C71.4048 24.2358 71.5099 24.3807 71.5838 24.4943H71.6861V23.4545H72.6577V30.1875C72.6577 30.75 72.5298 31.2074 72.2741 31.5597C72.0213 31.9148 71.6804 32.1747 71.2514 32.3395C70.8253 32.5071 70.3509 32.5909 69.8281 32.5909ZM69.794 28.9943C70.1974 28.9943 70.5384 28.902 70.8168 28.7173C71.0952 28.5327 71.3068 28.267 71.4517 27.9205C71.5966 27.5739 71.669 27.1591 71.669 26.6761C71.669 26.2045 71.598 25.7884 71.456 25.4276C71.3139 25.0668 71.1037 24.7841 70.8253 24.5795C70.5469 24.375 70.2031 24.2727 69.794 24.2727C69.3679 24.2727 69.0128 24.3807 68.7287 24.5966C68.4474 24.8125 68.2358 25.1023 68.0938 25.4659C67.9545 25.8295 67.8849 26.233 67.8849 26.6761C67.8849 27.1307 67.956 27.5327 68.098 27.8821C68.2429 28.2287 68.456 28.5014 68.7372 28.7003C69.0213 28.8963 69.3736 28.9943 69.794 28.9943ZM77.2429 30.1364C76.6122 30.1364 76.0682 29.9972 75.6108 29.7188C75.1562 29.4375 74.8054 29.0455 74.5582 28.5426C74.3139 28.0369 74.1918 27.4489 74.1918 26.7784C74.1918 26.108 74.3139 25.517 74.5582 25.0057C74.8054 24.4915 75.1491 24.0909 75.5895 23.804C76.0327 23.5142 76.5497 23.3693 77.1406 23.3693C77.4815 23.3693 77.8182 23.4261 78.1506 23.5398C78.483 23.6534 78.7855 23.8381 79.0582 24.0938C79.331 24.3466 79.5483 24.6818 79.7102 25.0994C79.8722 25.517 79.9531 26.0312 79.9531 26.642V27.0682H74.9077V26.1989H78.9304C78.9304 25.8295 78.8565 25.5 78.7088 25.2102C78.5639 24.9205 78.3565 24.6918 78.0866 24.5241C77.8196 24.3565 77.5043 24.2727 77.1406 24.2727C76.7401 24.2727 76.3935 24.3722 76.1009 24.571C75.8111 24.767 75.5881 25.0227 75.4318 25.3381C75.2756 25.6534 75.1974 25.9915 75.1974 26.3523V26.9318C75.1974 27.4261 75.2827 27.8452 75.4531 28.1889C75.6264 28.5298 75.8665 28.7898 76.1733 28.9688C76.4801 29.1449 76.8366 29.233 77.2429 29.233C77.5071 29.233 77.7457 29.196 77.9588 29.1222C78.1747 29.0455 78.3608 28.9318 78.517 28.7812C78.6733 28.6278 78.794 28.4375 78.8793 28.2102L79.8509 28.483C79.7486 28.8125 79.5767 29.1023 79.3352 29.3523C79.0938 29.5994 78.7955 29.7926 78.4403 29.9318C78.0852 30.0682 77.6861 30.1364 77.2429 30.1364Z" fill="black"/>
</svg>
