<svg width="128" height="128" viewBox="0 0 128 128" fill="none" xmlns="http://www.w3.org/2000/svg">
<path d="M115.603 66.0215L117.5 66.5423V64.575V24C117.5 20.9661 115.034 18.5 112 18.5H16C12.9661 18.5 10.5 20.9661 10.5 24V64.575V66.5382L12.3942 66.0223C13.5841 65.6982 14.7738 65.5 16 65.5H112C113.237 65.5 114.426 65.6984 115.603 66.0215ZM71.5 92C71.5 89.5138 73.5155 87.5 76 87.5C78.4966 87.5 80.5 89.5034 80.5 92C80.5 94.4845 78.4862 96.5 76 96.5C73.5159 96.5 71.5 94.4841 71.5 92ZM16 9.5H112C119.997 9.5 126.5 15.9917 126.5 24V104C126.5 112.009 120.009 118.5 112 118.5H16C7.99093 118.5 1.5 112.009 1.5 104V24C1.5 15.9909 7.99093 9.5 16 9.5ZM112 109.5C115.034 109.5 117.5 107.034 117.5 104V80C117.5 76.9716 115.028 74.5 112 74.5H16C12.9661 74.5 10.5 76.9661 10.5 80V104C10.5 107.034 12.9661 109.5 16 109.5H112ZM95.5 92C95.5 89.5138 97.5155 87.5 100 87.5C102.497 87.5 104.5 89.5034 104.5 92C104.5 94.4845 102.486 96.5 100 96.5C97.5159 96.5 95.5 94.4841 95.5 92Z" stroke="black" stroke-width="3"/>
</svg>
