<svg width="128" height="128" viewBox="0 0 128 128" fill="none" xmlns="http://www.w3.org/2000/svg">
<path d="M4.21978 38H123.78C126.111 38 128 39.8893 128 42.2198V85.8242C128 88.1547 126.111 90.044 123.78 90.044H4.21978C1.88926 90.044 0 88.1547 0 85.8242V42.2198C0 39.8893 1.88926 38 4.21978 38Z" fill="black"/>
<path d="M68.2196 47.4579L68.2193 68.9151L76.101 61.035L80.0792 65.0135L65.5104 79.5813L50.7578 64.8287L54.7363 60.8503L62.5929 68.7069L62.5932 47.4579H68.2196Z" fill="white"/>
<path d="M17.5356 78.4893V61.8718L27.7098 72.0467L37.9612 61.7961V78.3214H43.5875V48.2135L27.7101 64.0898L11.9092 48.2878V78.4893H17.5356Z" fill="white"/>
<path d="M112.489 46.5602L116.467 50.5387L104.55 62.455L116.101 74.0056L112.122 77.9841L100.571 66.4338L89.0208 77.9841L85.0424 74.0056L96.5918 62.455L84.6758 50.5387L88.6542 46.5602L100.571 58.4762L112.489 46.5602Z" fill="white"/>
</svg>
