<svg width="128" height="128" viewBox="0 0 128 128" fill="none" xmlns="http://www.w3.org/2000/svg">
<path fill-rule="evenodd" clip-rule="evenodd" d="M123.78 38H4.21978C1.88926 38 0 39.8893 0 42.2198V85.8242C0 88.1547 1.88926 90.044 4.21978 90.044H123.78C126.111 90.044 128 88.1547 128 85.8242V42.2198C128 39.8893 126.111 38 123.78 38ZM68.2193 68.915L68.2196 47.4579H62.5932L62.5929 68.7068L54.7363 60.8502L50.7578 64.8287L65.5104 79.5813L80.0792 65.0135L76.101 61.0349L68.2193 68.915ZM17.5356 78.4893V61.8718L27.7098 72.0467L37.9612 61.7961V78.3214H43.5875V48.2135L27.7101 64.0898L11.9092 48.2878V78.4893H17.5356ZM116.467 50.5387L112.489 46.5602L100.571 58.4762L88.6542 46.5602L84.6758 50.5387L96.5918 62.455L85.0424 74.0056L89.0208 77.9841L100.571 66.4338L112.122 77.9841L116.101 74.0056L104.55 62.455L116.467 50.5387Z" fill="black"/>
</svg>
