<svg width="128" height="128" viewBox="0 0 128 128" fill="none" xmlns="http://www.w3.org/2000/svg">
<path d="M91.7802 58.77L89.4802 64.19H94.0902L91.7802 58.77V58.77ZM60.9102 52H64.9102C65.1103 51.9762 65.2985 51.8926 65.4502 51.76C67.7702 49 68.1002 43.6 68.1002 41.7C68.1003 41.5178 68.0293 41.3427 67.9023 41.212C67.7753 41.0812 67.6024 41.0052 67.4202 41H58.4202C58.2399 41 58.0669 41.0716 57.9394 41.1992C57.8119 41.3267 57.7402 41.4997 57.7402 41.68C57.8102 43.58 58.0802 49.04 60.3902 51.76C60.4528 51.8371 60.5322 51.8988 60.6224 51.9404C60.7125 51.982 60.811 52.0024 60.9102 52V52ZM65.3202 46.84C67.0002 46.23 67.0002 45.62 67.0002 45.62C66.8118 47.5135 66.1214 49.3225 65.0002 50.86C64.9473 50.9138 64.883 50.9552 64.8121 50.9811C64.7412 51.007 64.6654 51.0169 64.5902 51.01H61.2502C61.1102 51.01 60.9102 51.01 60.8402 50.86C60.0064 49.7418 59.4263 48.4552 59.1402 47.09C59.1402 47.09 63.0802 47.65 65.3202 46.84V46.84Z" fill="black"/>
<path d="M116.42 29.94L67.48 1.72001C66.4417 1.12055 65.2639 0.804962 64.065 0.804962C62.8661 0.804962 61.6883 1.12055 60.65 1.72001L11.6 29.94C10.5428 30.515 9.65428 31.3564 9.02276 32.3809C8.39125 33.4053 8.03866 34.5772 8 35.78V92.22C8.04805 93.4169 8.40244 94.5814 9.02925 95.6022C9.65605 96.6229 10.5343 97.4657 11.58 98.05L60.52 126.27C61.5583 126.869 62.7361 127.185 63.935 127.185C65.1339 127.185 66.3117 126.869 67.35 126.27L116.4 98.06C117.441 97.468 118.316 96.6238 118.945 95.6051C119.574 94.5863 119.937 93.4257 120 92.23V35.78C119.954 34.5814 119.6 33.4148 118.973 32.3922C118.346 31.3695 117.467 30.5252 116.42 29.94V29.94ZM112 88.29C111.995 89.3088 111.72 90.3081 111.204 91.1863C110.688 92.0645 109.948 92.7903 109.06 93.29L66.86 117.66C65.9789 118.192 64.9692 118.473 63.94 118.473C62.9108 118.473 61.9011 118.192 61.02 117.66L18.87 93.31C17.9854 92.8126 17.2517 92.0854 16.7464 91.2052C16.2412 90.3251 15.9833 89.3247 16 88.31V39.58C15.9918 38.5669 16.2533 37.5699 16.7576 36.6912C17.262 35.8125 17.9911 35.0839 18.87 34.58L61 10.2C61.8769 9.66665 62.8836 9.38456 63.91 9.38456C64.9364 9.38456 65.9431 9.66665 66.82 10.2L109.03 34.55C109.922 35.0445 110.664 35.7695 111.179 36.649C111.695 37.5286 111.964 38.5305 111.96 39.55L112 88.29Z" fill="black"/>
<path d="M40.0002 67.37C42.6732 67.37 44.8402 65.2031 44.8402 62.53C44.8402 59.8569 42.6732 57.69 40.0002 57.69C37.3271 57.69 35.1602 59.8569 35.1602 62.53C35.1602 65.2031 37.3271 67.37 40.0002 67.37Z" fill="black"/>
<path d="M108.06 36.32L65.85 12C65.2711 11.657 64.6128 11.4709 63.94 11.46C63.2583 11.4742 62.5911 11.66 62 12L19.87 36.32C19.2976 36.6667 18.8246 37.1555 18.4969 37.739C18.1693 38.3225 17.9981 38.9808 18 39.65V88.35C17.9988 89.0177 18.1704 89.6744 18.4981 90.2561C18.8258 90.8379 19.2984 91.325 19.87 91.67L62 116C62.5682 116.351 63.2223 116.538 63.89 116.54C64.5597 116.53 65.215 116.343 65.79 116L108.02 91.65C108.605 91.3152 109.094 90.836 109.44 90.2582C109.787 89.6805 109.98 89.0235 110 88.35V39.65C109.989 38.9753 109.805 38.3147 109.465 37.7316C109.125 37.1485 108.641 36.6625 108.06 36.32ZM67 68.19C67.6944 68.1891 68.3804 68.0376 69.0106 67.7458C69.6407 67.454 70.2001 67.029 70.65 66.5L72.17 68C71.8428 68.3671 71.4811 68.7019 71.09 69C70.7153 69.2986 70.3056 69.5505 69.87 69.75C69.4229 69.977 68.9442 70.1354 68.45 70.22C67.847 70.334 67.2333 70.3809 66.62 70.36C65.7138 70.373 64.8143 70.2025 63.9756 69.8588C63.137 69.5151 62.3765 69.0053 61.74 68.36C61.1513 67.715 60.708 66.9511 60.44 66.12C60.1217 65.2461 59.9724 64.3197 60 63.39V63.32C59.9631 62.398 60.1057 61.4776 60.42 60.61C60.7408 59.7905 61.2009 59.0327 61.78 58.37C62.4059 57.7214 63.1627 57.2135 64 56.88C64.8998 56.5196 65.8607 56.3362 66.83 56.34C67.3958 56.3501 67.9603 56.3969 68.52 56.48C69.06 56.62 69.47 56.75 69.94 56.89C70.3459 57.0761 70.7313 57.304 71.09 57.57C71.4397 57.8443 71.7735 58.1381 72.09 58.45L70.53 60.08C69.9848 59.4907 69.3012 59.0465 68.5412 58.7878C67.7811 58.529 66.9685 58.4638 66.1769 58.598C65.3853 58.7323 64.6397 59.0618 64.0075 59.5566C63.3752 60.0515 62.8763 60.6962 62.5559 61.4324C62.2354 62.1686 62.1036 62.973 62.1722 63.773C62.2409 64.5729 62.5079 65.3432 62.949 66.014C63.3902 66.6848 63.9916 67.2351 64.6989 67.615C65.4063 67.995 66.1971 68.1926 67 68.19ZM64.17 30.56C63.83 31.03 64.24 32.19 65.12 33.56C65.3309 33.8819 65.4738 34.2435 65.5402 34.6225C65.6066 35.0015 65.5949 35.3901 65.506 35.7645C65.4171 36.1389 65.2527 36.4912 65.023 36.7999C64.7933 37.1087 64.5031 37.3673 64.17 37.56C64.1772 36.729 63.914 35.9183 63.42 35.25C61.8 32.79 63.29 31.64 64.17 30.56ZM61.46 33.07C61.19 33.34 61.46 34.16 62.07 35.07C62.2153 35.2857 62.315 35.5288 62.3631 35.7845C62.4111 36.0401 62.4064 36.3028 62.3493 36.5565C62.2922 36.8103 62.1838 37.0497 62.0309 37.2601C61.878 37.4704 61.6837 37.6474 61.46 37.78C61.4621 37.2356 61.3019 36.703 61 36.25C59.9 34.56 60.85 33.81 61.46 33.07ZM56.5 39H69.26C69.3465 38.9946 69.4332 39.0068 69.5149 39.0359C69.5966 39.065 69.6714 39.1104 69.735 39.1693C69.7986 39.2282 69.8496 39.2994 69.8848 39.3786C69.92 39.4578 69.9388 39.5433 69.94 39.63C69.94 42 69.6 50 66.2 53.77C66.1423 53.8393 66.0706 53.8956 65.9896 53.9352C65.9086 53.9749 65.8201 53.997 65.73 54H60C59.908 53.9915 59.8187 53.9639 59.7378 53.9192C59.6569 53.8744 59.5862 53.8134 59.53 53.74C56.16 49.88 55.83 42 55.83 39.66C55.83 39.5725 55.8474 39.4859 55.8812 39.4051C55.915 39.3244 55.9645 39.2512 56.0268 39.1898C56.0892 39.1283 56.1631 39.0799 56.2444 39.0474C56.3256 39.0148 56.4125 38.9987 56.5 39ZM21 49H55.35C55.35 49 55.42 49 55.42 50H21V49ZM55 63.32V63.39C55.0148 64.3148 54.8553 65.2342 54.53 66.1C54.1988 66.9372 53.7022 67.699 53.07 68.34C52.4432 68.9874 51.6867 69.4952 50.85 69.83C49.9546 70.2167 48.9849 70.4011 48.01 70.37C47.0381 70.3672 46.0752 70.1841 45.17 69.83C44.3272 69.4958 43.564 68.9882 42.93 68.34C42.3067 67.7016 41.8261 66.9381 41.52 66.1C41.1726 65.239 40.996 64.3185 41 63.39V63.32C41.0058 62.3915 41.1856 61.4723 41.53 60.61C41.8664 59.7731 42.3661 59.0116 43 58.37C43.6309 57.7228 44.3906 57.2152 45.23 56.88C46.1288 56.4928 47.1019 56.3084 48.08 56.34C49.0552 56.3421 50.0216 56.5252 50.93 56.88C51.7727 57.2145 52.5358 57.7221 53.17 58.37C53.7747 59.0118 54.235 59.7756 54.52 60.61C54.8542 61.4737 55.0173 62.3941 55 63.32ZM29.1 67H29L25 60.54V70H22V57H25L29.14 63.38L33.23 57H36V70H33V60.47L29.1 67ZM107 75H21V74H107V75ZM86 62V57H88V70H86V64H79V70H77V57H79V62H86ZM92.73 70L98.73 57H100.9L106.9 70H104.39L103 67H96.6L95.18 70H92.73ZM107 50H70.41C70.41 49 70.48 49 70.48 49H107V50Z" fill="black"/>
</svg>
