<svg width="500" height="500" fill="none" xmlns="http://www.w3.org/2000/svg"><path d="M279.414 118.591c-14.218-16.73-26.468-33.84-28.955-37.35a.567.567 0 0 0-.461-.241.559.559 0 0 0-.46.24c-2.487 3.511-14.734 20.621-28.952 37.351C98.727 273.388 239.82 377.827 239.82 377.827l1.144.792c1.069 16.159 3.727 39.381 3.727 39.381h10.618s2.646-23.122 3.721-39.276l1.151-.897s141.091-104.439 19.233-259.236Zm-29.413 256.966h-.002s-6.325-5.38-8.032-8.075l-.015-.29 7.65-168.529a.398.398 0 0 1 .796 0l7.65 168.529-.015.289c-1.706 2.695-8.032 8.076-8.032 8.076Z" fill="#000"/></svg>