<svg width="128" height="128" viewBox="0 0 128 128" fill="none" xmlns="http://www.w3.org/2000/svg">
<path fill-rule="evenodd" clip-rule="evenodd" d="M88.4464 45.8C90.0514 50.443 91.2074 55.183 91.5874 60.096C92.0594 66.191 91.8434 72.243 90.5584 78.238C90.5234 78.403 90.4494 78.558 90.3944 78.718C89.9914 78.719 89.5804 78.669 89.1864 78.73C85.8574 79.253 82.5314 79.795 79.2054 80.334C75.7674 80.891 72.3244 81.426 68.8924 82.021C67.6764 82.231 66.1714 81.98 65.6804 83.662C65.6664 83.708 65.5264 83.716 65.4454 83.742L65.6114 73.691L65.4424 49.439L67.0444 49.164C69.6644 48.735 72.2844 48.3 74.9064 47.883C78.0354 47.386 81.1674 46.903 84.2984 46.418C85.6794 46.203 87.0624 46.006 88.4464 45.8V45.8Z" fill="black"/>
<path fill-rule="evenodd" clip-rule="evenodd" d="M62.137 113.042C60.447 111.589 58.698 110.2 57.078 108.672C48.361 100.45 41.985 90.773 38.845 79.106C37.98 75.895 37.403 72.632 37.218 69.314C37.088 66.992 36.9 64.649 37.064 62.339C37.501 56.195 38.389 50.11 40.191 44.192L40.29 44.054C40.465 44.287 40.717 44.493 40.806 44.756C42.565 49.936 44.311 55.12 46.048 60.307C51.506 76.607 56.957 92.911 62.424 109.207C62.531 109.525 62.808 109.786 63.007 110.073L62.137 113.042V113.042Z" fill="black"/>
<path fill-rule="evenodd" clip-rule="evenodd" d="M88.4462 45.8C87.0622 46.006 85.6782 46.203 84.2972 46.416C81.1662 46.901 78.0342 47.384 74.9052 47.881C72.2832 48.298 69.6632 48.733 67.0432 49.162L65.4412 49.437L65.4292 48.392C65.3762 47.533 65.2852 46.675 65.2752 45.816C65.2062 40.338 65.1632 34.86 65.0952 29.382C65.0532 25.953 64.9902 22.525 64.9202 19.097C64.8772 16.967 64.8312 14.836 64.7352 12.709C64.6832 11.566 64.4992 10.429 64.4242 9.28601C64.3822 8.62901 64.4402 7.96701 64.4532 7.30701C65.2702 8.89001 66.0692 10.485 66.9092 12.056C68.2362 14.54 70.3502 16.37 72.2532 18.367C79.7762 26.259 85.1172 35.435 88.4462 45.8V45.8Z" fill="black"/>
<path fill-rule="evenodd" clip-rule="evenodd" d="M65.4446 83.741C65.5256 83.715 65.6666 83.707 65.6796 83.661C66.1706 81.979 67.6756 82.23 68.8916 82.02C72.3236 81.426 75.7666 80.89 79.2046 80.333C82.5306 79.794 85.8566 79.252 89.1856 78.729C89.5796 78.667 89.9906 78.718 90.3936 78.717C89.7716 80.937 89.2816 83.205 88.4926 85.364C87.5966 87.813 86.5126 90.203 85.3616 92.546C83.6385 96.0407 81.5059 99.318 79.0086 102.309C77.0896 104.617 74.9506 106.75 72.8066 108.857C71.6216 110.022 70.2246 110.971 68.9246 112.018L68.5876 111.788L67.3736 110.75L66.1176 107.997C65.2597 104.786 64.7917 101.482 64.7236 98.159L64.7466 97.598L64.9176 95.172C64.9746 94.344 65.0506 93.517 65.0856 92.687C65.2146 89.705 65.3266 86.723 65.4446 83.741V83.741Z" fill="black"/>
<path fill-rule="evenodd" clip-rule="evenodd" d="M65.4445 83.741C65.3265 86.723 65.2145 89.705 65.0875 92.688C65.0525 93.518 64.9765 94.345 64.9195 95.173L64.1545 95.462C62.4555 90.46 60.7555 85.511 59.0925 80.549C56.3425 72.34 53.6255 64.118 50.8795 55.907C48.6616 49.2795 46.4283 42.6571 44.1795 36.04C44.0745 35.73 43.7725 35.488 43.5625 35.214L48.4585 26.212C48.6265 26.504 48.8485 26.777 48.9545 27.091C51.222 33.7931 53.478 40.4991 55.7225 47.209C58.6385 55.939 61.5365 64.676 64.4505 73.407C64.5665 73.756 64.7585 74.078 64.9415 74.469L65.6115 73.689L65.4445 83.741V83.741Z" fill="black"/>
<path fill-rule="evenodd" clip-rule="evenodd" d="M43.563 35.215C43.773 35.489 44.074 35.731 44.18 36.041C46.4288 42.6581 48.6621 49.2805 50.88 55.908C53.626 64.119 56.343 72.341 59.093 80.55C60.755 85.511 62.455 90.461 64.155 95.463L64.92 95.174L64.749 97.6L64.594 98.159C64.328 100.815 64.104 103.477 63.78 106.127C63.617 107.455 63.271 108.759 63.008 110.074C62.81 109.787 62.532 109.526 62.425 109.208C56.958 92.911 51.507 76.608 46.049 60.308C44.3126 55.1206 42.5653 49.937 40.807 44.757C40.718 44.494 40.467 44.288 40.291 44.055L43.563 35.215V35.215Z" fill="black"/>
<path fill-rule="evenodd" clip-rule="evenodd" d="M65.61 73.69L64.94 74.47C64.757 74.079 64.565 73.756 64.449 73.408C61.536 64.677 58.637 55.94 55.721 47.21C53.4766 40.5001 51.2206 33.7941 48.953 27.092C48.848 26.778 48.626 26.504 48.457 26.213L54.512 18.248C54.703 18.503 54.975 18.73 55.074 19.017C56.755 23.938 58.421 28.865 60.077 33.795C61.624 38.399 63.148 43.01 64.713 47.608C64.818 47.916 65.183 48.134 65.427 48.394L65.439 49.439C65.497 57.521 65.554 65.606 65.61 73.69V73.69Z" fill="black"/>
<path fill-rule="evenodd" clip-rule="evenodd" d="M65.4297 48.392C65.1857 48.132 64.8206 47.914 64.7156 47.606C63.1506 43.008 61.6267 38.397 60.0797 33.793C58.4237 28.863 56.7576 23.937 55.0766 19.015C54.9776 18.728 54.7056 18.501 54.5146 18.246C56.4836 16.318 58.3916 14.321 60.4396 12.482C62.2606 10.848 63.7246 9.096 63.7916 6.514C63.7946 6.407 63.8506 6.3 63.9366 6L64.4556 7.306C64.4426 7.967 64.3836 8.628 64.4266 9.285C64.5016 10.428 64.6857 11.565 64.7377 12.708C64.8337 14.835 64.8796 16.966 64.9226 19.096C64.9916 22.524 65.0547 25.952 65.0977 29.381C65.1647 34.859 65.2087 40.337 65.2777 45.815C65.2857 46.676 65.3757 47.533 65.4297 48.392V48.392Z" fill="black"/>
<path fill-rule="evenodd" clip-rule="evenodd" d="M63.0057 110.073C63.2687 108.758 63.6147 107.453 63.7777 106.126C64.1027 103.477 64.3257 100.814 64.5917 98.158L64.6577 98.148L64.7237 98.159C64.7918 101.482 65.2598 104.786 66.1177 107.997C65.9417 108.229 65.6927 108.436 65.5997 108.698C64.8727 110.748 64.1877 112.814 63.4567 114.864C63.3567 115.144 63.0787 115.362 62.8827 115.608L62.1357 113.042L63.0057 110.073V110.073Z" fill="black"/>
<path fill-rule="evenodd" clip-rule="evenodd" d="M62.8838 115.609C63.0798 115.363 63.3588 115.145 63.4578 114.865C64.1888 112.815 64.8748 110.75 65.6008 108.699C65.6938 108.437 65.9418 108.23 66.1188 107.998L67.3738 110.752C67.1258 111.104 66.7838 111.421 66.6458 111.813L64.2418 118.872C64.1428 119.155 63.8048 119.355 63.5788 119.594L62.8838 115.609V115.609Z" fill="black"/>
<path fill-rule="evenodd" clip-rule="evenodd" d="M63.5791 119.593C63.8061 119.355 64.1431 119.154 64.2421 118.871L66.6461 111.812C66.7831 111.421 67.1261 111.103 67.3741 110.751L68.5891 111.788C68.0021 112.368 67.6761 113.038 67.8721 113.885L67.5031 115.093C67.3351 115.3 67.0921 115.48 67.0091 115.717C66.1701 118.12 65.3691 120.536 64.5241 122.939C64.4171 123.244 64.1201 123.483 63.9101 123.751C63.8011 122.364 63.6901 120.98 63.5791 119.593V119.593Z" fill="black"/>
<path fill-rule="evenodd" clip-rule="evenodd" d="M63.911 123.751C64.12 123.482 64.417 123.243 64.525 122.939C65.37 120.537 66.171 118.121 67.01 115.717C67.093 115.481 67.335 115.3 67.504 115.093L66.995 120.638C66.859 120.795 66.662 120.932 66.597 121.115C66.022 122.729 65.48 124.355 64.903 125.969C64.784 126.302 64.556 126.596 64.378 126.907C64.22 126.7 63.937 126.5 63.924 126.284C63.873 125.443 63.908 124.596 63.911 123.751V123.751Z" fill="black"/>
<path fill-rule="evenodd" clip-rule="evenodd" d="M64.377 126.907C64.555 126.595 64.783 126.301 64.902 125.969C65.48 124.356 66.021 122.73 66.596 121.115C66.661 120.932 66.8589 120.796 66.9939 120.638L67.006 124.278L65.7879 127.402L64.377 126.907V126.907Z" fill="black"/>
<path fill-rule="evenodd" clip-rule="evenodd" d="M65.7881 127.403L67.0061 124.279L67.2571 127.975L65.7881 127.403V127.403Z" fill="black"/>
<path fill-rule="evenodd" clip-rule="evenodd" d="M67.8726 113.886C67.6766 113.039 68.0016 112.368 68.5896 111.789L68.9266 112.019L67.8726 113.886V113.886Z" fill="black"/>
<path fill-rule="evenodd" clip-rule="evenodd" d="M64.7238 98.16L64.6578 98.149L64.5918 98.159L64.7468 97.6L64.7238 98.16V98.16Z" fill="black"/>
</svg>
