<svg width="500" height="500" fill="none" xmlns="http://www.w3.org/2000/svg"><path d="M157.588 199.197h66.022v5.257h-59.97v39.578h56.392v5.257H163.64v43.453h60.654v5.264h-66.706v-98.809Zm71.936 0h7.012l31.087 43.453 31.778-43.453L342.605 144l-70.996 103.216 36.614 50.79H300.9l-33.277-46.237-33.422 46.223h-7.15l36.855-50.79-34.382-48.005Zm81.282 5.257v-5.257h75.231v5.257h-34.658v93.545h-6.052v-93.545h-34.541.02ZM75 199.197h7.6l104.314 156.431-43.108-57.622-62.478-91.341-.276 91.341H75v-98.809Zm310.429 91.949a2.203 2.203 0 0 1-1.612-3.749 2.213 2.213 0 0 1 1.13-.614 2.212 2.212 0 0 1 1.279.121 2.206 2.206 0 0 1 1.366 2.045 2.137 2.137 0 0 1-.615 1.558 2.146 2.146 0 0 1-1.548.639Zm5.949-5.789h3.239a2.957 2.957 0 0 0 3.206 2.943c2.107 0 3.302-1.271 3.302-3.648v-15.06h3.295v15.081c0 4.283-2.473 6.749-6.563 6.749-3.841 0-6.479-2.39-6.479-6.058v-.007Zm17.353-.187h3.268c.283 2.017 2.252 3.302 5.091 3.302 2.653 0 4.594-1.381 4.594-3.26 0-1.624-1.237-2.598-4.048-3.261l-2.764-.691c-3.84-.905-5.595-2.763-5.595-5.899 0-3.793 3.088-6.322 7.723-6.322 4.318 0 7.468 2.529 7.661 6.114h-3.212c-.311-1.962-2.017-3.191-4.49-3.191-2.605 0-4.339 1.257-4.339 3.177 0 1.52 1.12 2.398 3.883 3.047l2.342.573c4.359 1.016 6.155 2.764 6.155 5.997 0 4.076-3.157 6.632-8.186 6.632-4.712 0-7.876-2.439-8.111-6.252l.028.034Z" fill="#000"/></svg>