<svg width="128" height="128" viewBox="0 0 128 128" fill="none" xmlns="http://www.w3.org/2000/svg">
<path d="M40.3428 50.9944H57.2445V52.3403H41.892V62.4721H56.3284V63.8179H41.892V74.9419H57.4196V76.2895H40.3428V50.9944ZM58.7583 50.9944H60.5534L68.5117 62.1184L76.6468 50.9944L87.7071 36.864L69.5321 63.2874L78.9052 76.2895H77.0306L68.5117 64.4528L59.9556 76.286H58.1252L67.5602 63.2838L58.7583 50.9944ZM79.5667 52.3403V50.9944H98.8258V52.3403H89.9531V76.2877H88.4039V52.3403H79.5613H79.5667ZM19.2002 50.9944H21.1456L47.8501 91.0407L36.8146 76.2895L20.8202 52.9062L20.7494 76.2895H19.2002V50.9944ZM98.6701 74.5334C98.5581 74.5355 98.4479 74.5041 98.3537 74.4434C98.2595 74.3826 98.1855 74.2951 98.1413 74.1921C98.097 74.0892 98.0844 73.9753 98.1051 73.8651C98.1258 73.755 98.1788 73.6535 98.2575 73.5736C98.3361 73.4937 98.4368 73.439 98.5466 73.4166C98.6564 73.3941 98.7705 73.4049 98.8741 73.4476C98.9778 73.4902 99.0664 73.5628 99.1287 73.656C99.1909 73.7492 99.224 73.8589 99.2237 73.971C99.2256 74.0446 99.2126 74.1179 99.1856 74.1864C99.1586 74.2549 99.118 74.3172 99.0664 74.3697C99.0147 74.4222 98.953 74.4638 98.8849 74.4919C98.8168 74.52 98.7438 74.5341 98.6701 74.5334V74.5334ZM100.193 73.0513H101.022C101.022 73.156 101.044 73.2596 101.086 73.3554C101.129 73.4512 101.19 73.5373 101.267 73.6081C101.344 73.6789 101.435 73.7329 101.534 73.7668C101.634 73.8006 101.739 73.8135 101.843 73.8047C102.382 73.8047 102.688 73.4793 102.688 72.871V69.0156H103.532V72.8763C103.532 73.9727 102.899 74.6041 101.852 74.6041C100.868 74.6041 100.193 73.9922 100.193 73.0531V73.0513ZM104.635 73.0036H105.472C105.544 73.52 106.048 73.8489 106.775 73.8489C107.454 73.8489 107.951 73.4952 107.951 73.0142C107.951 72.5986 107.635 72.3492 106.915 72.1795L106.208 72.0026C105.224 71.7709 104.775 71.2952 104.775 70.4923C104.775 69.5214 105.566 68.8741 106.752 68.8741C107.858 68.8741 108.664 69.5214 108.714 70.4393H107.891C107.812 69.937 107.375 69.6222 106.742 69.6222C106.075 69.6222 105.631 69.9441 105.631 70.4357C105.631 70.8248 105.918 71.0494 106.625 71.2156L107.224 71.3624C108.34 71.6224 108.8 72.0698 108.8 72.8975C108.8 73.9409 107.992 74.5953 106.705 74.5953C105.498 74.5953 104.688 73.971 104.628 72.9948L104.635 73.0036Z" fill="black"/>
</svg>
