<svg width="500" height="500" viewBox="0 0 500 500" fill="none" xmlns="http://www.w3.org/2000/svg">
<path d="M234.208 61.1108C243.772 55.6421 256.228 55.6174 265.783 61.1108C313.855 88.2468 361.941 115.34 410.004 142.493C419.044 147.58 425.091 157.631 424.999 168.037V331.298C425.066 342.135 418.422 352.426 408.885 357.398C360.971 384.384 313.083 411.404 265.178 438.39C255.416 443.966 242.71 443.536 233.254 437.504C218.889 429.185 204.5 420.907 190.135 412.596C187.199 410.848 183.89 409.457 181.817 406.613C183.65 404.146 186.926 403.838 189.588 402.761C195.584 400.856 201.091 397.799 206.599 394.832C207.992 393.879 209.693 394.245 211.028 395.097C223.311 402.133 235.486 409.373 247.81 416.341C250.44 417.858 253.102 415.845 255.349 414.593C302.367 388.046 349.442 361.599 396.452 335.043C398.193 334.206 399.156 332.359 399.015 330.453C399.048 276.596 399.023 222.73 399.031 168.874C399.23 166.711 397.978 164.723 396.02 163.838C348.273 136.975 300.551 110.071 252.812 83.2008C251.985 82.6328 251.005 82.328 250.001 82.3265C248.998 82.325 248.017 82.627 247.188 83.1926C199.449 110.071 151.735 137 103.996 163.861C102.046 164.748 100.737 166.703 100.969 168.874C100.977 222.73 100.969 276.596 100.969 330.461C100.886 331.391 101.091 332.324 101.555 333.134C102.019 333.945 102.721 334.594 103.565 334.994C116.304 342.211 129.06 349.377 141.808 356.569C148.989 360.431 157.807 362.725 165.719 359.767C172.701 357.265 177.596 350.147 177.463 342.74C177.528 289.198 177.43 235.648 177.512 182.114C177.338 179.737 179.594 177.774 181.908 177.997C188.029 177.956 194.158 177.915 200.279 178.014C202.834 177.956 204.592 180.515 204.276 182.91C204.252 236.791 204.342 290.674 204.235 344.555C204.252 358.914 198.346 374.54 185.051 381.566C168.671 390.042 148.426 388.245 132.244 380.117C118.236 373.132 104.867 364.888 91.1074 357.405C81.5453 352.46 74.9339 342.128 75.0012 331.299V168.037C74.9009 157.415 81.1882 147.182 90.5098 142.169C138.415 115.161 186.312 88.1315 234.208 61.1108Z" fill="black"/>
<path d="M276 174.203C296.894 172.859 319.261 173.407 338.062 183.69C352.619 191.569 360.689 208.107 360.946 224.263C360.539 226.443 358.259 227.645 356.177 227.495C350.115 227.487 344.051 227.577 337.989 227.454C335.418 227.553 333.923 225.184 333.6 222.913C331.859 215.183 327.639 207.527 320.356 203.798C309.175 198.206 296.212 198.487 284.021 198.604C275.121 199.076 265.551 199.846 258.011 205.074C252.222 209.035 250.464 217.03 252.53 223.469C254.478 228.092 259.82 229.584 264.191 230.959C289.37 237.538 316.052 236.883 340.75 245.541C350.976 249.071 360.979 255.932 364.479 266.628C369.057 280.963 367.051 298.098 356.841 309.606C348.562 319.076 336.504 324.231 324.478 327.03C308.479 330.594 291.876 330.685 275.628 329.102C260.35 327.362 244.451 323.352 232.657 312.953C222.572 304.204 217.646 290.573 218.135 277.417C218.251 275.195 220.466 273.646 222.596 273.828C228.701 273.779 234.805 273.763 240.91 273.837C243.348 273.662 245.156 275.767 245.281 278.063C246.407 285.429 249.178 293.159 255.607 297.525C268.014 305.522 283.581 304.974 297.788 305.198C309.557 304.677 322.769 304.519 332.374 296.747C337.441 292.315 338.943 284.899 337.573 278.519C336.09 273.133 330.449 270.623 325.606 268.981C300.749 261.126 273.769 263.977 249.153 255.094C239.16 251.565 229.496 244.895 225.657 234.638C220.3 220.122 222.754 202.166 234.033 191.047C245.031 179.986 260.906 175.726 276 174.201V174.203Z" fill="black"/>
</svg>
