<svg width="128" height="128" viewBox="0 0 128 128" fill="none" xmlns="http://www.w3.org/2000/svg">
<path d="M113.771 30.793L69.674 5.188C66.893 3.604 63.272 3.604 60.469 5.188L15.901 30.793C13.031 32.444 11 35.547 11 38.866V90.008C11 93.327 13.084 96.431 15.954 98.091L27.729 104.779C33.357 107.551 35.346 107.551 37.907 107.551C46.24 107.551 51 102.512 51 93.723V43.233C51 42.52 50.629 41.459 49.929 41.459H44.306C43.594 41.459 42 42.52 42 43.232V93.722C42 97.618 38.476 101.495 31.89 98.202L19.723 91.189C19.299 90.959 19 90.496 19 90.008V38.866C19 38.384 19.555 37.9 19.982 37.653L64.406 12.092C64.821 11.857 65.431 11.857 65.845 12.092L109.727 37.647C110.147 37.9 109.999 38.369 109.999 38.866V90.008C109.999 90.496 110.182 90.971 109.767 91.206L65.681 116.782C65.303 117.009 64.834 117.009 64.42 116.782L53.113 110.033C52.772 109.835 52.367 109.764 52.04 109.947C48.894 111.73 48.314 111.967 45.363 112.99C44.637 113.243 43.566 113.682 45.773 114.919L60.571 123.673C61.9838 124.489 63.5865 124.919 65.218 124.919C66.86 124.919 68.468 124.493 69.885 123.673L113.77 98.091C116.64 96.419 118 93.327 118 90.008V38.866C118 35.547 116.64 32.452 113.771 30.793V30.793ZM78.91 81.904C67.184 81.904 64.601 78.669 63.74 72.838C63.64 72.21 63.107 71.459 62.468 71.459H56.737C56.028 71.459 55.458 72.319 55.458 73.025C55.458 80.491 59.517 89.537 78.911 89.537C92.95 89.537 100.999 84.082 100.999 74.428C100.999 64.856 94.532 62.344 80.917 60.542C67.155 58.723 65.757 57.804 65.757 54.58C65.757 51.922 66.941 48.377 77.131 48.377C86.236 48.377 89.592 50.331 90.973 56.468C91.091 57.045 91.618 57.459 92.213 57.459H97.967C98.321 57.459 98.659 57.316 98.907 57.063C99.147 56.791 99.274 56.45 99.242 56.084C98.351 45.516 91.33 40.591 77.13 40.591C64.499 40.591 56.964 45.925 56.964 54.866C56.964 64.564 64.461 67.244 76.586 68.443C91.091 69.865 92.219 71.985 92.219 74.838C92.219 79.793 88.241 81.904 78.91 81.904Z" fill="black"/>
</svg>
