<svg width="128" height="128" viewBox="0 0 128 128" fill="none" xmlns="http://www.w3.org/2000/svg">
<path d="M127.951 60.659C127.908 59.014 127.821 57.326 127.735 55.681C127.648 53.9924 127.605 52.3043 127.432 50.6163C127.13 48.3216 126.827 45.9843 126.309 43.7332C125.92 41.8718 125.272 40.0971 124.624 38.3224C123.803 36.2441 122.982 34.1233 121.945 32.1321C120.259 28.9288 118.056 26.0716 116.025 23.0847C114.685 21.1797 112.957 19.6214 111.661 17.6738C110.926 16.5483 109.846 15.5955 108.766 14.73C107.037 13.3449 105.222 12.0892 103.408 10.8775C102.025 9.92473 100.642 9.01607 99.1734 8.19358C98.0064 7.5439 96.7534 7.02445 95.5434 6.46193C94.1609 5.81225 92.8214 5.03333 91.2659 4.73028C90.8769 4.64362 90.5314 4.51388 90.1424 4.38415C89.1484 4.03752 88.1979 3.64831 87.2039 3.34526C85.6919 2.86889 84.2229 2.30587 82.6669 1.91666C81.1549 1.52695 79.5994 1.26698 78.0439 1.05058C76.3154 0.791111 74.5439 0.704453 72.8154 0.531138C71.6919 0.401402 70.5684 0.271666 69.4879 0.228087C67.8464 0.14193 66.1609 0.14193 64.5189 0.0983507C63.6979 0.0552723 62.8339 -0.0313853 62.0129 0.011693C60.7599 0.0552723 59.5068 0.185008 58.2533 0.358324C57.0438 0.48806 55.8338 0.704453 54.6668 0.877769C53.2413 1.05058 51.8153 1.13724 50.3893 1.31056C49.0498 1.48387 47.6673 1.74334 46.3278 1.95974C45.8523 2.04639 45.3768 2.21971 44.9018 2.30587C43.8648 2.52276 42.7843 2.60942 41.7473 2.95555C39.8893 3.51807 38.0313 4.16775 36.2163 4.86001C34.5313 5.55277 32.8893 6.28861 31.2908 7.15469C29.6488 8.06334 28.0933 9.14581 26.5373 10.1847C25.0683 11.18 23.5993 12.2194 22.1733 13.345C20.7908 14.4269 19.4943 15.6391 18.2413 16.8513C17.5498 17.5436 16.9883 18.3661 16.3398 19.1455C15.2598 20.4008 14.1793 21.613 13.1423 22.9114C12.2783 23.9938 11.5003 25.1194 10.6798 26.2449C9.2103 28.236 7.9573 30.3569 6.7908 32.4783C6.3153 33.3438 5.8833 34.2099 5.4513 35.0755C4.8028 36.3743 4.1118 37.6296 3.5068 38.9716C3.0748 39.8807 2.7288 40.876 2.4698 41.8718C1.86479 43.9927 1.25979 46.1571 0.698294 48.2785C0.179793 50.183 0.0497931 52.1746 0.00679308 54.1226C-0.036707 55.8538 0.136293 57.5424 0.309293 59.274C0.352293 59.7068 0.0932932 60.2262 0.611794 60.5724C0.654794 60.5724 0.611794 60.7457 0.568294 60.7888C0.438794 61.0487 0.568294 61.3082 0.827794 61.3949C0.827794 61.3949 0.870794 61.4384 0.870794 61.4815H0.654794C0.525294 61.8712 0.957294 62.1743 0.784294 62.6071C0.741294 62.6937 0.914294 62.8665 1.00029 62.9968C1.00029 63.1265 0.957294 63.2998 1.00029 63.4296C1.04379 63.8193 1.21679 64.2085 1.21679 64.6418C1.21679 64.9448 1.47579 65.291 1.56229 65.594C1.60529 65.7237 1.56229 65.9401 1.47579 66.0268C1.21679 66.3298 1.25979 66.5898 1.64879 66.7626C1.73529 66.8062 1.86479 66.979 1.86479 67.0657C1.86479 67.3257 1.77829 67.5851 1.73529 67.8451C1.82129 67.9318 1.86479 68.0179 1.82129 68.1046C1.82129 68.2343 1.69179 68.3645 1.73529 68.4512C2.0808 69.1435 2.2103 69.9229 2.2538 70.7018C2.2538 70.8751 2.3403 71.0484 2.4263 71.2648C2.4698 71.2648 2.5993 71.2648 2.6858 71.3079L2.4263 72.0873C2.6423 71.9571 2.8153 71.914 3.0313 71.8273C3.1608 72.3904 3.2908 72.9098 3.4633 73.3857C3.5068 73.4723 3.5933 73.559 3.7228 73.6457C3.6793 73.7323 3.6793 73.9051 3.5933 73.9487C3.7658 74.7276 3.8523 75.464 4.1548 76.1998C4.1983 76.1998 4.2413 76.1562 4.2843 76.1562C4.1548 75.3773 4.0683 74.5548 3.9388 73.7754V73.5159C3.9388 73.5159 4.0253 73.4723 4.0683 73.4723C4.1118 73.6457 4.1983 73.862 4.1983 73.9918C4.5438 73.9918 5.0623 74.2082 5.4078 74.2082C5.4513 74.0784 5.4943 73.9051 5.5378 73.819C5.2783 73.559 5.0623 73.1693 4.8028 72.9098C4.8893 73.2559 4.8028 73.3857 4.8028 73.5159C4.6303 73.4293 4.4143 73.3426 4.1983 73.2559C4.3708 73.0396 4.5438 72.8232 4.8028 72.5632C4.8028 72.174 4.5868 71.8273 3.9818 71.8709C4.2413 71.7843 4.5008 71.6545 4.8028 71.5679C4.8463 71.6976 4.8893 71.8273 4.9328 71.914C5.2783 71.3079 4.7598 70.832 4.7598 70.2259C4.8028 69.4901 4.3708 68.7543 4.2413 67.9748C4.0253 66.7626 4.0683 64.9448 3.9388 63.7326C3.9388 63.646 3.8093 63.5593 3.7228 63.4726C3.6793 63.5162 3.4633 64.0787 3.4203 64.1223C3.5498 65.1612 3.6793 66.2001 3.7658 67.239C3.7228 67.239 3.6793 67.239 3.6793 67.2821C3.5068 66.3729 3.3338 65.4207 3.1178 64.3818C3.0748 64.6849 3.0313 64.8146 3.0313 64.9879C2.9018 64.9448 2.8588 64.9012 2.6423 64.8146C2.8153 65.2043 2.9883 65.4643 3.1178 65.7673C2.8153 65.6371 2.4698 65.6807 2.4698 65.6807V66.8924C2.0378 66.4596 1.90779 66.1135 1.69179 65.8104C1.60529 65.4643 1.56229 65.1176 1.47579 64.7715L1.60529 64.7279C1.56229 64.5551 1.47579 64.4249 1.47579 64.2951C1.43279 63.9921 1.38929 63.646 1.34629 63.2563C1.38929 63.2132 1.56229 63.1696 1.64879 63.0834L1.30279 62.564C1.64879 62.6071 1.86479 62.6501 2.0808 62.6501C2.0808 62.564 2.1238 62.5204 2.0808 62.4773C1.64879 62.0876 1.95129 61.741 2.1238 61.3949C2.2103 61.2216 2.5128 61.1785 2.5993 61.0052C2.9448 60.356 3.5068 59.8365 3.5068 59.014C3.5068 58.6243 3.6363 58.1915 3.6793 57.8018C3.7658 57.066 3.8523 56.3302 3.8958 55.5943C3.9818 54.6421 3.8958 53.6893 4.1118 52.7807C4.4573 51.2654 4.8893 49.7502 5.3648 48.2354C5.7103 47.153 6.0993 46.1141 6.5313 45.0321C7.1798 43.3435 7.7843 41.6555 8.6053 40.0535C9.7723 37.7163 11.1118 35.4652 12.4078 33.171C13.2288 31.7424 14.0933 30.4005 15.0003 29.015C15.8648 27.673 16.7288 26.288 17.7228 25.0327C19.1053 23.258 20.6178 21.613 22.3028 20.1408C24.0313 18.5825 25.6733 16.9811 27.5313 15.5525C29.9513 13.6911 32.5003 12.0461 35.2228 10.6175C37.4263 9.44886 39.7163 8.53971 42.0068 7.67363C43.4758 7.11111 45.0743 6.85164 46.5868 6.37527C48.3153 5.81225 50.0438 5.55277 51.8583 5.50919C53.0253 5.46612 54.1488 5.33638 55.3153 5.20664C56.3523 5.11999 57.3893 5.03333 58.5129 4.90359C58.3834 5.07641 58.3399 5.16306 58.2969 5.24972C57.8214 5.94248 57.3028 6.63474 56.8278 7.3275C56.4388 7.89053 56.0068 8.49613 55.6178 9.05915C54.9263 9.96831 54.1918 10.8775 53.5438 11.8297C52.5498 13.2583 51.6423 14.73 50.6053 16.1586C49.5683 17.5436 48.4448 18.8425 47.3648 20.1844C45.9388 22.0458 44.5993 23.9502 43.1733 25.8116C41.8768 27.5869 40.4943 29.2749 39.2413 31.0497C38.1178 32.608 37.1238 34.253 36.0438 35.8549C34.4448 38.2357 32.8463 40.573 31.2473 42.9538C29.9943 44.7721 28.7413 46.5469 27.4448 48.3652C27.3583 48.4949 27.2288 48.5385 27.0993 48.6246C27.0128 48.7113 26.8398 48.798 26.8398 48.8846C26.7538 49.1877 26.7538 49.4907 26.6238 49.7502C26.2783 50.3999 25.9328 51.049 25.5438 51.6551C25.3278 52.0013 25.0253 52.3043 24.7658 52.6505C24.6793 52.6074 24.6363 52.5643 24.5498 52.5643C24.7228 52.131 25.4573 51.8715 25.1118 51.2224C24.8958 51.5685 24.6793 51.8715 24.4633 52.2177L23.9448 53.2566C24.1178 53.3868 24.4203 53.473 24.1178 53.7329C23.9883 53.9493 23.8583 54.2088 23.7288 54.4257C23.7723 54.4257 23.7723 54.4688 23.8153 54.4688C23.9448 54.2954 24.0748 54.1657 24.2043 53.9924C24.2473 53.9924 24.2908 54.036 24.3338 54.036C24.2043 54.4688 23.9448 54.8585 23.7288 55.2482C23.5558 55.5943 23.1238 55.8538 22.8213 56.1138C22.8648 56.1568 23.1673 56.2871 23.2103 56.3302C23.3398 56.1568 23.3833 56.2435 23.5128 56.0707C23.5993 56.2004 23.7288 55.984 23.7723 56.1138C23.9018 55.9404 24.0313 55.8107 24.0748 55.681C24.2473 55.2482 24.5068 54.9016 24.9388 54.7287C25.1118 54.6421 25.2413 54.5118 25.3708 54.3821C26.6673 53.0402 28.0068 51.7418 29.1733 50.3132C30.9883 48.1052 32.6303 45.811 34.3583 43.5599C35.0933 42.6077 35.9573 41.6555 36.7348 40.7463C36.8213 40.7899 36.9078 40.7899 36.9513 40.833C36.8648 41.7421 36.7783 42.6943 36.7348 43.6035C36.6053 45.2049 36.5188 46.8068 36.3893 48.4518C36.3463 49.101 36.3893 49.7502 36.3463 50.3999C36.3463 50.5727 36.2163 50.7024 36.2163 50.8757C36.2163 51.3085 36.3463 51.7849 36.3463 52.2177C36.2163 53.8196 36.0438 55.3779 35.9138 56.9793C35.8708 57.326 36.0438 57.6721 36.1303 57.9751C36.0868 57.9321 36.0438 57.8885 35.9138 57.8018C35.9138 60.3129 36.3893 62.7804 36.0003 65.2479C36.1733 65.2043 36.2598 65.1612 36.2598 65.0746C36.3028 64.7715 36.3893 64.4685 36.3893 64.1654C36.4328 63.9059 36.3893 63.646 36.3893 63.3429V62.9101C36.4328 62.1307 36.6053 61.3082 36.5188 60.5293C36.4328 59.6632 36.4328 58.8407 36.6053 58.0182C36.6918 57.6721 36.5623 57.2393 36.7783 56.8065V57.4557C36.7348 59.9232 36.8213 62.3907 36.4758 64.8582C36.4328 65.0746 36.6053 65.4643 36.1303 65.4207C36.0868 65.4207 36.0438 65.6371 35.9573 65.7673C35.7413 66.2001 36.2163 66.7626 35.7843 67.1954C35.6978 67.2821 35.8708 67.6718 35.9138 67.9318C35.9138 68.0179 35.9573 68.1046 35.9138 68.1482C35.7413 68.4512 35.7413 68.4512 36.0003 68.4943C36.0438 69.4465 36.1303 70.3126 36.1733 71.2212H36.3028C36.8648 69.5763 36.5188 67.8882 36.8213 66.2001C36.8648 66.8924 36.9078 67.5851 36.8648 68.321C36.8648 69.4465 36.8213 70.529 36.7783 71.6545C36.7783 71.8709 36.7348 72.0873 36.6918 72.3037C36.5623 72.9098 36.5188 73.5159 36.3028 74.0784C36.1303 74.5112 36.2163 75.1609 36.2163 75.6804V77.3248C36.2163 77.3684 36.3463 77.4982 36.3463 77.6715C36.3893 78.0612 36.1733 78.4509 36.3028 78.8837C36.3463 78.9703 36.2598 79.1001 36.2163 79.1867C36.1733 79.3165 36.1303 79.4462 36.1733 79.5759L36.3028 80.2256C36.3028 80.2687 36.3463 80.3123 36.3893 80.3984C36.4328 80.2256 36.4328 80.0954 36.4328 80.0523C37.1673 80.139 36.7783 80.7882 37.1238 81.1348C36.9513 81.2209 36.8213 81.2645 36.8213 81.3076C36.8648 81.4809 36.9513 81.6106 36.9513 81.784C36.9513 82.1732 36.9078 82.5198 36.8648 82.9095C36.8648 83.9048 36.8213 84.9006 36.8213 85.8529C36.8213 85.9826 36.8648 86.1128 36.8648 86.2426C36.8648 86.3292 36.8213 86.4159 36.8213 86.5456V87.4548H36.9943C36.9078 87.5845 36.8213 87.7142 36.6918 87.844C36.6488 87.844 36.5188 87.844 36.5188 87.8009V82.3465H35.8708C35.7843 84.9437 36.0003 87.2815 35.5253 89.7054C35.0068 89.749 34.8338 89.8356 34.2723 89.8356C32.9328 89.8356 31.5933 89.8356 30.2538 89.8787C28.6548 89.8787 27.0993 89.9223 25.5003 89.9223C24.7228 89.9223 23.9018 90.0084 23.1238 90.0084C22.0868 90.0084 21.0068 89.8787 19.9698 89.8787C18.3708 89.8787 16.8153 90.0084 15.2168 90.052C14.0498 90.0951 12.8833 90.0951 11.7168 90.1387C10.9388 90.1817 10.1608 90.2253 9.3833 90.3115C9.0378 90.3551 8.7353 90.4848 8.3028 90.6145C8.1733 90.6145 7.8708 90.5714 7.6118 90.6145C7.1798 90.7012 6.7908 90.9612 6.3588 91.0473C5.7103 91.1776 5.5378 91.3504 5.6238 92V92.4328C5.5378 92.3462 5.4078 92.2595 5.3213 92.2164C5.2783 92.2164 5.2353 92.2595 5.2353 92.2595C5.2783 92.3893 5.3648 92.4759 5.4078 92.6062C5.5808 92.5195 5.7968 92.3031 5.9698 92.3031H6.5748C6.4883 92.3031 6.4448 92.5626 6.3153 92.779C6.6608 92.6492 6.8773 92.5626 7.0933 92.4759C7.1363 92.6061 7.1363 92.779 7.1363 92.8225C7.7413 92.779 8.3028 92.6061 8.8213 92.7359C10.5068 93.1687 12.2353 93.342 13.9633 93.5148C15.0868 93.6015 16.1673 93.645 17.2908 93.6881C18.8893 93.7748 20.4883 93.8614 22.0868 93.8614C23.4263 93.8614 24.7228 93.7317 26.0623 93.7317C27.9203 93.7317 29.7783 93.8179 31.6363 93.8614C32.0253 93.8614 32.4573 93.8179 32.8893 93.8179H36.0438C38.8523 93.7317 41.6608 93.6881 44.4698 93.6015C46.0683 93.5584 47.7103 93.4717 49.3093 93.4286L54.2348 93.2984C56.1363 93.2553 58.0373 93.2553 59.8954 93.2118C61.3214 93.2118 62.7044 93.1687 64.1299 93.1256C65.7289 93.082 67.3709 92.9523 68.9694 92.8656C69.8339 92.8225 70.6979 92.7359 71.5624 92.6492C72.5994 92.5626 73.6794 92.4328 74.7164 92.3892C76.2719 92.3031 77.8709 92.2595 79.4264 92.1729C81.3709 92.0431 83.3154 91.8698 85.3029 91.8267C87.1179 91.7401 88.9759 91.7837 90.7904 91.7401C92.3894 91.697 93.9879 91.6103 95.6299 91.5673L98.3524 91.437C98.3524 91.437 100.167 91.3939 101.074 91.3073C102.63 91.2206 104.185 91.0473 105.741 91.0042C106.735 90.9612 107.729 91.0042 108.722 90.9612C110.321 90.9176 111.963 90.8309 113.562 90.8309C114.167 90.8309 114.815 90.9176 115.593 90.9612C115.247 91.2642 115.031 91.437 114.772 91.6534C114.945 91.697 115.117 91.7837 115.29 91.8698C115.29 91.9134 115.247 91.9565 115.247 92.0431C115.031 92.0431 114.815 92.0867 114.599 92.0867C114.513 92.3031 114.426 92.3893 114.34 92.8225H115.117C114.815 92.8225 114.556 93.2118 114.253 93.4717C114.297 93.5148 114.34 93.5148 114.383 93.5584C113.908 93.3851 113.605 93.4717 113.432 93.9481C113.562 93.9912 113.648 93.9912 113.778 93.9912C113.735 94.1209 113.692 94.2511 113.648 94.424C113.605 94.5106 113.562 94.5973 113.562 94.727L113.432 94.5973C113.432 94.5106 113.432 94.424 113.389 94.3373C113.13 94.5973 112.741 94.7706 112.957 95.3331C112.784 95.4198 112.568 95.5064 112.352 95.6362C112.395 95.7228 112.482 95.8095 112.525 95.9392C112.136 95.9823 111.747 96.069 111.834 96.5453C112.006 96.5884 112.179 96.6751 112.309 96.7181C112.093 96.8048 111.877 96.9345 111.661 97.0212C111.617 97.1078 111.574 97.3242 111.488 97.3678C110.883 97.4975 111.229 97.7139 111.401 97.9303C111.272 98.017 111.142 98.1036 111.013 98.1467C111.142 98.1903 111.229 98.2334 111.315 98.32C111.185 98.4067 111.099 98.4498 111.013 98.4934C111.099 98.5364 111.229 98.6231 111.272 98.6231C111.099 98.7528 110.883 98.9261 110.624 99.1425C110.624 99.2292 110.624 99.2723 110.667 99.3589C110.494 99.5322 110.321 99.7051 110.148 99.965C109.976 100.225 109.889 100.571 109.673 100.831C108.766 101.826 108.117 102.995 106.951 103.774C106.519 104.078 106.13 104.467 105.741 104.856C104.963 105.592 104.272 106.415 103.451 107.108C102.371 108.017 101.247 108.839 100.08 109.662C98.6549 110.657 97.2289 111.653 95.8029 112.605C95.0249 113.124 94.1609 113.514 93.3399 113.991C92.5189 114.466 91.7414 114.9 90.9199 115.376C90.4014 115.722 89.9264 116.198 89.3644 116.458C87.9384 117.064 86.4264 117.584 84.9574 118.146C84.8274 118.189 84.7414 118.233 84.6114 118.276C83.5314 118.752 82.4944 119.272 81.4139 119.661C80.4199 120.007 79.3834 120.267 78.3459 120.484C78.0004 120.571 77.6114 120.484 77.2229 120.527C76.4879 120.657 75.7534 120.83 75.0189 120.917C73.1179 121.177 71.2164 121.349 69.3154 121.609C68.1919 121.739 67.1114 121.956 65.9879 122.085C65.2104 122.129 64.3894 122.042 63.6114 122.042C63.0499 122.042 62.4449 122.172 61.8829 122.085C60.9759 121.956 60.0684 121.739 59.1608 121.566C58.9448 121.523 58.6423 121.436 58.4693 121.523C58.1238 121.696 57.8213 121.436 57.4758 121.523C57.2598 121.566 57.0438 121.393 56.8273 121.393C56.6548 121.349 56.4388 121.436 56.2228 121.393C55.7473 121.263 55.3153 121.09 54.7968 121.133C54.2783 121.177 53.7598 120.917 53.1978 120.787C52.4203 120.614 51.6858 120.44 50.9078 120.267C50.6053 120.181 50.3463 120.051 50.0438 119.878C49.9573 119.921 49.8273 120.007 49.6548 120.007C48.9203 119.878 48.1858 119.835 47.4943 119.575C46.8893 119.358 46.3278 119.055 45.6793 119.142C45.5068 119.185 45.3768 119.098 45.2043 119.098C45.0743 118.926 44.9448 118.579 44.8153 118.579C43.9508 118.622 43.4323 117.887 42.6978 117.67C42.3088 117.54 42.0068 117.107 41.6178 116.977C40.6673 116.588 39.8893 115.765 38.8093 115.636C38.4633 115.592 38.1178 115.419 37.7288 115.289C37.8583 115.462 37.9448 115.592 38.0743 115.722L37.9878 115.808C36.8213 115.116 35.6548 114.423 34.4883 113.774C34.3153 113.731 34.1858 113.558 34.0558 113.471L32.8893 112.692C32.7598 112.605 32.5003 112.475 32.5003 112.518C32.2413 112.822 31.9818 112.562 31.8093 112.475C30.6423 111.653 29.3028 111.133 28.1793 110.224C27.7043 109.835 27.1423 109.575 26.7968 109.099C26.1918 108.363 25.4573 107.843 24.6363 107.411C23.9883 107.064 23.3833 106.675 22.7783 106.285C22.4758 106.069 22.1733 105.809 22.1733 105.333C22.1733 105.03 22.0438 104.727 21.6548 104.9C21.4818 104.64 21.3093 104.337 21.0933 104.25C20.5748 104.034 20.2288 103.645 19.8398 103.298C19.4513 102.952 19.1488 102.476 18.6733 102.303C17.8093 101.956 17.2908 101.22 16.7723 100.614C15.5623 99.1856 14.4818 97.6273 13.3583 96.112C13.2723 95.9823 13.0993 95.8956 12.9698 95.7659L12.9263 95.8095C13.1423 96.2423 13.3583 96.632 13.5748 97.0648C13.5313 97.1078 13.4448 97.1514 13.4018 97.1945C13.1423 96.8914 12.8398 96.5884 12.5808 96.2853C12.5373 96.3289 12.4943 96.372 12.4513 96.372L15.5623 101.307C15.8213 101.697 16.0373 102.086 16.2968 102.476C16.2538 102.519 16.2103 102.562 16.1238 102.605C15.6488 102.519 15.2168 102.173 15.0003 101.783C14.6118 101.091 14.1793 100.658 13.3153 100.744C13.2288 100.441 13.1423 100.095 13.0993 99.7917C12.9263 99.7917 12.7968 99.7917 12.4943 99.7486C13.0993 100.701 13.6178 101.523 14.1793 102.476C13.9633 102.346 13.8338 102.259 13.7473 102.216C14.5253 103.039 15.0868 104.078 16.0808 104.597C16.2968 105.592 17.4203 106.069 17.6793 107.021C17.4633 106.978 17.2908 106.934 17.0748 106.891C16.7288 106.458 16.3398 106.026 15.9513 105.549C16.0373 105.852 16.1673 106.112 16.3398 106.329C16.8583 106.978 17.3338 107.627 17.9388 108.19C18.1548 108.406 18.4573 108.493 18.4573 108.882C18.5438 108.796 18.6303 108.753 18.8028 108.666C18.7163 108.839 18.6733 108.926 18.6303 109.056C18.8028 109.056 18.9328 109.099 19.0623 109.099C19.1488 109.359 19.0188 109.748 19.5373 109.662C19.5808 109.662 19.6238 109.705 19.6673 109.748C19.8833 110.311 20.2288 110.311 20.7043 110.094C20.7908 110.051 21.0068 110.094 21.0498 110.181C21.2658 110.657 21.5683 110.701 21.9573 110.354C21.9573 110.571 22.0003 110.787 22.0003 110.96H22.1733C22.1733 110.874 22.1303 110.744 22.1303 110.527C22.3463 110.701 22.4758 110.787 22.5623 110.874C22.9943 111.479 23.3833 112.043 23.9883 112.518C24.8093 113.211 25.5438 113.947 26.3213 114.597C27.8338 115.852 29.5188 116.891 31.2043 117.843C33.2783 119.012 35.2658 120.267 37.3833 121.393C39.9323 122.735 42.6548 123.644 45.4633 124.293C46.5003 124.51 47.4943 124.726 48.5313 124.986C49.4388 125.246 50.3463 125.635 51.2533 125.852C52.6363 126.155 54.0623 126.414 55.4448 126.674C55.7473 126.717 56.0498 126.761 56.3953 126.804V126.891C56.7843 126.891 57.2598 126.717 57.3463 126.847C57.5623 127.194 57.7348 127.02 57.9943 126.977C58.2968 126.891 58.6423 126.891 58.9878 126.891C60.1979 126.934 61.3643 127.194 62.5744 127.107C62.8339 127.107 63.2229 126.891 63.4389 127.323C63.5254 127.28 63.5684 127.237 63.6549 127.194C63.8274 127.15 64.0439 127.15 64.2164 127.107V127.194C64.1299 127.237 64.0439 127.237 63.8709 127.28C64.0869 127.323 64.2164 127.366 64.3464 127.41C64.2599 127.497 64.2164 127.497 64.1299 127.54C64.0439 127.583 63.9139 127.626 63.7414 127.756C65.2969 128.059 66.7659 128.103 68.0624 127.756V127.497H68.2349C68.2349 127.583 68.2784 127.669 68.3214 127.756C70.3089 127.929 72.2534 127.669 74.1114 127.02C74.2844 127.237 74.4139 127.54 74.6734 127.107C74.7599 126.977 74.9759 126.934 75.1484 126.891C75.5374 126.804 76.0129 126.631 76.3584 126.761C76.7474 126.891 76.8769 126.544 77.1794 126.544C77.6979 126.544 78.1734 126.501 78.6484 126.414C78.9079 126.371 79.1669 126.241 79.4694 126.155C79.4694 126.111 79.4694 126.068 79.4264 126.024C79.1239 125.981 78.7784 125.938 78.5189 125.938C79.0374 125.678 79.5129 125.462 79.9879 125.246C79.9879 125.289 80.0314 125.289 80.0314 125.332C79.9014 125.375 79.8154 125.549 79.6424 125.549H80.2474C80.1179 125.549 79.9449 125.938 79.7289 126.198C81.2844 125.808 82.7104 125.462 84.0929 125.116V125.029C83.9204 125.072 83.7904 125.072 83.6609 125.116C83.6179 124.207 84.6114 124.51 84.9574 123.99C84.5249 124.12 84.0929 124.25 83.6609 124.336V124.25C85.1299 123.601 86.6424 122.951 88.1114 122.302C88.1114 122.345 88.1549 122.345 88.1549 122.388C87.8954 122.562 87.6364 122.691 87.2474 122.908C87.5064 122.951 87.6794 122.951 87.8089 122.994C87.8089 123.124 87.8089 123.211 87.7659 123.254C88.5004 123.211 88.3274 122.562 88.5434 122.172C88.6734 122.215 88.8459 122.302 88.9759 122.259C89.3644 122.172 89.7104 122.042 90.0989 121.912C90.5314 121.782 90.9634 121.652 91.3954 121.479C92.0869 121.176 92.7349 120.787 93.4264 120.44C93.5559 120.397 93.7719 120.44 93.9449 120.44C94.0744 120.44 94.1609 120.354 94.2474 120.267C94.4199 120.137 94.5929 119.878 94.7224 119.921C95.3274 120.008 95.7594 119.791 95.9324 119.229C95.9759 119.229 95.9759 119.185 96.0189 119.185C96.2349 119.012 96.4509 118.839 96.6669 118.709C97.6179 118.189 98.5249 117.67 99.4759 117.15C99.5189 117.107 99.6054 117.15 99.6919 117.15C99.8214 117.15 99.9944 117.15 100.08 117.107C100.642 116.847 101.161 116.545 101.679 116.242C101.55 116.198 101.679 116.155 101.247 116.111V116.025C101.679 115.939 101.809 115.895 102.068 115.808L101.982 115.722C103.105 114.597 104.531 113.774 105.611 112.822C105.827 112.865 105.914 112.908 106.043 112.908C106.087 112.778 106.087 112.649 106.087 112.562C106.259 112.346 106.432 112.086 106.648 111.913C107.599 111.047 108.636 110.311 109.5 109.402C110.753 108.146 111.963 106.848 113.087 105.506C114.124 104.294 115.161 103.082 116.025 101.74C117.235 99.8784 118.272 97.9739 119.352 96.0259C120.13 94.6404 120.821 93.2553 121.599 91.8698C121.685 91.7401 121.858 91.5673 121.988 91.5673C123.154 91.437 124.321 91.3504 125.445 91.2206C125.704 91.1775 126.006 91.0042 126.266 90.8745C126.136 90.6581 126.049 90.3981 125.92 90.1817C125.747 89.9218 125.488 89.7054 125.315 89.4459C125.142 89.2295 125.013 88.9695 124.883 88.7101C124.753 88.4937 124.624 88.3204 124.494 88.104C124.235 87.6276 123.975 87.1517 123.759 86.6323C123.716 86.502 123.63 86.2856 123.673 86.1559C124.451 84.4678 124.753 82.6495 125.488 80.9615C126.222 79.2298 126.438 77.2818 126.784 75.4204C127.087 73.6457 127.259 71.8709 127.475 70.0957C127.605 68.8404 127.778 67.6282 127.821 66.3729C128.08 64.3818 127.994 62.5204 127.951 60.659ZM19.3213 108.969C19.0193 108.623 18.7598 108.233 18.4573 107.887L18.5868 107.757C19.0623 108.277 19.5378 108.796 20.0128 109.359C19.7538 109.229 19.4513 109.142 19.3213 108.969ZM20.0128 109.359C20.1423 109.316 20.2723 109.316 20.4018 109.272C20.5313 109.488 20.6178 109.748 20.7473 110.008C20.1423 109.965 19.8398 109.705 20.0128 109.359ZM64.9509 127.237V127.107C65.7719 127.02 66.5499 126.934 67.3709 126.847V126.977C66.5499 127.107 65.7719 127.194 64.9509 127.237ZM75.8399 126.111C75.2349 126.241 74.5869 126.327 73.9819 126.414C73.7659 126.458 73.5069 126.674 73.4204 126.284C73.3339 126.327 73.2474 126.327 73.1609 126.371C73.3769 127.02 73.8954 126.501 74.3274 126.761C73.3769 126.891 72.4694 126.977 71.5624 127.107V127.02C71.8214 126.977 72.1239 126.934 72.3834 126.891V126.761C71.9509 126.717 71.5189 126.674 71.0869 126.674C70.9574 126.674 70.7844 126.847 70.6549 126.891C70.4819 126.934 70.3089 126.977 70.0929 126.977C69.3584 127.02 68.6239 127.02 67.9324 127.064C67.8894 127.064 67.8029 127.02 67.7599 127.02V126.891C70.6549 126.501 73.5069 126.111 76.4019 125.722C76.4449 125.808 76.4449 125.895 76.4879 125.981C76.2289 125.981 76.0559 126.068 75.8399 126.111ZM76.4879 125.678C77.4819 125.549 78.3894 125.462 79.3399 125.332C77.3524 125.895 76.7044 125.981 76.4879 125.678ZM38.8523 38.2788C40.2353 36.3743 41.6608 34.4694 43.0438 32.5213C43.4758 31.9588 43.8213 31.3527 44.2538 30.7902C44.3833 30.6169 44.5558 30.5302 44.7723 30.3569L44.7288 30.2707C44.9018 30.0538 45.0743 29.881 45.1608 29.7077C45.3768 29.3616 45.5068 28.9719 45.6793 28.5822C45.7228 28.4955 45.8523 28.4094 45.8523 28.4094C46.4573 28.7119 46.4573 28.0627 46.6733 27.8463C47.0623 27.4135 47.4513 26.9372 47.7968 26.5044C48.0558 26.1583 48.3153 25.8552 48.5313 25.4655C48.5743 25.3358 48.4448 25.1194 48.4018 24.9461H48.2723C48.4018 24.8594 48.5313 24.7297 48.6608 24.643C48.7043 24.643 48.7043 24.643 48.7473 24.5999C49.0068 24.2102 49.2658 23.8205 49.5253 23.4744C50.0438 22.7816 50.6053 22.0889 51.2103 21.4828C51.1238 21.6991 51.0373 21.916 50.9513 22.0889C50.9943 22.0889 50.9943 22.1324 51.0373 22.1324C51.5558 21.4397 52.1178 20.7905 52.6363 20.0977C52.5928 20.0547 52.5498 20.0111 52.5068 20.0111C52.2908 20.2275 52.1178 20.4439 51.9018 20.6603C51.8583 20.6172 51.8153 20.5741 51.7718 20.5741C52.2043 20.0111 52.6363 19.4486 53.0683 18.7989C53.1548 18.9291 53.2413 19.1019 53.4138 19.4486C53.5868 19.0153 53.7598 18.7122 53.8893 18.4097C53.7598 18.5394 53.5868 18.6691 53.4573 18.7989L53.3273 18.6691L54.1053 17.5005C54.9263 16.3314 55.7473 15.1197 56.5683 13.9506C56.8708 13.5178 57.2598 13.1716 57.5188 12.7388C58.3398 11.0939 59.6363 9.79499 60.6298 8.27973C60.8463 7.97718 61.1483 7.71721 61.4078 7.45724C61.6238 7.19777 61.7969 7.28442 61.9699 7.50082C63.1364 8.9725 64.3029 10.4878 65.4694 11.9594C66.3339 13.0419 67.1979 14.0808 68.0189 15.2058C69.0129 16.5914 69.9634 17.9764 70.9574 19.3619C72.0809 20.9633 73.2044 22.5652 74.2844 24.2102C75.9264 26.6341 77.4819 29.0585 79.1239 31.4824C80.3339 33.2577 81.5439 34.9888 82.7104 36.7641H80.5064C78.4759 36.7205 76.4019 36.5472 74.3709 36.6338C71.6054 36.7641 68.7969 37.0666 66.0314 37.283C62.5314 37.5861 58.9878 37.6296 55.4883 37.6296C54.2348 37.6296 52.9818 37.8024 51.7288 37.8891C50.2163 37.9758 48.7473 38.0624 47.2348 38.106C45.4633 38.1922 43.7348 38.2357 41.9633 38.2788C40.9698 38.3224 39.9323 38.2788 38.8523 38.2788ZM88.4139 58.1915V58.5812C88.3709 58.5812 88.3274 58.6243 88.2409 58.6243C88.0684 58.0182 87.8954 57.369 87.6794 56.7629C87.2474 55.5077 86.7719 54.2524 85.9944 53.1268C85.1299 51.9146 84.3524 50.6593 83.4879 49.4041C83.2719 49.101 82.9694 48.841 82.7104 48.5816C81.8029 47.5857 80.8954 46.5469 79.7289 45.811C78.0004 44.729 76.2289 43.8199 74.3274 43.0405C73.8089 42.8241 73.3339 42.5646 72.8154 42.2616H73.8524L81.2414 42.1318C82.8399 42.0882 84.3954 42.0882 85.9944 42.0016C86.3834 42.0016 86.5994 42.1318 86.8154 42.478C87.2044 43.1271 87.5929 43.7763 88.0249 44.426C88.0684 44.5122 88.1549 44.6424 88.1549 44.7721C88.1549 45.7244 88.1549 46.7202 88.1979 47.6724C88.2414 48.6682 88.3274 49.6204 88.3709 50.6163C88.3709 51.6116 88.2844 52.6505 88.3274 53.6893C88.3709 55.1615 88.4139 56.6763 88.4139 58.1915ZM41.9203 43.6902C43.9513 43.6035 45.8953 43.4733 47.8833 43.3871C49.4388 43.3004 51.0373 43.2569 52.5928 43.1707C53.2413 43.1271 53.8463 43.0841 54.4943 43.1707C53.8028 43.5168 53.1118 43.863 52.5068 44.2963C51.7288 44.8152 50.9943 45.508 50.2163 46.071C49.4388 46.6335 48.7473 47.3263 48.0993 48.0621C47.2783 49.0579 46.3708 49.9235 45.5068 50.8757C44.9018 51.5685 44.2103 52.2177 43.6918 52.9535C42.9573 53.9062 42.3093 54.9451 41.6178 56.0271C41.8338 51.9146 42.0933 47.8457 41.9203 43.6902ZM70.1364 85.3334C68.7534 85.6795 67.3279 86.0693 65.9019 86.2426C64.6919 86.4159 63.4389 86.3723 62.1859 86.3723C61.0624 86.3723 59.9818 86.3292 58.8583 86.2426C57.6053 86.1128 56.3523 85.9826 55.1423 85.4201C54.1053 84.9437 53.0253 84.5109 51.9883 83.9915C50.9513 83.472 49.9138 82.8659 49.1363 81.9137C48.5743 81.2209 47.7968 80.6584 47.1053 80.0523C47.2348 80.5718 47.5373 81.0045 48.0128 81.3076C47.7968 81.5676 47.4943 81.4373 47.0623 80.7451C46.9328 80.8312 46.8028 80.8748 46.7163 80.9179C46.8463 80.6148 46.9758 80.3123 47.1053 80.0523C46.9328 79.7062 46.7163 79.3165 46.5438 78.9703C46.1978 78.4073 45.8523 77.8012 45.5498 77.2387C45.4633 77.1085 45.4633 76.9787 45.3768 76.849C45.1608 76.589 44.9448 76.3295 44.7723 76.0696C44.4263 75.5501 44.1238 74.9876 43.6918 74.4682C43.6918 74.5979 43.7348 74.7276 43.7348 74.9009C43.6918 74.9009 43.6488 74.944 43.6488 74.944L42.7413 72.7365C42.6978 72.7365 42.6978 72.7365 42.6548 72.7801L43.4328 75.6368C43.3893 75.6368 43.3463 75.6804 43.3028 75.6804C43.1733 75.507 43.0438 75.3337 42.9573 75.1173C42.8708 74.7712 42.6118 74.7712 42.3953 74.9009C42.2658 74.9876 42.1793 75.2906 42.2228 75.4204C42.5253 76.1562 42.8708 76.8921 43.2163 77.6284C43.3028 77.8879 43.3893 78.1043 43.5188 78.3642C43.5623 78.4509 43.6918 78.5371 43.6918 78.6673C43.8648 79.0134 43.9943 79.3595 44.2103 79.6626C44.5993 80.182 45.0313 80.7015 45.4203 81.2209C45.8093 81.7404 46.1548 82.3034 46.5003 82.8229C46.5438 82.9095 46.6733 82.9095 46.7163 82.9526C46.9328 83.6018 47.6673 84.0781 48.1858 83.8187C48.3153 84.814 49.3953 85.1606 49.8278 86.1128C49.3093 85.8964 48.9203 85.7231 48.5743 85.5498C48.5313 85.5934 48.5313 85.6365 48.4883 85.7231C49.0068 85.9826 49.5253 86.2426 50.0003 86.5456C50.4323 86.8051 50.8648 87.0651 51.2533 87.3681C51.7723 87.844 52.3768 88.104 53.1118 88.2773C53.0683 88.147 53.0253 88.104 53.0253 88.104C54.2348 88.667 55.4883 89.2726 56.4388 89.7489C51.9448 89.8356 47.1488 89.9223 42.1793 90.0084C42.1793 89.1859 42.1363 88.407 42.1363 87.5845C42.1363 87.2384 42.2228 86.9353 42.1793 86.5887C42.0498 84.5976 42.0498 82.6065 41.7908 80.6584C41.5313 78.5806 41.5313 76.5459 41.5748 74.4682C41.6178 73.3426 41.5313 72.174 41.4883 71.0484C41.4883 69.5332 41.4883 68.0615 41.5313 66.5462C41.5313 66.3298 41.6178 66.1565 41.7043 65.9401H41.8338C41.8768 66.0268 41.8338 66.1565 41.9203 66.2001C42.0498 66.3298 42.2658 66.5462 42.3523 66.5032C42.6118 66.3298 43.0003 66.1565 43.0868 65.8971C43.3028 65.3776 43.3893 64.8146 43.3893 64.2951C43.3893 63.9059 43.5623 63.646 43.7348 63.386C43.8213 63.2563 43.8648 63.1265 43.9513 62.9532C43.7783 62.8235 43.6053 62.7368 43.3893 62.564C43.5623 62.0876 43.5188 61.5246 44.1673 61.2651C44.2538 61.2216 44.2538 61.0052 44.2968 60.8754C44.3398 60.5293 44.3833 60.1396 44.4263 59.7935C44.5128 59.9232 44.5558 59.9663 44.6423 60.0529C44.6858 59.9663 44.7288 59.9232 44.7288 59.9232C44.7288 59.7499 44.6858 59.4037 44.7288 59.4037C45.2473 59.3171 45.0313 58.7546 45.2908 58.4946C45.3338 58.4515 45.2473 58.3213 45.2473 58.2351C45.2473 58.1485 45.2473 58.0182 45.2908 58.0182C45.8953 57.8885 45.8093 57.2393 46.1978 56.9363C46.3278 56.8496 46.3708 56.7199 46.5438 56.5035C46.8893 57.1096 46.2843 57.4126 46.2413 57.8454C46.9758 57.4126 47.1918 56.3737 46.7598 56.0707C46.9328 55.9404 47.1053 55.7676 47.2348 55.5943C47.7103 55.0749 48.2288 54.5985 48.6608 54.0791C48.9633 53.6893 49.1363 53.2135 49.4388 52.8238C49.6118 52.6074 49.9573 52.4341 50.2163 52.3043C50.9943 51.8715 51.7288 51.3952 52.2043 50.6593C52.2908 50.5727 52.4203 50.486 52.5498 50.3999C52.6793 50.3132 52.9388 50.3132 52.9818 50.183C53.0253 50.0968 52.8953 49.8804 52.8088 49.7502C52.9818 49.6635 53.1548 49.4907 53.5003 49.3174C53.3708 49.5774 53.3278 49.7502 53.2413 49.9235L53.4573 50.1399C53.8463 49.8368 54.4513 49.4907 54.8398 49.2307C54.8398 49.1877 54.6238 49.0143 54.6238 49.0143C54.3648 49.1446 53.9758 49.361 53.5868 49.5338C53.6733 49.4041 53.6733 49.3174 53.7163 49.2743C54.3213 48.8846 54.9263 48.4949 55.5743 48.1918C57.0868 47.4991 58.5993 46.8068 60.1114 46.1571C60.3709 46.0274 60.7163 46.1141 61.0188 46.1141C61.1483 46.1141 61.2349 46.1141 61.3649 46.071C62.0559 45.8546 62.7474 45.6382 63.4389 45.4649C63.7414 45.3782 64.0869 45.3351 64.3894 45.3351C65.6859 45.3782 66.9819 45.3782 68.2784 45.4649C68.8399 45.508 69.3584 45.6382 69.8769 45.811C70.5254 46.0274 71.2164 46.3305 71.8214 46.6335C72.5559 47.0232 73.2474 47.456 73.9389 47.9324C75.1919 48.7549 76.3584 49.6635 77.6114 50.3999C78.8214 51.1357 79.7719 52.131 80.5499 53.2566C81.5004 54.5985 82.5809 55.8107 83.0129 57.4557L83.6609 60.3129C83.7904 60.8323 84.0929 61.3518 83.9634 61.9579C83.7474 63.0399 83.5744 64.1654 83.4019 65.2479C83.3154 65.6807 83.2289 66.1134 83.2719 66.5462C83.3584 67.8882 82.8399 69.0568 82.3214 70.269C82.1484 70.6587 81.8894 71.0484 81.6734 71.4812C81.7164 71.5243 81.9759 71.6545 82.0189 71.6545L82.4079 70.8751C82.4509 70.8751 82.4509 70.8751 82.4944 70.9187C82.2784 71.5243 82.1054 72.174 81.8894 72.7801C81.3709 74.122 80.8524 75.507 80.2044 76.8059C79.8584 77.5417 79.2534 78.1478 78.8214 78.8401C78.3894 79.4462 78.0439 80.0954 77.6114 80.6584C77.2229 81.1348 76.8339 81.6106 76.3154 81.9573C75.1484 82.8229 73.9389 83.6884 72.6859 84.3812C71.9079 84.8575 71.0004 85.117 70.1364 85.3334ZM47.1053 83.0392L47.0623 83.0823C46.9758 83.0392 46.8463 82.9957 46.7598 82.9095L45.7228 81.3512C45.6363 81.2209 45.5933 81.0912 45.6363 80.9179C46.1113 81.6537 46.5868 82.3465 47.1053 83.0392ZM73.9819 88.9695C75.9264 88.147 77.5254 86.9784 78.9944 85.6365C79.2104 85.4201 79.4264 85.2037 79.6859 85.0304C81.5004 83.9048 82.8399 82.3465 84.0499 80.6148C85.4324 78.6237 86.3399 76.3726 87.4634 74.2518C87.5499 74.0784 87.6364 73.9051 87.7229 73.7754C87.6364 78.7104 88.1979 83.5587 88.8459 88.4501C83.9634 88.6234 78.9944 88.7967 73.9819 88.9695ZM117.797 87.6712C117.753 87.7578 117.667 87.844 117.624 87.9306C117.58 87.844 117.58 87.7142 117.537 87.5414C117.278 88.2337 116.716 87.8876 116.327 87.8876C113.994 87.9306 111.618 87.9306 109.284 87.9306C107.037 87.9306 104.747 87.9306 102.5 87.9742C101.766 87.9742 100.988 88.147 100.253 88.1906C98.4819 88.2773 96.7104 88.3204 94.9389 88.3634C94.8089 88.3634 94.6794 88.147 94.4634 87.9742C94.4204 88.0609 94.3339 88.1906 94.2039 88.3634C94.1609 88.2773 94.0744 88.1906 93.9879 88.0609C93.9449 88.1906 93.9014 88.3203 93.8584 88.407H93.7289C93.6424 87.8009 93.4694 87.2384 93.4694 86.6323C93.4694 85.3334 93.5989 84.0351 93.6424 82.7362C93.6854 82.1301 93.6424 81.5676 93.6424 81.0045C93.8154 81.1348 93.9449 81.2209 94.1179 81.3512C94.2039 81.1779 94.2904 81.0481 94.3769 80.9179C94.3769 80.9179 94.2904 80.8748 94.2039 80.7882C94.2904 80.7451 94.3769 80.6584 94.3769 80.6153C94.4204 80.4851 94.5064 80.3554 94.5064 80.2687C94.5064 79.9657 94.4204 79.7062 94.3769 79.4462C94.4204 79.4462 94.4634 79.4462 94.5064 79.4031L94.7659 80.7015H94.8954C94.7229 80.3984 95.2844 80.139 94.8089 79.7923C94.7659 79.7493 94.8524 79.4893 94.8524 79.3595C94.7229 79.1001 94.6364 78.8401 94.5064 78.494C94.5499 78.4509 94.6794 78.4073 94.8089 78.3642C94.6364 78.2776 94.5064 78.1909 94.3769 78.1473C94.8089 77.7581 94.8089 77.5417 94.4204 77.1085C94.5064 77.0654 94.5929 77.0654 94.5929 77.0223C94.5929 76.6326 94.5929 76.2429 94.5064 75.8532C94.4204 75.4204 94.6364 74.9009 93.9879 74.6415C94.0314 74.7712 94.0744 74.8579 94.1609 74.9876C94.1609 74.9876 94.0314 75.0307 93.9014 75.1173C93.3399 74.5979 93.6854 73.9051 93.5559 73.1262C93.8584 73.2129 94.0744 73.2995 94.2904 73.3857C94.2039 73.0831 93.9879 72.7365 93.8584 72.3468H93.6854V69.4901C93.6854 69.5332 93.9879 69.5332 94.1609 69.5762C94.1609 69.5332 94.2039 69.4901 94.2039 69.4465C94.0744 69.2732 93.9014 69.1004 93.7289 68.884L93.8154 68.7973C93.4694 68.3645 93.6424 67.7584 93.6424 67.6287V64.5982C94.0744 65.031 93.4264 65.594 94.0744 65.8535V65.4207H94.0314C93.9879 64.7715 93.9879 64.1223 93.9449 63.4726H93.8584C93.8154 63.5593 93.8154 63.6029 93.7719 63.689H93.6854C93.7719 60.2693 93.8584 56.8496 93.9449 53.3432C94.3769 53.9062 94.8524 54.4257 95.1549 54.9882C96.1484 56.8065 97.4449 58.3649 98.6549 60.0098C99.6919 61.4384 100.642 62.9968 101.593 64.4685C102.759 66.2432 103.883 68.0179 105.05 69.7931C105.914 71.1351 106.821 72.477 107.729 73.7754C108.55 74.944 109.414 76.0696 110.278 77.1951C111.013 78.1909 111.79 79.1867 112.525 80.182C113.389 81.3942 114.253 82.6065 115.118 83.7751C115.55 84.3812 116.025 84.9873 116.5 85.5934C116.759 85.9395 117.148 86.1995 117.408 86.4159C117.364 86.4159 117.321 86.4159 117.235 86.3723C117.364 86.5456 117.451 86.6754 117.537 86.762C118.013 87.0215 118.056 87.2815 117.797 87.6712ZM120 76.849V76.5459C120 76.6326 120.043 76.7623 120 76.849ZM121.469 57.7588C121.426 57.7588 121.167 57.4988 121.124 57.4557C121.08 57.5854 121.124 57.7152 121.037 57.8885C120.994 57.7588 120.692 57.8018 120.692 57.6721C120.648 58.2782 120.951 58.8843 120.908 59.4904C121.037 59.4037 121.556 59.3602 121.685 59.2304C121.729 59.274 121.815 59.3171 121.858 59.3171C120.994 59.9663 121.21 60.616 121.599 61.3518C121.685 61.5246 121.945 61.8712 121.685 62.2174C121.599 62.304 121.729 62.564 121.772 62.7804H121.901V62.8665L121.513 62.9968C121.426 62.8665 120.908 62.6071 120.908 62.3907V64.5982C121.34 64.7279 121.34 65.334 121.513 65.6371C121.599 65.5073 121.642 65.4207 121.685 65.291L121.729 65.334C121.685 65.594 121.642 65.8535 121.556 66.1135C121.469 66.5032 121.383 66.8493 121.34 67.239C121.34 67.2821 121.426 67.3687 121.426 67.4118C120.951 68.4943 121.21 69.7065 121.037 70.832C120.908 71.6545 121.037 72.5201 120.951 73.3857C120.864 74.122 120.692 74.9009 120.519 75.6368C120.476 75.7665 120.389 75.8101 120.173 75.8968C120.259 75.3773 120.216 75.0307 120.13 74.5548C120.087 74.5548 119.525 74.2518 119.482 74.2518C119.482 74.8579 119.827 75.6804 119.957 76.3726C119.827 76.3295 119.309 76.0265 119.266 76.0265C119.179 76.5459 119.179 77.2387 119.136 77.8012C119.093 78.234 118.704 78.6237 118.661 79.1001C118.661 79.3595 118.963 79.5329 118.92 79.9657H119.266C119.266 79.1001 119.655 78.3207 119.655 77.4115H119.784C119.827 77.4982 119.957 77.5848 119.914 77.6284C119.827 78.1043 119.655 78.6237 119.698 79.1001C119.698 79.3595 119.914 79.6195 119.827 79.9226C119.741 80.182 119.698 80.442 119.655 80.8312C119.611 80.6148 119.568 80.5287 119.568 80.3984C119.525 80.3984 119.136 80.3554 119.093 80.3554C119.05 80.6148 119.395 80.8748 119.352 81.0912C119.309 81.1348 119.266 81.1348 119.179 81.1779L117.753 79.1001C116.63 77.4551 115.506 75.8101 114.383 74.122C114.08 73.6887 113.821 73.2559 113.605 72.8232C112.266 70.529 110.797 68.321 109.155 66.2001C107.901 64.5982 106.908 62.8665 105.741 61.1785C104.661 59.5771 103.58 58.0182 102.5 56.4168C102.111 55.8974 101.636 55.421 101.29 54.8585C100.167 53.0837 99.1734 51.2654 98.0499 49.4907C97.0994 48.0185 96.0619 46.5904 95.0684 45.1618C94.7229 44.6855 94.3769 44.166 94.0314 43.6466C93.9879 43.5599 93.9449 43.4733 93.9449 43.3435C93.8584 42.3913 93.7719 41.4391 93.7289 40.5299C93.7289 39.6638 93.8154 38.7983 93.8154 37.8891V37.1102C93.8154 36.8938 93.8584 36.7205 93.8584 36.5041C93.9014 36.4605 93.9449 36.3743 93.9879 36.3308C92.7349 36.3308 91.4389 36.2877 90.1854 36.3308C89.3649 36.3743 88.9324 36.0277 88.3709 35.4221C86.7289 33.5602 85.5189 31.4394 84.0929 29.4482C82.7534 27.5433 81.3709 25.6819 79.9879 23.8205C78.8649 22.3053 77.7414 20.8336 76.6179 19.3183C75.3649 17.5872 74.1549 15.8555 72.8584 14.1239C71.3029 12.0461 69.7044 9.96831 68.1054 7.89053C67.3709 6.93779 66.5499 6.02914 65.7289 5.03333C66.2904 5.11999 66.8089 5.20664 67.3279 5.24972L69.4019 5.37946C70.9574 5.5097 72.5129 5.59585 74.0684 5.81225C75.3649 5.98556 76.6609 6.24553 78.0004 6.46193C80.8524 6.93779 83.6609 7.71721 86.3834 8.62637C87.9819 9.14581 89.5374 9.83857 91.0929 10.4878C94.5929 11.9164 97.9204 13.6475 101.204 15.4658C102.241 16.0283 102.846 16.9375 103.624 17.76C104.747 18.9291 105.871 20.0977 106.951 21.3099C108.204 22.7385 109.371 24.2102 110.58 25.6819C111.661 26.9808 112.784 28.2791 113.864 29.578C114.21 29.9677 114.469 30.4436 114.772 30.8763C115.463 31.9152 116.241 32.911 116.846 34.0366C117.278 34.8591 117.537 35.8113 117.84 36.7205C118.272 38.0624 118.704 39.3613 119.136 40.7032C119.438 41.6985 119.698 42.7374 119.914 43.7763C120.087 44.4691 120.043 45.2049 120.259 45.8977C120.519 46.8068 120.259 47.8021 120.519 48.7113C120.562 48.7979 120.605 48.9277 120.648 49.0143C120.821 49.1877 120.951 49.3605 120.692 49.6204C120.648 49.6635 120.648 49.8368 120.692 49.9666C120.778 49.8804 120.821 49.7938 120.908 49.6635C120.908 49.7502 120.951 49.7938 120.951 49.8368C120.951 50.0102 120.908 50.183 120.951 50.3563C120.951 50.4429 121.037 50.5727 121.08 50.6593C121.167 50.5727 121.253 50.5296 121.426 50.3999C121.815 51.8715 121.858 53.3432 121.858 54.8585C121.858 56.2871 122.117 57.7152 121.513 59.1007C121.642 58.6243 121.34 58.1915 121.469 57.7588Z" fill="black"/>
<path d="M94.0006 74.7344C94.0436 74.7344 94.087 74.778 94.087 74.778L94.0436 74.7344C94.0436 74.6914 94.0436 74.6914 94.0006 74.7344ZM100.828 117.504C100.353 117.85 99.8771 118.153 99.2721 118.283C99.2291 118.24 99.2291 118.196 99.1856 118.153C99.6611 117.85 100.18 117.547 100.655 117.244C100.698 117.33 100.785 117.417 100.828 117.504ZM19.8095 58.8475C20.2845 58.2414 20.76 57.6353 21.2785 57.0297C21.3215 57.0728 21.6675 57.1595 21.7105 57.2025C21.2355 57.8086 20.587 58.6311 20.112 59.2803C20.0255 59.1942 19.896 58.8911 19.8095 58.8475ZM7.53798 80.0591C7.19198 79.3233 6.84648 78.5439 6.50098 77.808C6.54398 77.7649 6.84648 77.6347 6.88948 77.6347C7.36498 78.3275 7.58098 79.15 7.92648 79.8858C7.92648 79.8858 7.58098 80.0591 7.53798 80.0591ZM18.5565 59.2803C18.297 59.67 18.038 60.1028 17.7785 60.4925C17.7355 60.4494 17.26 60.6658 17.217 60.6223C17.476 60.2331 18.124 59.5403 18.3835 59.1506C18.4265 59.1942 18.47 59.2372 18.5565 59.2803ZM96.2041 119.278C96.2476 119.278 96.2475 119.235 96.2905 119.235C96.593 119.278 96.9391 119.322 97.2846 119.322C96.7226 119.711 96.3771 119.668 96.2041 119.278ZM18.6425 61.0986C18.686 60.9689 18.7725 60.8387 18.8585 60.7089C18.945 60.7089 19.075 60.6658 19.075 60.6658C19.2475 60.3628 19.2475 60.1464 19.4205 59.8864C19.3775 59.8433 19.334 59.8433 19.291 59.7998C19.0315 59.9731 18.7725 60.1895 18.513 60.3628C18.5995 60.4494 18.5995 60.4925 18.5995 60.5792C18.254 60.5361 18.124 60.7089 17.9515 61.1853C17.908 61.315 17.692 61.3581 17.476 61.5314C17.433 61.6181 17.3895 61.8345 17.303 62.0509L17.3465 62.0944C17.26 62.1806 17.1305 62.2242 17.1305 62.2242C16.871 62.4836 16.5685 62.7005 16.3095 62.96C16.266 63.0898 16.223 63.22 16.223 63.3497C16.5255 63.0467 17.044 62.4836 17.433 62.1375L17.476 62.1806C17.649 61.9211 17.7785 61.6612 17.9515 61.4017C17.9945 61.4448 17.9945 61.4883 18.038 61.5314C17.908 61.8775 17.7785 62.2673 17.649 62.6139C17.5625 62.657 17.433 62.7436 17.433 62.7005C17.26 62.8303 17.1305 63.0031 16.9575 63.1333L16.18 63.6528C15.7475 64.0425 15.3155 64.3886 14.8405 64.7783C14.538 65.2542 14.2355 65.687 13.8895 66.25C14.408 66.1203 14.538 66.3367 14.4945 66.7694C15.0995 66.8561 15.1425 66.3797 15.3155 66.0336C15.359 65.9469 15.402 65.7736 15.4885 65.7306C15.8775 65.3844 16.3095 65.0814 16.7415 64.7347C16.828 64.6481 16.828 64.4753 16.828 64.345C16.828 64.302 16.612 64.302 16.4825 64.2589C16.871 63.8256 17.433 63.0898 17.822 62.6139C18.038 62.4836 18.254 62.3108 18.254 62.1806C18.2105 61.7047 18.513 61.575 18.8585 61.4017C18.686 61.2719 18.6425 61.1417 18.6425 61.0986Z" fill="black"/>
<path d="M19.5079 60.6223C19.3349 60.9253 19.1624 61.1853 18.9894 61.4884L18.7299 61.3581C18.5574 62.3539 17.9524 63.22 17.3474 63.3928C17.5204 63.4795 17.6929 63.5662 17.8229 63.5226C17.9524 63.4795 18.0389 63.2631 18.1249 63.1334L19.2919 61.4448L19.6809 60.7956L19.5079 60.6223ZM5.11885 79.6259C5.33485 79.6259 5.55085 79.6694 5.81035 79.6694C5.81035 79.4961 6.02635 79.5397 6.02635 79.3664H6.15585C6.15585 79.5828 6.19935 79.7561 6.19935 79.9725H5.29185C5.24835 79.9289 5.07585 79.6694 5.11885 79.6259ZM4.77335 77.6347C4.64385 77.505 4.42735 77.3753 4.42735 77.245C4.38435 77.0722 4.51385 76.8558 4.64385 76.6394C4.72985 76.942 4.77335 77.202 4.85985 77.505C4.81635 77.5481 4.77335 77.5917 4.77335 77.6347ZM5.85335 74.8642C6.02635 75.2975 6.19935 75.7734 6.37185 76.2061C6.32885 76.2061 6.06935 76.3364 6.02635 76.3795C5.85335 75.9467 5.63735 75.4703 5.46485 75.0375C5.50785 74.9944 5.76685 74.8642 5.85335 74.8642ZM102.038 116.248C102.254 116.162 102.514 116.118 102.859 116.032C102.47 116.335 102.168 116.551 101.909 116.811C101.865 116.767 101.822 116.724 101.779 116.724C101.865 116.551 101.952 116.421 102.038 116.248V116.248ZM48.9339 24.7796C49.1929 24.6063 49.4089 24.4765 49.6684 24.3032L49.7549 24.3899C49.4954 24.7365 49.2794 25.0826 48.9769 25.5154C48.9339 25.2124 48.9339 25.0391 48.8904 24.8227C48.8474 24.8227 48.8904 24.8227 48.9339 24.7796ZM61.5939 46.6834C61.9829 46.5106 62.3719 46.3373 62.8474 46.1209C62.8039 46.3804 62.8039 46.5537 62.8039 46.727C62.6744 46.6834 62.5014 46.6404 62.3719 46.6404C62.1129 46.6834 61.6374 47.0301 61.4214 47.0731C61.3779 47.0731 61.5939 46.727 61.5939 46.6834ZM94.0014 83.3922C94.0879 83.825 94.9089 84.0414 94.0879 84.4742C94.2174 84.5608 94.3469 84.6044 94.4769 84.6911C94.4769 84.7342 94.4334 84.8208 94.3904 84.8639C94.3039 84.9075 94.1309 84.9941 94.0444 84.9506C94.0014 84.9506 93.9149 84.7772 93.9149 84.6911C93.9149 84.3014 93.9584 83.9117 94.0014 83.3922Z" fill="black"/>
</svg>
