<svg width="128" height="128" viewBox="0 0 128 128" fill="none" xmlns="http://www.w3.org/2000/svg">
<path d="M63.6002 75.3C69.8962 75.3 75.0002 70.196 75.0002 63.9C75.0002 57.604 69.8962 52.5 63.6002 52.5C57.3042 52.5 52.2002 57.604 52.2002 63.9C52.2002 70.196 57.3042 75.3 63.6002 75.3Z" fill="black"/>
<path d="M106.9 45.1C104.7 44.3 102.4 43.5 100 42.8C100.6 40.4 101.1 38 101.5 35.7C103.6 22.5 101.3 13.2 94.9 9.6C93 8.5 90.9 8 88.5 8C81.5 8 72.6 13.2 63.6 21.9C54.6 13.2 45.7 8 38.7 8C36.3 8 34.2 8.5 32.3 9.6C25.9 13.3 23.6 22.6 25.7 35.7C26.1 38 26.6 40.4 27.2 42.8C24.8 43.5 22.5 44.2 20.3 45.1C7.8 49.9 1 56.5 1 63.9C1 71.3 7.9 77.9 20.3 82.7C22.5 83.5 24.8 84.3 27.2 85C26.6 87.4 26.1 89.8 25.7 92.1C23.6 105.3 25.9 114.6 32.3 118.2C34.2 119.3 36.3 119.8 38.7 119.8C45.8 119.8 54.7 114.6 63.6 105.9C72.6 114.6 81.5 119.8 88.5 119.8C90.9 119.8 93 119.3 94.9 118.2C101.3 114.5 103.6 105.2 101.5 92.1C101.1 89.8 100.6 87.4 100 85C102.4 84.3 104.7 83.6 106.9 82.7C119.4 77.9 126.2 71.3 126.2 63.9C126.2 56.5 119.4 49.9 106.9 45.1V45.1ZM92.1 14.6C96.2 17 97.6 24.4 95.9 34.9C95.6 37 95.1 39.2 94.5 41.5C89.3 40.3 83.8 39.5 78 39C74.6 34.2 71.1 29.9 67.6 26C75 18.7 82.5 13.7 88.6 13.7C89.9 13.7 91.1 14 92.1 14.6V14.6ZM80.9 73.9C79.1 77.1 77 80.3 74.8 83.5C71.1 83.8 67.4 83.9 63.6 83.9C59.7 83.9 56 83.8 52.4 83.5C50.2 80.3 48.2 77.1 46.4 73.9C44.5 70.6 42.7 67.2 41.1 63.9C42.7 60.6 44.5 57.2 46.4 53.9C48.2 50.7 50.3 47.5 52.5 44.3C56.2 44 59.9 43.9 63.7 43.9C67.6 43.9 71.3 44 74.9 44.3C77.1 47.5 79.1 50.7 80.9 53.9C82.8 57.2 84.6 60.6 86.2 63.9C84.5 67.2 82.8 70.5 80.9 73.9ZM89.2 70.6C90.7 74.1 91.9 77.5 93 80.9C89.6 81.7 86 82.3 82.2 82.8C83.4 80.9 84.7 78.9 85.8 76.8C87 74.7 88.1 72.6 89.2 70.6ZM63.6 97.7C61.2 95.1 58.9 92.3 56.7 89.4C59 89.5 61.3 89.6 63.6 89.6C65.9 89.6 68.2 89.5 70.5 89.4C68.3 92.3 66 95.1 63.6 97.7ZM45 82.7C41.2 82.2 37.6 81.6 34.2 80.8C35.3 77.5 36.5 74 38 70.5C39.1 72.5 40.2 74.6 41.4 76.6C42.6 78.8 43.8 80.7 45 82.7V82.7ZM38 57.2C36.5 53.7 35.3 50.3 34.2 46.9C37.6 46.1 41.2 45.5 45 45C43.8 46.9 42.5 48.9 41.4 51C40.2 53.1 39.1 55.2 38 57.2V57.2ZM63.6 30.1C66 32.7 68.3 35.5 70.5 38.4C68.2 38.3 65.9 38.2 63.6 38.2C61.3 38.2 59 38.3 56.7 38.4C58.9 35.5 61.2 32.7 63.6 30.1ZM85.8 51.1L82.2 45.1C86 45.6 89.6 46.2 93 47C91.9 50.3 90.7 53.8 89.2 57.3C88.1 55.2 87 53.1 85.8 51.1ZM31.3 34.9C29.6 24.4 31 17 35.1 14.6C36.1 14 37.3 13.7 38.6 13.7C44.6 13.7 52.1 18.6 59.6 26C56.1 29.8 52.6 34.2 49.2 39C43.4 39.5 37.9 40.4 32.7 41.5C32.1 39.2 31.7 37 31.3 34.9V34.9ZM6.6 63.9C6.6 59.2 12.3 54.2 22.3 50.5C24.3 49.7 26.5 49 28.7 48.4C30.3 53.4 32.3 58.7 34.7 64C32.3 69.3 30.2 74.5 28.7 79.5C14.9 75.5 6.6 69.5 6.6 63.9ZM35.1 113.2C31 110.8 29.6 103.4 31.3 92.9C31.6 90.8 32.1 88.6 32.7 86.3C37.9 87.5 43.4 88.3 49.2 88.8C52.6 93.6 56.1 97.9 59.6 101.8C52.2 109.1 44.7 114.1 38.6 114.1C37.3 114.1 36.1 113.8 35.1 113.2ZM95.9 92.9C97.6 103.4 96.2 110.8 92.1 113.2C91.1 113.8 89.9 114.1 88.6 114.1C82.6 114.1 75.1 109.2 67.6 101.8C71.1 98 74.6 93.6 78 88.8C83.8 88.3 89.3 87.4 94.5 86.3C95.1 88.6 95.5 90.8 95.9 92.9V92.9ZM104.9 77.3C102.9 78.1 100.7 78.8 98.5 79.4C96.9 74.4 94.9 69.1 92.5 63.8C94.9 58.5 97 53.3 98.5 48.3C112.3 52.3 120.6 58.3 120.6 63.9C120.6 68.6 114.8 73.6 104.9 77.3Z" fill="black"/>
</svg>
