<svg width="500" height="500" viewBox="0 0 500 500" fill="none" xmlns="http://www.w3.org/2000/svg">
<rect width="500" height="500" fill="white"/>
<path d="M250.392 281.117C267.621 281.117 281.588 267.15 281.588 249.922C281.588 232.693 267.621 218.726 250.392 218.726C233.163 218.726 219.196 232.693 219.196 249.922C219.196 267.15 233.163 281.117 250.392 281.117Z" fill="black"/>
<path d="M250.391 313.835C342.839 313.835 417.783 285.22 417.783 249.922C417.783 214.623 342.839 186.009 250.391 186.009C157.944 186.009 83 214.623 83 249.922C83 285.22 157.944 313.835 250.391 313.835Z" stroke="black" stroke-width="18"/>
<path d="M195.041 281.878C241.265 361.94 303.518 412.536 334.087 394.887C364.656 377.238 351.965 298.027 305.742 217.965C259.518 137.903 197.265 87.3074 166.696 104.957C136.126 122.606 148.817 201.816 195.041 281.878Z" stroke="black" stroke-width="18"/>
<path d="M195.041 217.965C148.817 298.027 136.127 377.238 166.696 394.887C197.265 412.536 259.518 361.94 305.742 281.878C351.966 201.816 364.656 122.606 334.087 104.957C303.518 87.3075 241.265 137.903 195.041 217.965Z" stroke="black" stroke-width="18"/>
</svg>
