<svg width="500" height="500" fill="none" xmlns="http://www.w3.org/2000/svg"><path d="M250.392 281.117c17.229 0 31.196-13.967 31.196-31.195 0-17.229-13.967-31.196-31.196-31.196s-31.196 13.967-31.196 31.196c0 17.228 13.967 31.195 31.196 31.195Z" fill="#000"/><path d="M250.391 313.835c92.448 0 167.392-28.615 167.392-63.913 0-35.299-74.944-63.913-167.392-63.913C157.944 186.009 83 214.623 83 249.922c0 35.298 74.944 63.913 167.391 63.913Z" stroke="#000" stroke-width="18"/><path d="M195.041 281.878c46.224 80.062 108.477 130.658 139.046 113.009 30.569-17.649 17.878-96.86-28.345-176.922-46.224-80.062-108.477-130.658-139.046-113.008-30.57 17.649-17.879 96.859 28.345 176.921Z" stroke="#000" stroke-width="18"/><path d="M195.041 217.965c-46.224 80.062-58.914 159.273-28.345 176.922 30.569 17.649 92.822-32.947 139.046-113.009 46.224-80.062 58.914-159.272 28.345-176.921-30.569-17.65-92.822 32.946-139.046 113.008Z" stroke="#000" stroke-width="18"/></svg>