<svg width="128" height="128" viewBox="0 0 128 128" fill="none" xmlns="http://www.w3.org/2000/svg">
<path d="M39.0025 75.2578C45.4065 75.2578 50.598 70.0664 50.598 63.6619C50.598 57.2584 45.4065 52.067 39.002 52.067C32.5985 52.067 27.4071 57.2579 27.4071 63.6624C27.4071 70.0664 32.5985 75.2578 39.0025 75.2578ZM11.5954 98.4482C17.9994 98.4482 23.1909 93.2573 23.1909 86.8528C23.1909 80.4493 17.9994 75.2578 11.5949 75.2578C5.19194 75.2578 0 80.4488 0 86.8528C0 93.2568 5.19094 98.4487 11.5954 98.4487V98.4482ZM116.305 98.4482C122.709 98.4482 127.9 93.2573 127.9 86.8528C127.9 80.4493 122.709 75.2578 116.305 75.2578C109.901 75.2578 104.709 80.4488 104.709 86.8528C104.709 93.2568 109.901 98.4487 116.305 98.4487L116.305 98.4482Z" fill="black"/>
<path d="M61.774 50.945L61.7227 50.9265L61.6696 50.9136C56.9441 49.7706 53.459 45.5814 53.459 40.6109C53.459 34.7662 58.2805 30 64.2628 30C68.6903 30 72.4882 32.6133 74.1586 36.3447L74.1716 36.3737L74.1864 36.4019C75.3537 38.6194 75.6581 40.8456 75.9566 43.0282C75.9906 43.2771 76.0246 43.5255 76.0598 43.7732C76.3908 46.1062 76.8418 48.5395 78.9542 50.1765C81.3087 52.0012 84.059 52.2154 86.7273 52.4075C86.7909 52.4121 86.8546 52.4166 86.9183 52.4212C89.5842 52.6124 92.3028 52.8073 95.1676 54.2057L95.1783 54.2109L95.1892 54.2159C97.0188 55.0555 98.5772 56.3898 99.6886 58.0682C100.82 59.777 101.422 61.7815 101.42 63.8308V63.8318C101.42 68.8023 97.9348 72.992 93.2098 74.135L93.1568 74.1478L93.1054 74.1664C90.9584 74.9414 89.0039 75.0438 87.0412 75.1467C86.7606 75.1614 86.4798 75.1761 86.1983 75.1928C83.9807 75.3243 81.7113 75.5838 79.5779 77.2129C77.1261 79.0851 76.5949 81.6084 76.1997 84.0868C76.1629 84.3175 76.1272 84.5486 76.0914 84.78C75.7361 87.0773 75.375 89.4118 73.9201 91.8205L73.9037 91.8477L73.889 91.8758C72.1024 95.3084 68.466 97.6641 64.2628 97.6641C58.2805 97.6641 53.459 92.8979 53.459 87.0531C53.459 82.8072 56.0006 79.1325 59.6902 77.437L59.7009 77.4321L59.7114 77.427C62.5763 76.0283 65.295 75.8334 67.9609 75.6423C68.0244 75.6378 68.0879 75.6332 68.1514 75.6286C70.8197 75.4367 73.57 75.2225 75.9247 73.3979L75.9248 73.3978C78.7293 71.224 79.2214 67.9032 79.2214 64.151H78.2214L79.2168 64.0558C79.1985 63.864 79.1806 63.6722 79.1627 63.4807C78.8308 59.9227 78.5059 56.4389 75.301 53.9916L74.7545 54.7073L75.301 53.9916C73.1676 52.3625 70.8982 52.103 68.6807 51.9715C68.3992 51.9548 68.1184 51.9401 67.8379 51.9253C65.8752 51.8225 63.9208 51.72 61.774 50.945Z" stroke="black" strokeWidth="2"/>
</svg>
