<svg width="128" height="128" viewBox="0 0 128 128" fill="none" xmlns="http://www.w3.org/2000/svg">
<path fill-rule="evenodd" clip-rule="evenodd" d="M1 56.156C1 56.859 1.207 57.323 1.323 57.774C2.079 60.707 3.704 63.224 5.632 65.52C8.378 68.792 11.741 71.426 15.186 73.903C18.174 76.051 21.223 78.151 24.223 80.283C24.738 80.649 25.225 81.07 25.784 81.519C25.303 81.779 24.903 82.008 24.487 82.219C20.528 84.227 16.719 86.478 13.208 89.205C11.092 90.849 9.046 92.596 7.601 94.879C5.276 98.551 4.453 102.463 6.186 106.64C6.692 107.86 7.464 108.914 8.553 109.693C8.906 109.945 9.302 110.195 9.715 110.293C10.773 110.542 11.851 110.705 12.922 110.902L15.955 110.9C19.309 110.601 22.362 109.452 25.121 107.548C29.433 104.572 32.338 100.582 33.587 95.461C34.495 91.739 34.532 88.013 33.462 84.308C33.3596 83.9648 33.2415 83.6264 33.108 83.294C32.978 82.961 32.825 82.637 32.645 82.222L39.521 78.268L39.624 78.356C39.499 78.765 39.366 79.173 39.253 79.586C38.436 82.57 37.893 85.606 38.088 88.703C38.296 92.003 39.217 95.092 41.149 97.849C42.711 100.079 46.433 100.162 48.093 97.924C48.682 97.129 49.253 96.298 49.682 95.411C50.803 93.096 51.841 90.74 52.912 88.4L53.099 87.972C53.022 89.08 52.932 90.053 52.891 91.027C52.827 92.548 52.916 94.06 53.436 95.507C53.881 96.745 54.638 97.67 56.056 97.833C57.026 97.944 57.799 97.5 58.512 96.937C59.6166 96.0641 60.5321 94.9757 61.203 93.738C63.104 90.247 65.056 86.777 66.779 83.198C68.643 79.327 70.273 75.343 72.004 71.406L72.29 70.708C72.699 72.315 72.984 73.889 73.509 75.379C74.119 77.108 74.874 78.796 75.696 80.437C76.085 81.212 76.04 81.715 75.501 82.365C73.245 85.085 71.028 87.838 68.809 90.588C68.318 91.195 67.829 91.813 67.42 92.476C67.1719 92.8947 67.0088 93.3582 66.94 93.84C66.8712 94.2836 66.9767 94.7366 67.2346 95.104C67.4924 95.4715 67.8825 95.7248 68.323 95.811C69.2121 96.0025 70.1237 96.0674 71.031 96.004C74.128 95.776 76.94 94.689 79.426 92.847C82.647 90.461 83.681 87.205 82.901 83.346C82.69 82.299 82.317 81.281 81.954 80.272C81.791 79.817 81.78 79.498 82.077 79.074C84.652 75.397 86.852 71.496 88.898 67.505C88.979 67.348 89.062 67.191 89.204 67.023C89.867 70.473 90.865 73.798 92.653 76.815C91.741 77.694 90.838 78.491 90.021 79.369C88.222 81.303 86.662 83.403 85.848 85.964C85.498 87.068 85.229 88.19 85.385 89.369C85.627 91.2 87.127 92.39 88.928 91.973C92.782 91.081 96.109 89.265 98.54 86.048C100.176 83.882 100.325 81.466 99.64 78.935C99.452 78.247 99.229 77.57 98.989 76.781C99.94 76.486 100.867 76.132 101.826 75.913C106.805 74.777 111.73 74.975 116.528 76.773C119.329 77.823 121.592 79.58 122.934 82.344C124.573 85.723 123.667 88.929 120.482 91.065C120.185 91.264 119.845 91.421 119.599 91.67C119.52 91.7613 119.461 91.8681 119.426 91.9834C119.391 92.0988 119.38 92.2202 119.394 92.34C119.415 92.463 119.74 92.617 119.927 92.615C120.974 92.607 121.823 92.058 122.638 91.494C124.68 90.081 126.17 88.18 126.491 85.677L126.554 85.489L126.477 83.859C126.446 83.765 126.5 83.672 126.493 83.601C126.059 79.956 124.112 77.129 121.28 74.913C118 72.348 114.127 71.292 110.031 71.125C106.709 70.982 103.391 71.4927 100.266 72.628C99.369 72.953 98.48 73.338 97.578 73.701C97.457 73.482 97.327 73.272 97.22 73.055C96.294 71.159 95.172 69.347 94.924 67.173C94.748 65.629 94.532 64.087 94.899 62.56C95.252 61.091 95.712 59.647 96.145 58.198C96.368 57.452 96.211 57.034 95.499 56.698C95.2509 56.5743 94.9861 56.4874 94.713 56.44C92.963 56.186 91.237 56.331 89.542 56.824C88.942 56.999 88.506 57.335 88.373 57.999C88.297 58.38 88.142 58.745 88.034 59.121C87.591 60.684 87.277 62.277 86.561 63.766C84.767 67.501 82.719 71.095 80.623 74.663C80.396 75.048 80.157 75.426 79.871 75.893C79.135 74.353 78.35 72.971 78.112 71.351C77.843 69.519 77.631 67.69 78.087 65.872C78.426 64.516 78.869 63.185 79.277 61.847C79.47 61.211 79.381 60.877 78.805 60.542C78.514 60.373 78.185 60.223 77.857 60.174C76.0626 59.9007 74.2291 60.0507 72.503 60.612C71.96 60.788 71.675 61.139 71.509 61.699C71.021 63.351 70.605 65.043 69.92 66.614C67.146 72.974 64.292 79.301 61.441 85.627C60.846 86.948 60.149 88.223 59.478 89.509C59.308 89.835 59.06 90.122 58.848 90.428C58.678 90.227 58.612 90.089 58.613 89.951C58.618 89.138 58.521 88.301 58.676 87.515C59.152 85.1378 59.6781 82.771 60.254 80.416C60.724 78.47 61.271 76.542 61.792 74.609C61.967 73.962 61.97 73.357 61.505 72.813C60.724 71.902 59.092 71.702 58.124 72.404L57.696 72.646L57.779 71.956C57.983 70.477 58.024 69.003 57.618 67.546C57.112 65.73 55.816 64.685 53.932 64.743C53.054 64.77 52.132 64.92 51.319 65.24C47.9 66.58 45.271 68.953 43.033 71.808C42.8255 72.0731 42.5684 72.2952 42.276 72.462C39.383 74.066 36.481 75.65 33.58 77.24L30.351 79.009C29.485 78.183 28.698 77.326 27.805 76.599C25.078 74.375 22.307 72.206 19.561 70.007C17.127 68.058 14.769 66.028 12.965 63.447C11.623 61.527 10.758 59.426 10.675 57.052C10.57 54.027 11.428 51.263 12.968 48.69C14.938 45.398 17.625 42.756 20.579 40.363C23.704 37.833 27.084 35.685 30.587 33.724C35.488 30.981 40.529 28.553 45.934 26.95C51.476 25.306 57.099 24.365 62.899 25.021C65.179 25.279 67.393 25.801 69.426 26.916C70.983 27.769 72.26 28.886 72.854 30.632C73.44 32.35 73.422 34.091 73.016 35.836C72.191 39.37 70.256 42.283 67.821 44.886C63.827 49.153 58.955 52.058 53.47 53.977C50.3163 55.0818 47.035 55.7817 43.705 56.06C40.976 56.289 38.304 56.047 35.72 55.098C34.009 54.469 32.519 53.507 31.321 52.111C31.107 51.861 30.833 51.59 30.434 51.824C30.043 52.054 29.974 52.426 30.105 52.803C30.324 53.429 30.526 54.081 30.867 54.641C31.724 56.046 32.974 57.065 34.35 57.939C36.993 59.62 39.947 60.185 43.01 60.316C47.658 60.517 52.193 59.823 56.664 58.576C63.047 56.796 68.597 53.652 73.048 48.692C76.754 44.562 79.401 39.901 79.968 34.273C80.245 31.526 79.95 28.835 78.664 26.329C77.269 23.614 75.051 21.595 72.399 20.204C68.537 18.179 64.369 17 60.067 17H55.757C50.547 17 45.51 18.493 40.614 20.274C36.908 21.623 33.274 23.215 29.746 24.977C22.063 28.816 14.908 33.445 9.031 39.81C6.103 42.981 3.624 46.48 2.198 50.6C1.76761 51.8301 1.39684 53.0802 1.087 54.346L1 56.156ZM28.926 90.359C28.593 94.818 26.572 98.433 23.269 101.361C21.411 103.007 19.28 104.179 16.798 104.591C15.898 104.74 14.977 104.776 14.104 104.403C12.859 103.871 12.58 102.766 12.556 101.589C12.519 99.713 13.176 98.017 14.077 96.403C15.253 94.299 16.977 92.695 18.818 91.197C21.718 88.836 24.864 86.838 28.086 84.952L28.329 84.852C28.827 86.692 29.064 88.509 28.926 90.359ZM54.084 70.98C53.849 72.404 53.555 73.829 53.139 75.209C51.701 79.986 49.854 84.615 47.857 89.182C47.488 90.027 46.951 90.798 46.484 91.599C46.4046 91.7221 46.3094 91.8344 46.201 91.933C45.623 92.504 45.075 92.474 44.783 91.727C44.443 90.859 44.234 89.93 44.054 89.011C43.933 88.394 43.962 87.746 43.924 87.114C43.963 82.62 45.334 78.536 47.66 74.734C48.619 73.166 49.663 71.672 51.258 70.68C51.7542 70.3715 52.291 70.1339 52.853 69.974C53.703 69.735 54.225 70.128 54.084 70.98ZM71.248 92.848L77.417 85.645C77.674 88.32 73.127 93.66 71.248 92.848ZM90.951 88.001C90.515 88.251 90.04 88.431 89.593 88.662C89.184 88.874 89.049 88.66 89.037 88.308C89.031 88.0643 89.0623 87.8212 89.13 87.587C89.963 84.649 91.496 82.141 93.777 80.101L93.937 80.019C95.022 83.054 93.768 86.387 90.951 88.001Z" fill="black"/>
</svg>
