<svg width="128" height="128" viewBox="0 0 128 128" fill="none" xmlns="http://www.w3.org/2000/svg">
<path d="M16.0455 27.3239V23.4545H17.0511V30H16.0455V28.892H15.9773C15.8239 29.2244 15.5852 29.5071 15.2614 29.7401C14.9375 29.9702 14.5284 30.0852 14.0341 30.0852C13.625 30.0852 13.2614 29.9957 12.9432 29.8168C12.625 29.6349 12.375 29.3622 12.1932 28.9986C12.0114 28.6321 11.9205 28.1705 11.9205 27.6136V23.4545H12.9261V27.5455C12.9261 28.0227 13.0597 28.4034 13.3267 28.6875C13.5966 28.9716 13.9403 29.1136 14.358 29.1136C14.608 29.1136 14.8622 29.0497 15.1207 28.9219C15.3821 28.794 15.6009 28.598 15.777 28.3338C15.956 28.0696 16.0455 27.733 16.0455 27.3239ZM19.6431 23.4545L21.2113 26.1307L22.7795 23.4545H23.9386L21.8249 26.7273L23.9386 30H22.7795L21.2113 27.4602L19.6431 30H18.484L20.5636 26.7273L18.484 23.4545H19.6431ZM28.4588 20.8636L25.6463 31.3125H24.7259L27.5384 20.8636H28.4588ZM33.7759 27.3239V23.4545H34.7816V30H33.7759V28.892H33.7077C33.5543 29.2244 33.3157 29.5071 32.9918 29.7401C32.668 29.9702 32.2589 30.0852 31.7646 30.0852C31.3555 30.0852 30.9918 29.9957 30.6737 29.8168C30.3555 29.6349 30.1055 29.3622 29.9237 28.9986C29.7418 28.6321 29.6509 28.1705 29.6509 27.6136V23.4545H30.6566V27.5455C30.6566 28.0227 30.7901 28.4034 31.0572 28.6875C31.3271 28.9716 31.6708 29.1136 32.0884 29.1136C32.3384 29.1136 32.5927 29.0497 32.8512 28.9219C33.1126 28.794 33.3313 28.598 33.5075 28.3338C33.6864 28.0696 33.7759 27.733 33.7759 27.3239ZM36.6236 30V23.4545H37.6293V30H36.6236ZM37.1349 22.3636C36.9389 22.3636 36.7699 22.2969 36.6278 22.1634C36.4886 22.0298 36.419 21.8693 36.419 21.6818C36.419 21.4943 36.4886 21.3338 36.6278 21.2003C36.7699 21.0668 36.9389 21 37.1349 21C37.331 21 37.4986 21.0668 37.6378 21.2003C37.7798 21.3338 37.8509 21.4943 37.8509 21.6818C37.8509 21.8693 37.7798 22.0298 37.6378 22.1634C37.4986 22.2969 37.331 22.3636 37.1349 22.3636Z" fill="black"/>
</svg>
