<svg width="128" height="128" viewBox="0 0 128 128" fill="none" xmlns="http://www.w3.org/2000/svg">
<path d="M54.7554 99.2898L55.419 97.3125H53.3333H10.6667C5.59649 97.3125 1.5 93.2293 1.5 88.2188V17.5938C1.5 12.5832 5.59649 8.5 10.6667 8.5H117.333C122.404 8.5 126.5 12.5832 126.5 17.5938V88.2188C126.5 93.2293 122.404 97.3125 117.333 97.3125H74.6667H72.581L73.2446 99.2898L76.8002 109.884L77.1434 110.906H78.2222H94.2222C96.348 110.906 98.0556 112.617 98.0556 114.703C98.0556 116.789 96.348 118.5 94.2222 118.5H33.7778C31.6632 118.5 29.9444 116.778 29.9444 114.703C29.9444 112.628 31.6632 110.906 33.7778 110.906H49.7778H50.8566L51.1998 109.884L54.7554 99.2898ZM113.778 72.0625H115.278V70.5625V21.125V19.625H113.778H14.2222H12.7222V21.125V70.5625V72.0625H14.2222H113.778Z" stroke="black" stroke-width="3"/>
</svg>
