<svg width="128" height="128" viewBox="0 0 128 128" fill="none" xmlns="http://www.w3.org/2000/svg">
<path d="M1 1H126.184V126.185H1V1Z" fill="black"/>
<path d="M115.938 96.328C115.021 90.617 111.297 85.82 100.266 81.347C96.4344 79.586 92.1624 78.325 90.8894 75.421C90.4374 73.731 90.3774 72.779 90.6634 71.756C91.4844 68.436 95.4474 67.401 98.5884 68.353C100.611 69.031 102.526 70.59 103.681 73.077C109.083 69.579 109.072 69.602 112.844 67.198C111.463 65.057 110.726 64.069 109.822 63.153C106.573 59.524 102.146 57.655 95.0664 57.798L91.3784 58.275C87.8444 59.168 84.4764 61.023 82.5014 63.51C76.5754 70.234 78.2654 82.002 85.4764 86.845C92.5804 92.177 103.016 93.39 104.349 98.376C105.646 104.48 99.8634 106.456 94.1154 105.754C89.8794 104.873 87.5234 102.72 84.9764 98.805C80.2884 101.518 80.2884 101.518 75.4684 104.29C76.6114 106.789 77.8124 107.92 79.7284 110.085C88.7964 119.283 111.488 118.831 115.558 104.909C115.723 104.431 116.819 101.243 115.938 96.328V96.328ZM69.0534 58.535H57.3444L57.2964 88.807C57.2964 95.245 57.6294 101.147 56.5824 102.956C54.8694 106.514 50.4304 106.073 48.4074 105.383C46.3484 104.371 45.3014 102.932 44.0884 100.898C43.7554 100.314 43.5054 99.862 43.4214 99.827L33.9014 105.657C35.4844 108.906 37.8164 111.726 40.8034 113.558C45.2654 116.236 51.2624 117.057 57.5344 115.617C61.6164 114.428 65.1384 111.965 66.9824 108.216C69.6484 103.301 69.0764 97.352 69.0524 90.772C69.1124 80.037 69.0534 69.304 69.0534 58.535V58.535Z" fill="white"/>
</svg>
