<svg width="160" height="44" viewBox="0 0 160 44" fill="none" xmlns="http://www.w3.org/2000/svg">
<rect width="160" height="44" fill="white"/>
<path d="M51.9928 20.6667C52.0586 20.9185 52.0914 21.2333 52.0914 21.6111C52.0914 21.9731 52.0586 22.288 51.9928 22.5556C52.0586 22.8074 52.0914 23.1222 52.0914 23.5C52.0914 23.862 52.0586 24.1769 51.9928 24.4444H51.006C51.0718 24.6963 51.1047 25.0111 51.1047 25.3889C51.1047 25.7509 51.0718 26.0657 51.006 26.3333H50.0192C50.085 26.5852 50.1179 26.9 50.1179 27.2778C50.1179 27.6398 50.085 27.9546 50.0192 28.2222H44.0987C44.0329 27.9546 44 27.6398 44 27.2778C44 26.9 44.0329 26.5852 44.0987 26.3333C44.0329 26.0657 44 25.7509 44 25.3889C44 25.0111 44.0329 24.6963 44.0987 24.4444C44.0329 24.1769 44 23.862 44 23.5C44 23.1222 44.0329 22.8074 44.0987 22.5556C44.0329 22.288 44 21.9731 44 21.6111C44 21.2333 44.0329 20.9185 44.0987 20.6667C44.0329 20.3991 44 20.0843 44 19.7222C44 19.3444 44.0329 19.0296 44.0987 18.7778C44.0329 18.5102 44 18.1954 44 17.8333C44 17.4556 44.0329 17.1407 44.0987 16.8889C44.0329 16.6213 44 16.3065 44 15.9444C44 15.5667 44.0329 15.2519 44.0987 15H50.0192C50.085 15.2519 50.1179 15.5667 50.1179 15.9444C50.1179 16.3065 50.085 16.6213 50.0192 16.8889H51.006C51.0718 17.1407 51.1047 17.4556 51.1047 17.8333C51.1047 18.1954 51.0718 18.5102 51.006 18.7778H51.9928C52.0586 19.0296 52.0914 19.3444 52.0914 19.7222C52.0914 20.0843 52.0586 20.3991 51.9928 20.6667ZM50.0192 24.4444C49.9535 24.1769 49.9206 23.862 49.9206 23.5C49.9206 23.1222 49.9535 22.8074 50.0192 22.5556C49.9535 22.288 49.9206 21.9731 49.9206 21.6111C49.9206 21.2333 49.9535 20.9185 50.0192 20.6667C49.9535 20.3991 49.9206 20.0843 49.9206 19.7222C49.9206 19.3444 49.9535 19.0296 50.0192 18.7778H49.0325C48.9667 18.5102 48.9338 18.1954 48.9338 17.8333C48.9338 17.4556 48.9667 17.1407 49.0325 16.8889H46.0722C46.138 17.1407 46.1709 17.4556 46.1709 17.8333C46.1709 18.1954 46.138 18.5102 46.0722 18.7778C46.138 19.0296 46.1709 19.3444 46.1709 19.7222C46.1709 20.0843 46.138 20.3991 46.0722 20.6667C46.138 20.9185 46.1709 21.2333 46.1709 21.6111C46.1709 21.9731 46.138 22.288 46.0722 22.5556C46.138 22.8074 46.1709 23.1222 46.1709 23.5C46.1709 23.862 46.138 24.1769 46.0722 24.4444C46.138 24.6963 46.1709 25.0111 46.1709 25.3889C46.1709 25.7509 46.138 26.0657 46.0722 26.3333H49.0325C48.9667 26.0657 48.9338 25.7509 48.9338 25.3889C48.9338 25.0111 48.9667 24.6963 49.0325 24.4444H50.0192Z" fill="black"/>
<path d="M56.9362 16.8889C56.8704 16.6213 56.8375 16.3065 56.8375 15.9444C56.8375 15.5667 56.8704 15.2519 56.9362 15H58.9097C58.9755 15.2519 59.0084 15.5667 59.0084 15.9444C59.0084 16.3065 58.9755 16.6213 58.9097 16.8889H56.9362ZM60.8833 26.3333C60.9491 26.5852 60.9819 26.9 60.9819 27.2778C60.9819 27.6398 60.9491 27.9546 60.8833 28.2222H54.9627C54.8969 27.9546 54.864 27.6398 54.864 27.2778C54.864 26.9 54.8969 26.5852 54.9627 26.3333H56.9362C56.8704 26.0657 56.8375 25.7509 56.8375 25.3889C56.8375 25.0111 56.8704 24.6963 56.9362 24.4444C56.8704 24.1769 56.8375 23.862 56.8375 23.5C56.8375 23.1222 56.8704 22.8074 56.9362 22.5556C56.8704 22.288 56.8375 21.9731 56.8375 21.6111C56.8375 21.2333 56.8704 20.9185 56.9362 20.6667H55.4561C55.3903 20.3991 55.3574 20.0843 55.3574 19.7222C55.3574 19.3444 55.3903 19.0296 55.4561 18.7778H58.9097C58.9755 19.0296 59.0084 19.3444 59.0084 19.7222C59.0084 20.0843 58.9755 20.3991 58.9097 20.6667C58.9755 20.9185 59.0084 21.2333 59.0084 21.6111C59.0084 21.9731 58.9755 22.288 58.9097 22.5556C58.9755 22.8074 59.0084 23.1222 59.0084 23.5C59.0084 23.862 58.9755 24.1769 58.9097 24.4444C58.9755 24.6963 59.0084 25.0111 59.0084 25.3889C59.0084 25.7509 58.9755 26.0657 58.9097 26.3333H60.8833Z" fill="black"/>
<path d="M65.6787 19.7222C65.6787 20.0843 65.6458 20.3991 65.58 20.6667H66.5668C66.6326 20.9185 66.6655 21.2333 66.6655 21.6111C66.6655 21.9731 66.6326 22.288 66.5668 22.5556H65.8267C65.8925 22.8074 65.9254 23.1222 65.9254 23.5C65.9254 23.862 65.8925 24.1769 65.8267 24.4444C65.8925 24.6963 65.9254 25.0111 65.9254 25.3889C65.9254 25.7509 65.8925 26.0657 65.8267 26.3333C65.8925 26.5852 65.9254 26.9 65.9254 27.2778C65.9254 27.6398 65.8925 27.9546 65.8267 28.2222H63.8532C63.7874 27.9546 63.7545 27.6398 63.7545 27.2778C63.7545 26.9 63.7874 26.5852 63.8532 26.3333C63.7874 26.0657 63.7545 25.7509 63.7545 25.3889C63.7545 25.0111 63.7874 24.6963 63.8532 24.4444C63.7874 24.1769 63.7545 23.862 63.7545 23.5C63.7545 23.1222 63.7874 22.8074 63.8532 22.5556C63.7874 22.288 63.7545 21.9731 63.7545 21.6111C63.7545 21.2333 63.7874 20.9185 63.8532 20.6667C63.7874 20.3991 63.7545 20.0843 63.7545 19.7222C63.7545 19.3444 63.7874 19.0296 63.8532 18.7778H65.58C65.6458 19.0296 65.6787 19.3444 65.6787 19.7222ZM71.7473 22.5556C71.8131 22.8074 71.846 23.1222 71.846 23.5C71.846 23.862 71.8131 24.1769 71.7473 24.4444C71.8131 24.6963 71.846 25.0111 71.846 25.3889C71.846 25.7509 71.8131 26.0657 71.7473 26.3333C71.8131 26.5852 71.846 26.9 71.846 27.2778C71.846 27.6398 71.8131 27.9546 71.7473 28.2222H69.7738C69.708 27.9546 69.6751 27.6398 69.6751 27.2778C69.6751 26.9 69.708 26.5852 69.7738 26.3333C69.708 26.0657 69.6751 25.7509 69.6751 25.3889C69.6751 25.0111 69.708 24.6963 69.7738 24.4444C69.708 24.1769 69.6751 23.862 69.6751 23.5C69.6751 23.1222 69.708 22.8074 69.7738 22.5556C69.708 22.288 69.6751 21.9731 69.6751 21.6111C69.6751 21.2333 69.708 20.9185 69.7738 20.6667H66.5668C66.501 20.3991 66.4681 20.0843 66.4681 19.7222C66.4681 19.3444 66.501 19.0296 66.5668 18.7778H70.5138C70.5796 19.0296 70.6125 19.3444 70.6125 19.7222C70.6125 20.0843 70.5796 20.3991 70.5138 20.6667H71.7473C71.8131 20.9185 71.846 21.2333 71.846 21.6111C71.846 21.9731 71.8131 22.288 71.7473 22.5556Z" fill="black"/>
<path d="M81.7232 23.5C81.7232 23.862 81.6903 24.1769 81.6245 24.4444H80.8845C80.9503 24.6963 80.9832 25.0111 80.9832 25.3889C80.9832 25.7509 80.9503 26.0657 80.8845 26.3333H79.651C79.7168 26.5852 79.7497 26.9 79.7497 27.2778C79.7497 27.6398 79.7168 27.9546 79.651 28.2222H75.704C75.6382 27.9546 75.6053 27.6398 75.6053 27.2778C75.6053 26.9 75.6382 26.5852 75.704 26.3333H74.4705C74.4047 26.0657 74.3718 25.7509 74.3718 25.3889C74.3718 25.0111 74.4047 24.6963 74.4705 24.4444H73.7304C73.6647 24.1769 73.6318 23.862 73.6318 23.5C73.6318 23.1222 73.6647 22.8074 73.7304 22.5556H74.4705C74.4047 22.288 74.3718 21.9731 74.3718 21.6111C74.3718 21.2333 74.4047 20.9185 74.4705 20.6667H75.704C75.6382 20.3991 75.6053 20.0843 75.6053 19.7222C75.6053 19.3444 75.6382 19.0296 75.704 18.7778H79.651C79.7168 19.0296 79.7497 19.3444 79.7497 19.7222C79.7497 20.0843 79.7168 20.3991 79.651 20.6667H80.8845C80.9503 20.9185 80.9832 21.2333 80.9832 21.6111C80.9832 21.9731 80.9503 22.288 80.8845 22.5556H81.6245C81.6903 22.8074 81.7232 23.1222 81.7232 23.5ZM79.651 24.4444C79.5852 24.1769 79.5523 23.862 79.5523 23.5C79.5523 23.1222 79.5852 22.8074 79.651 22.5556H78.9109C78.8452 22.288 78.8123 21.9731 78.8123 21.6111C78.8123 21.2333 78.8452 20.9185 78.9109 20.6667H76.444C76.5098 20.9185 76.5427 21.2333 76.5427 21.6111C76.5427 21.9731 76.5098 22.288 76.444 22.5556H75.704C75.7698 22.8074 75.8026 23.1222 75.8026 23.5C75.8026 23.862 75.7698 24.1769 75.704 24.4444H76.444C76.5098 24.6963 76.5427 25.0111 76.5427 25.3889C76.5427 25.7509 76.5098 26.0657 76.444 26.3333H78.9109C78.8452 26.0657 78.8123 25.7509 78.8123 25.3889C78.8123 25.0111 78.8452 24.6963 78.9109 24.4444H79.651Z" fill="black"/>
<path d="M91.5018 20.6667C91.5676 20.9185 91.6005 21.2333 91.6005 21.6111C91.6005 21.9731 91.5676 22.288 91.5018 22.5556C91.5676 22.8074 91.6005 23.1222 91.6005 23.5C91.6005 23.862 91.5676 24.1769 91.5018 24.4444C91.5676 24.6963 91.6005 25.0111 91.6005 25.3889C91.6005 25.7509 91.5676 26.0657 91.5018 26.3333C91.5676 26.5852 91.6005 26.9 91.6005 27.2778C91.6005 27.6398 91.5676 27.9546 91.5018 28.2222H90.515C90.5808 28.4741 90.6137 28.7889 90.6137 29.1667C90.6137 29.5287 90.5808 29.8435 90.515 30.1111H89.5283C89.5941 30.363 89.627 30.6778 89.627 31.0556C89.627 31.4176 89.5941 31.7324 89.5283 32H85.5812C85.5154 31.7324 85.4826 31.4176 85.4826 31.0556C85.4826 30.6778 85.5154 30.363 85.5812 30.1111H88.5415C88.4757 29.8435 88.4428 29.5287 88.4428 29.1667C88.4428 28.7889 88.4757 28.4741 88.5415 28.2222H89.5283C89.4625 27.9546 89.4296 27.6398 89.4296 27.2778C89.4296 26.9 89.4625 26.5852 89.5283 26.3333H88.5415C88.4757 26.0657 88.4428 25.7509 88.4428 25.3889C88.4428 25.0111 88.4757 24.6963 88.5415 24.4444H89.5283C89.4625 24.1769 89.4296 23.862 89.4296 23.5C89.4296 23.1222 89.4625 22.8074 89.5283 22.5556C89.4625 22.288 89.4296 21.9731 89.4296 21.6111C89.4296 21.2333 89.4625 20.9185 89.5283 20.6667H86.3213C86.3871 20.9185 86.42 21.2333 86.42 21.6111C86.42 21.9731 86.3871 22.288 86.3213 22.5556H85.5812C85.647 22.8074 85.6799 23.1222 85.6799 23.5C85.6799 23.862 85.647 24.1769 85.5812 24.4444H86.3213C86.3871 24.6963 86.42 25.0111 86.42 25.3889C86.42 25.7509 86.3871 26.0657 86.3213 26.3333H88.5415C88.6073 26.5852 88.6402 26.9 88.6402 27.2778C88.6402 27.6398 88.6073 27.9546 88.5415 28.2222H85.5812C85.5154 27.9546 85.4826 27.6398 85.4826 27.2778C85.4826 26.9 85.5154 26.5852 85.5812 26.3333H84.3478C84.282 26.0657 84.2491 25.7509 84.2491 25.3889C84.2491 25.0111 84.282 24.6963 84.3478 24.4444H83.6077C83.5419 24.1769 83.509 23.862 83.509 23.5C83.509 23.1222 83.5419 22.8074 83.6077 22.5556H84.3478C84.282 22.288 84.2491 21.9731 84.2491 21.6111C84.2491 21.2333 84.282 20.9185 84.3478 20.6667H85.5812C85.5154 20.3991 85.4826 20.0843 85.4826 19.7222C85.4826 19.3444 85.5154 19.0296 85.5812 18.7778H91.5018C91.5676 19.0296 91.6005 19.3444 91.6005 19.7222C91.6005 20.0843 91.5676 20.3991 91.5018 20.6667Z" fill="black"/>
<path d="M101.478 23.5C101.478 23.862 101.445 24.1769 101.379 24.4444H100.639C100.705 24.6963 100.738 25.0111 100.738 25.3889C100.738 25.7509 100.705 26.0657 100.639 26.3333H99.4055C99.4713 26.5852 99.5042 26.9 99.5042 27.2778C99.5042 27.6398 99.4713 27.9546 99.4055 28.2222H95.4585C95.3927 27.9546 95.3598 27.6398 95.3598 27.2778C95.3598 26.9 95.3927 26.5852 95.4585 26.3333H94.225C94.1593 26.0657 94.1264 25.7509 94.1264 25.3889C94.1264 25.0111 94.1593 24.6963 94.225 24.4444H93.485C93.4192 24.1769 93.3863 23.862 93.3863 23.5C93.3863 23.1222 93.4192 22.8074 93.485 22.5556H94.225C94.1593 22.288 94.1264 21.9731 94.1264 21.6111C94.1264 21.2333 94.1593 20.9185 94.225 20.6667H95.4585C95.3927 20.3991 95.3598 20.0843 95.3598 19.7222C95.3598 19.3444 95.3927 19.0296 95.4585 18.7778H99.4055C99.4713 19.0296 99.5042 19.3444 99.5042 19.7222C99.5042 20.0843 99.4713 20.3991 99.4055 20.6667H100.639C100.705 20.9185 100.738 21.2333 100.738 21.6111C100.738 21.9731 100.705 22.288 100.639 22.5556H101.379C101.445 22.8074 101.478 23.1222 101.478 23.5ZM99.4055 24.4444C99.3398 24.1769 99.3069 23.862 99.3069 23.5C99.3069 23.1222 99.3398 22.8074 99.4055 22.5556H98.6655C98.5997 22.288 98.5668 21.9731 98.5668 21.6111C98.5668 21.2333 98.5997 20.9185 98.6655 20.6667H96.1986C96.2643 20.9185 96.2972 21.2333 96.2972 21.6111C96.2972 21.9731 96.2643 22.288 96.1986 22.5556H95.4585C95.5243 22.8074 95.5572 23.1222 95.5572 23.5C95.5572 23.862 95.5243 24.1769 95.4585 24.4444H96.1986C96.2643 24.6963 96.2972 25.0111 96.2972 25.3889C96.2972 25.7509 96.2643 26.0657 96.1986 26.3333H98.6655C98.5997 26.0657 98.5668 25.7509 98.5668 25.3889C98.5668 25.0111 98.5997 24.6963 98.6655 24.4444H99.4055Z" fill="black"/>
<path d="M110.27 26.3333C110.335 26.5852 110.368 26.9 110.368 27.2778C110.368 27.6398 110.335 27.9546 110.27 28.2222H106.323C106.257 27.9546 106.224 27.6398 106.224 27.2778C106.224 26.9 106.257 26.5852 106.323 26.3333H105.336C105.27 26.0657 105.237 25.7509 105.237 25.3889C105.237 25.0111 105.27 24.6963 105.336 24.4444C105.27 24.1769 105.237 23.862 105.237 23.5C105.237 23.1222 105.27 22.8074 105.336 22.5556C105.27 22.288 105.237 21.9731 105.237 21.6111C105.237 21.2333 105.27 20.9185 105.336 20.6667H103.362C103.296 20.3991 103.264 20.0843 103.264 19.7222C103.264 19.3444 103.296 19.0296 103.362 18.7778H105.336C105.27 18.5102 105.237 18.1954 105.237 17.8333C105.237 17.4556 105.27 17.1407 105.336 16.8889C105.27 16.6213 105.237 16.3065 105.237 15.9444C105.237 15.5667 105.27 15.2519 105.336 15H107.309C107.375 15.2519 107.408 15.5667 107.408 15.9444C107.408 16.3065 107.375 16.6213 107.309 16.8889C107.375 17.1407 107.408 17.4556 107.408 17.8333C107.408 18.1954 107.375 18.5102 107.309 18.7778H110.27C110.335 19.0296 110.368 19.3444 110.368 19.7222C110.368 20.0843 110.335 20.3991 110.27 20.6667H107.309C107.375 20.9185 107.408 21.2333 107.408 21.6111C107.408 21.9731 107.375 22.288 107.309 22.5556C107.375 22.8074 107.408 23.1222 107.408 23.5C107.408 23.862 107.375 24.1769 107.309 24.4444C107.375 24.6963 107.408 25.0111 107.408 25.3889C107.408 25.7509 107.375 26.0657 107.309 26.3333H110.27Z" fill="black"/>
<path d="M121.134 24.4444C121.199 24.6963 121.232 25.0111 121.232 25.3889C121.232 25.7509 121.199 26.0657 121.134 26.3333H120.147C120.213 26.5852 120.245 26.9 120.245 27.2778C120.245 27.6398 120.213 27.9546 120.147 28.2222H115.213C115.147 27.9546 115.114 27.6398 115.114 27.2778C115.114 26.9 115.147 26.5852 115.213 26.3333H114.226C114.16 26.0657 114.128 25.7509 114.128 25.3889C114.128 25.0111 114.16 24.6963 114.226 24.4444H113.239C113.174 24.1769 113.141 23.862 113.141 23.5C113.141 23.1222 113.174 22.8074 113.239 22.5556H114.226C114.16 22.288 114.128 21.9731 114.128 21.6111C114.128 21.2333 114.16 20.9185 114.226 20.6667H115.213C115.147 20.3991 115.114 20.0843 115.114 19.7222C115.114 19.3444 115.147 19.0296 115.213 18.7778H120.147C120.213 19.0296 120.245 19.3444 120.245 19.7222C120.245 20.0843 120.213 20.3991 120.147 20.6667H121.134C121.199 20.9185 121.232 21.2333 121.232 21.6111C121.232 21.9731 121.199 22.288 121.134 22.5556H119.16C119.094 22.288 119.061 21.9731 119.061 21.6111C119.061 21.2333 119.094 20.9185 119.16 20.6667H116.2C116.266 20.9185 116.298 21.2333 116.298 21.6111C116.298 21.9731 116.266 22.288 116.2 22.5556H115.213C115.279 22.8074 115.312 23.1222 115.312 23.5C115.312 23.862 115.279 24.1769 115.213 24.4444H116.2C116.266 24.6963 116.298 25.0111 116.298 25.3889C116.298 25.7509 116.266 26.0657 116.2 26.3333H119.16C119.094 26.0657 119.061 25.7509 119.061 25.3889C119.061 25.0111 119.094 24.6963 119.16 24.4444H121.134Z" fill="black"/>
<path d="M125.189 19.7222C125.189 20.0843 125.156 20.3991 125.09 20.6667H125.83C125.896 20.9185 125.929 21.2333 125.929 21.6111C125.929 21.9731 125.896 22.288 125.83 22.5556H125.09C125.156 22.8074 125.189 23.1222 125.189 23.5C125.189 23.862 125.156 24.1769 125.09 24.4444C125.156 24.6963 125.189 25.0111 125.189 25.3889C125.189 25.7509 125.156 26.0657 125.09 26.3333C125.156 26.5852 125.189 26.9 125.189 27.2778C125.189 27.6398 125.156 27.9546 125.09 28.2222H123.117C123.051 27.9546 123.018 27.6398 123.018 27.2778C123.018 26.9 123.051 26.5852 123.117 26.3333C123.051 26.0657 123.018 25.7509 123.018 25.3889C123.018 25.0111 123.051 24.6963 123.117 24.4444C123.051 24.1769 123.018 23.862 123.018 23.5C123.018 23.1222 123.051 22.8074 123.117 22.5556C123.051 22.288 123.018 21.9731 123.018 21.6111C123.018 21.2333 123.051 20.9185 123.117 20.6667C123.051 20.3991 123.018 20.0843 123.018 19.7222C123.018 19.3444 123.051 19.0296 123.117 18.7778C123.051 18.5102 123.018 18.1954 123.018 17.8333C123.018 17.4556 123.051 17.1407 123.117 16.8889C123.051 16.6213 123.018 16.3065 123.018 15.9444C123.018 15.5667 123.051 15.2519 123.117 15H125.09C125.156 15.2519 125.189 15.5667 125.189 15.9444C125.189 16.3065 125.156 16.6213 125.09 16.8889C125.156 17.1407 125.189 17.4556 125.189 17.8333C125.189 18.1954 125.156 18.5102 125.09 18.7778C125.156 19.0296 125.189 19.3444 125.189 19.7222ZM131.011 22.5556C131.077 22.8074 131.11 23.1222 131.11 23.5C131.11 23.862 131.077 24.1769 131.011 24.4444C131.077 24.6963 131.11 25.0111 131.11 25.3889C131.11 25.7509 131.077 26.0657 131.011 26.3333C131.077 26.5852 131.11 26.9 131.11 27.2778C131.11 27.6398 131.077 27.9546 131.011 28.2222H129.037C128.972 27.9546 128.939 27.6398 128.939 27.2778C128.939 26.9 128.972 26.5852 129.037 26.3333C128.972 26.0657 128.939 25.7509 128.939 25.3889C128.939 25.0111 128.972 24.6963 129.037 24.4444C128.972 24.1769 128.939 23.862 128.939 23.5C128.939 23.1222 128.972 22.8074 129.037 22.5556C128.972 22.288 128.939 21.9731 128.939 21.6111C128.939 21.2333 128.972 20.9185 129.037 20.6667H125.83C125.765 20.3991 125.732 20.0843 125.732 19.7222C125.732 19.3444 125.765 19.0296 125.83 18.7778H129.777C129.843 19.0296 129.876 19.3444 129.876 19.7222C129.876 20.0843 129.843 20.3991 129.777 20.6667H131.011C131.077 20.9185 131.11 21.2333 131.11 21.6111C131.11 21.9731 131.077 22.288 131.011 22.5556Z" fill="black"/>
<path d="M135.954 16.8889C135.888 16.6213 135.856 16.3065 135.856 15.9444C135.856 15.5667 135.888 15.2519 135.954 15H137.928C137.994 15.2519 138.026 15.5667 138.026 15.9444C138.026 16.3065 137.994 16.6213 137.928 16.8889H135.954ZM139.901 26.3333C139.967 26.5852 140 26.9 140 27.2778C140 27.6398 139.967 27.9546 139.901 28.2222H133.981C133.915 27.9546 133.882 27.6398 133.882 27.2778C133.882 26.9 133.915 26.5852 133.981 26.3333H135.954C135.888 26.0657 135.856 25.7509 135.856 25.3889C135.856 25.0111 135.888 24.6963 135.954 24.4444C135.888 24.1769 135.856 23.862 135.856 23.5C135.856 23.1222 135.888 22.8074 135.954 22.5556C135.888 22.288 135.856 21.9731 135.856 21.6111C135.856 21.2333 135.888 20.9185 135.954 20.6667H134.474C134.408 20.3991 134.375 20.0843 134.375 19.7222C134.375 19.3444 134.408 19.0296 134.474 18.7778H137.928C137.994 19.0296 138.026 19.3444 138.026 19.7222C138.026 20.0843 137.994 20.3991 137.928 20.6667C137.994 20.9185 138.026 21.2333 138.026 21.6111C138.026 21.9731 137.994 22.288 137.928 22.5556C137.994 22.8074 138.026 23.1222 138.026 23.5C138.026 23.862 137.994 24.1769 137.928 24.4444C137.994 24.6963 138.026 25.0111 138.026 25.3889C138.026 25.7509 137.994 26.0657 137.928 26.3333H139.901Z" fill="black"/>
<path d="M20.0273 27.9864C20.0273 33.1813 23.0835 34.1568 23.0835 34.1568L32 20.9222C28.8608 21.209 28.9118 19.6756 26.3288 15.3122C20.3877 5.27534 17.5067 12.7697 14.3276 11.5722C11.1485 10.3748 9.31475 14.0656 9.31475 14.0656C-2.41925 17.2271 1.1228 20.9222 3.01325 23.4155C3.76943 24.4129 4.27355 25.9089 4.27355 24.6622L4.90369 22.1689L6.79414 24.0389L7.4243 21.5456L9.31475 23.4155L9.94489 20.9222L11.8354 22.7922L12.4655 20.2989L14.3559 22.1689C14.3559 22.1689 19.2509 21.1373 16.1733 24.7694L13.8581 23.4473L13.9016 26.0173L11.5864 24.6946L10.9998 27.115L8.68461 26.5659V26.5322C6.79414 30.2722 10.5751 29.0255 14.3276 27.3631C18.0801 25.7013 20.0273 27.9864 20.0273 27.9864Z" fill="#FBC5C5" stroke="black" stroke-width="1.5" stroke-miterlimit="1" stroke-linecap="round" stroke-linejoin="round"/>
<path d="M14.8523 18.0266C15.4958 18.0266 16.0175 17.5049 16.0175 16.8614C16.0175 16.2179 15.4958 15.6963 14.8523 15.6963C14.2089 15.6963 13.6872 16.2179 13.6872 16.8614C13.6872 17.5049 14.2089 18.0266 14.8523 18.0266Z" fill="black" stroke="black" stroke-miterlimit="1" stroke-linecap="round" stroke-linejoin="round"/>
</svg>
