<svg width="160" height="44" viewBox="0 0 160 44" fill="none" xmlns="http://www.w3.org/2000/svg">
<rect width="160" height="44" fill="white"/>
<path d="M47.5883 23.3361C47.5883 28.0846 50.1348 30.5546 54.4429 30.5546C57.4873 30.5546 59.8998 28.5824 59.8998 26.5911C59.8998 25.8252 59.1339 25.3849 58.3681 25.3849C56.8554 25.3849 56.9129 28.0271 54.4429 28.0271C51.724 28.0271 50.7284 25.8444 50.7284 23.3361C50.7284 20.3492 52.3559 18.6451 54.328 18.6451C57.2001 18.6451 56.664 21.1342 58.4829 21.1342C59.4211 21.1342 59.8998 20.5981 59.8998 19.7173C59.8998 18.377 57.9277 16.1177 54.328 16.1177C49.8859 16.1177 47.5883 19.4493 47.5883 23.3361Z" fill="black"/>
<path d="M63.8763 25.2125C63.8763 23.3936 64.623 22.0341 66.2505 22.0341C67.878 22.0341 68.6247 23.3936 68.6247 25.2125C68.6247 26.9166 67.9163 28.4101 66.2505 28.4101C64.5847 28.4101 63.8763 26.9166 63.8763 25.2125ZM61.0808 25.2125C61.0808 28.008 62.4402 30.478 66.2505 30.478C70.0608 30.478 71.4202 28.008 71.4202 25.2125C71.4202 22.2639 69.6204 19.9662 66.2505 19.9662C62.8806 19.9662 61.0808 22.2639 61.0808 25.2125Z" fill="black"/>
<path d="M74.1066 29.0802C74.1066 29.9993 74.6619 30.478 75.5044 30.478C76.3468 30.478 76.9021 29.9993 76.9021 29.0802V22.0533H77.7637C78.587 22.0533 79.0274 21.8044 79.0274 21.1342C79.0274 20.4641 78.587 20.2151 77.7637 20.2151H76.9021V19.0089C76.9021 18.6259 77.1127 18.3579 77.5148 18.3579C77.7254 18.3579 77.9169 18.4153 78.1275 18.4153C78.6253 18.4153 79.0274 17.9749 79.0274 17.458C79.0274 16.5198 78.2041 16.1177 77.1893 16.1177C75.5618 16.1177 74.1066 17.0559 74.1066 18.8174V20.2151H73.4748C72.6898 20.2151 72.3643 20.5215 72.3643 21.1342C72.3643 21.7469 72.6898 22.0533 73.4748 22.0533H74.1066V29.0802Z" fill="black"/>
<path d="M81.1933 29.0802C81.1933 29.9993 81.7486 30.478 82.591 30.478C83.4335 30.478 83.9888 29.9993 83.9888 29.0802V22.0533H84.8504C85.6737 22.0533 86.1141 21.8044 86.1141 21.1342C86.1141 20.4641 85.6737 20.2151 84.8504 20.2151H83.9888V19.0089C83.9888 18.6259 84.1994 18.3579 84.6015 18.3579C84.8121 18.3579 85.0036 18.4153 85.2142 18.4153C85.712 18.4153 86.1141 17.9749 86.1141 17.458C86.1141 16.5198 85.2908 16.1177 84.276 16.1177C82.6485 16.1177 81.1933 17.0559 81.1933 18.8174V20.2151H80.5614C79.7764 20.2151 79.4509 20.5215 79.4509 21.1342C79.4509 21.7469 79.7764 22.0533 80.5614 22.0533H81.1933V29.0802Z" fill="black"/>
<path d="M96.0919 25.7486C97.0302 25.7486 97.3174 25.4997 97.3174 24.5424C97.3174 22.2447 95.4792 19.9662 92.2625 19.9662C88.9501 19.9662 86.9779 22.149 86.9779 25.404C86.9779 27.8357 88.4523 30.478 92.3583 30.478C94.0432 30.478 96.7429 29.6929 96.7429 28.008C96.7429 27.491 96.2643 26.9166 95.5941 26.9166C94.4644 26.9166 94.4644 28.2952 92.3583 28.2952C90.7308 28.2952 89.7734 27.223 89.7734 25.7486H96.0919ZM89.7734 24.1403C90.0798 22.7809 90.9222 21.9192 92.32 21.9192C93.5645 21.9192 94.5219 22.8574 94.6751 24.1403H89.7734Z" fill="black"/>
<path d="M107.816 25.7486C108.754 25.7486 109.041 25.4997 109.041 24.5424C109.041 22.2447 107.203 19.9662 103.986 19.9662C100.674 19.9662 98.7018 22.149 98.7018 25.404C98.7018 27.8357 100.176 30.478 104.082 30.478C105.767 30.478 108.467 29.6929 108.467 28.008C108.467 27.491 107.988 26.9166 107.318 26.9166C106.188 26.9166 106.188 28.2952 104.082 28.2952C102.455 28.2952 101.497 27.223 101.497 25.7486H107.816ZM101.497 24.1403C101.804 22.7809 102.646 21.9192 104.044 21.9192C105.288 21.9192 106.246 22.8574 106.399 24.1403H101.497Z" fill="black"/>
<path d="M116.604 23.3361C116.604 28.0846 119.15 30.5546 123.458 30.5546C126.503 30.5546 128.915 28.5824 128.915 26.5911C128.915 25.8252 128.149 25.3849 127.383 25.3849C125.871 25.3849 125.928 28.0271 123.458 28.0271C120.739 28.0271 119.744 25.8444 119.744 23.3361C119.744 20.3492 121.371 18.6451 123.343 18.6451C126.216 18.6451 125.679 21.1342 127.498 21.1342C128.437 21.1342 128.915 20.5981 128.915 19.7173C128.915 18.377 126.943 16.1177 123.343 16.1177C118.901 16.1177 116.604 19.4493 116.604 23.3361Z" fill="black"/>
<path d="M139.804 22.8383C139.804 20.8279 137.947 19.9662 135.266 19.9662C132.394 19.9662 130.824 21.3831 130.824 22.4936C130.824 23.0681 131.302 23.5659 132.011 23.5659C133.121 23.5659 133.179 22.0341 135.247 22.0341C136.185 22.0341 137.008 22.3788 137.008 23.1829C137.008 23.9871 136.472 24.1403 135.802 24.2169L134.098 24.4084C131.953 24.6573 130.192 25.3083 130.192 27.6251C130.192 29.3866 131.762 30.478 133.351 30.478C134.826 30.478 136.089 30.0567 137.181 28.8505C137.219 29.7121 137.621 30.478 138.827 30.478C139.497 30.478 140.091 30.0376 140.091 29.4057C140.091 28.9654 139.804 28.6973 139.804 27.5293V22.8383ZM137.008 26.6103C137.008 27.6442 136.07 28.6399 134.538 28.6399C133.581 28.6399 132.987 28.1229 132.987 27.491C132.987 26.6486 133.619 26.2848 134.787 26.1124L135.802 25.9593C136.128 25.9018 136.702 25.8061 137.008 25.5189V26.6103Z" fill="black"/>
<path d="M142.223 29.0802C142.223 29.827 142.529 30.478 143.62 30.478C144.712 30.478 145.018 29.827 145.018 29.0802V24.4658C145.018 23.0681 146.167 22.2639 147.143 22.2639C148.35 22.2639 148.905 23.0681 148.905 24.1977V29.0802C148.905 29.827 149.211 30.478 150.303 30.478C151.394 30.478 151.7 29.827 151.7 29.0802V23.6425C151.7 20.8087 149.862 19.9662 148.177 19.9662C146.588 19.9662 145.573 20.6938 144.788 21.7278H144.75V21.364C144.75 20.5215 144.367 19.9662 143.486 19.9662C142.606 19.9662 142.223 20.5215 142.223 21.364V29.0802Z" fill="black"/>
<path d="M18.2994 23.6198C20.6264 23.8373 22.2475 21.5234 22.169 19.3869C22.0482 16.0983 18.8008 13.9387 15.7012 14.2469C11.4624 14.6681 8.7471 18.8975 9.29934 22.9604C10.0056 28.156 15.2268 31.4392 20.244 30.6347C26.3881 29.6495 30.2374 23.4198 29.178 17.4407C27.9196 10.3375 20.687 5.9134 13.7566 7.23191C5.70599 8.76342 0.713341 17.0137 2.29027 24.9066C4.09073 33.9183 13.3466 39.4887 22.1885 37.6497" stroke="url(#paint0_linear_463_112)" stroke-width="3.5" stroke-linecap="round" stroke-linejoin="round"/>
<defs>
<linearGradient id="paint0_linear_463_112" x1="15.6726" y1="42.0923" x2="15.6726" y2="-0.255538" gradientUnits="userSpaceOnUse">
<stop stop-color="#04C2FF"/>
<stop offset="1" stop-color="#3ED206"/>
</linearGradient>
</defs>
</svg>
