<svg width="488" height="54" viewBox="0 0 488 54" fill="none" xmlns="http://www.w3.org/2000/svg">
<path fill-rule="evenodd" clip-rule="evenodd" d="M38.4129 4C38.4129 4 38.0944 11.829 46.3039 11.829C54.5135 11.829 42.8198 50 26.7941 50H26.2058C10.1801 50 -1.51332 11.829 6.69599 11.829C14.9055 11.829 14.587 4 14.587 4H38.4129Z" stroke="black" stroke-width="7" stroke-miterlimit="1.5" stroke-linecap="round" stroke-linejoin="round"/>
<path d="M78.368 38V14.64H84.128V38H78.368ZM83.488 38V33.136H93.344V38H83.488ZM83.488 28.56V23.696H92.672V28.56H83.488ZM83.488 19.504V14.64H93.152V19.504H83.488ZM103.747 45.072C102.872 45.072 101.965 45.04 101.027 44.976C100.109 44.912 99.2772 44.8267 98.5305 44.72V39.856C99.2772 39.9413 100.109 40.016 101.027 40.08C101.944 40.1653 102.787 40.208 103.555 40.208C104.877 40.208 105.955 40.0693 106.787 39.792C107.64 39.5147 108.269 39.088 108.675 38.512C109.08 37.936 109.283 37.2 109.283 36.304V32.72L110.179 30.8C110.136 32.2933 109.848 33.5947 109.315 34.704C108.781 35.792 108.013 36.6347 107.011 37.232C106.029 37.8293 104.835 38.128 103.427 38.128C102.232 38.128 101.155 37.9147 100.195 37.488C99.2345 37.0613 98.4132 36.464 97.7305 35.696C97.0692 34.9067 96.5572 33.9787 96.1945 32.912C95.8318 31.8453 95.6505 30.6827 95.6505 29.424V28.656C95.6505 27.3973 95.8425 26.2347 96.2265 25.168C96.6105 24.08 97.1652 23.1413 97.8905 22.352C98.6158 21.5413 99.4692 20.9227 100.451 20.496C101.453 20.048 102.563 19.824 103.779 19.824C105.187 19.824 106.403 20.144 107.427 20.784C108.451 21.4027 109.251 22.3093 109.827 23.504C110.403 24.6987 110.712 26.1493 110.755 27.856L110.115 28.08V20.336H114.723V35.92C114.723 38.096 114.317 39.856 113.507 41.2C112.696 42.544 111.469 43.5253 109.827 44.144C108.205 44.7627 106.179 45.072 103.747 45.072ZM105.379 33.328C106.083 33.328 106.712 33.168 107.267 32.848C107.843 32.528 108.301 32.0693 108.643 31.472C108.984 30.8533 109.155 30.1173 109.155 29.264V28.496C109.155 27.664 108.973 26.96 108.611 26.384C108.269 25.808 107.811 25.3707 107.235 25.072C106.659 24.7733 106.04 24.624 105.379 24.624C104.611 24.624 103.928 24.8053 103.331 25.168C102.755 25.5307 102.296 26.0427 101.955 26.704C101.635 27.3653 101.475 28.144 101.475 29.04C101.475 29.936 101.635 30.704 101.955 31.344C102.296 31.984 102.755 32.4747 103.331 32.816C103.928 33.1573 104.611 33.328 105.379 33.328ZM119.6 38V20.336H125.424V38H119.6ZM117.36 24.56V20.336H125.424V24.56H117.36ZM122 18.928C120.934 18.928 120.144 18.6613 119.632 18.128C119.142 17.5733 118.896 16.8693 118.896 16.016C118.896 15.1627 119.142 14.4693 119.632 13.936C120.144 13.3813 120.923 13.104 121.968 13.104C123.035 13.104 123.814 13.3813 124.304 13.936C124.795 14.4693 125.04 15.1627 125.04 16.016C125.04 16.8693 124.795 17.5733 124.304 18.128C123.814 18.6613 123.046 18.928 122 18.928ZM129.962 38V14.64H135.786V38H129.962ZM127.978 18.864V14.64H135.786V18.864H127.978ZM154.324 38.64C152.468 38.64 150.879 38.2987 149.556 37.616C148.255 36.9333 147.252 35.952 146.548 34.672C145.865 33.3707 145.524 31.8027 145.524 29.968V28.688H151.412V30.16C151.412 31.0133 151.657 31.7173 152.148 32.272C152.66 32.8053 153.375 33.072 154.292 33.072C155.209 33.072 155.913 32.8053 156.404 32.272C156.916 31.7173 157.172 31.0133 157.172 30.16V19.184H163.124V29.968C163.124 31.8027 162.772 33.3707 162.068 34.672C161.385 35.952 160.393 36.9333 159.092 37.616C157.791 38.2987 156.201 38.64 154.324 38.64ZM148.148 19.824V14.64H163.124V19.824H148.148ZM164.905 38V31.664H171.177V38H164.905ZM189.688 38.64C187.512 38.64 185.677 38.2987 184.184 37.616C182.712 36.9333 181.592 36.0053 180.824 34.832C180.077 33.6373 179.704 32.272 179.704 30.736H185.464C185.464 31.2907 185.613 31.8027 185.912 32.272C186.232 32.72 186.701 33.072 187.32 33.328C187.939 33.584 188.728 33.712 189.688 33.712C190.52 33.712 191.224 33.6053 191.8 33.392C192.397 33.1787 192.845 32.88 193.144 32.496C193.464 32.112 193.624 31.6533 193.624 31.12C193.624 30.4373 193.336 29.9147 192.76 29.552C192.184 29.168 191.213 28.9227 189.848 28.816L188.344 28.688C185.933 28.4747 184.013 27.7173 182.584 26.416C181.155 25.1147 180.44 23.3867 180.44 21.232C180.44 19.696 180.792 18.384 181.496 17.296C182.221 16.208 183.235 15.376 184.536 14.8C185.837 14.224 187.373 13.936 189.144 13.936C191.064 13.936 192.685 14.256 194.008 14.896C195.352 15.536 196.376 16.4427 197.08 17.616C197.784 18.768 198.136 20.112 198.136 21.648H192.376C192.376 21.136 192.248 20.6667 191.992 20.24C191.736 19.8133 191.363 19.4827 190.872 19.248C190.403 18.992 189.827 18.864 189.144 18.864C188.504 18.864 187.96 18.9707 187.512 19.184C187.085 19.376 186.755 19.6533 186.52 20.016C186.307 20.3787 186.2 20.784 186.2 21.232C186.2 21.8293 186.403 22.3413 186.808 22.768C187.213 23.1947 187.917 23.4507 188.92 23.536L190.424 23.664C192.173 23.8133 193.72 24.1973 195.064 24.816C196.408 25.4133 197.464 26.2347 198.232 27.28C199 28.3253 199.384 29.6053 199.384 31.12C199.384 32.6347 198.989 33.9573 198.2 35.088C197.432 36.2187 196.323 37.0933 194.872 37.712C193.443 38.3307 191.715 38.64 189.688 38.64ZM209.118 38L212.254 20.912H218.334L221.918 38H217.502L213.79 21.04H216.478L213.086 38H209.118ZM208.03 38L207.998 33.136H211.518L211.55 38H208.03ZM205.182 38L200.542 20.336H206.238L210.526 38H205.182ZM219.07 38L219.102 33.136H222.622L222.59 38H219.07ZM220.478 38L224.35 20.336H229.662L225.438 38H220.478ZM240.463 38.64C238.969 38.64 237.647 38.384 236.495 37.872C235.343 37.36 234.372 36.6667 233.583 35.792C232.793 34.9173 232.185 33.936 231.759 32.848C231.353 31.76 231.151 30.64 231.151 29.488V28.848C231.151 27.6533 231.353 26.512 231.759 25.424C232.185 24.3147 232.783 23.3333 233.551 22.48C234.34 21.6267 235.3 20.9547 236.431 20.464C237.561 19.952 238.841 19.696 240.271 19.696C242.169 19.696 243.78 20.1227 245.103 20.976C246.425 21.8293 247.439 22.96 248.142 24.368C248.847 25.7547 249.199 27.2693 249.199 28.912V30.768H233.583V27.632H245.839L243.823 29.04C243.823 28.0373 243.684 27.1947 243.407 26.512C243.151 25.808 242.756 25.2747 242.223 24.912C241.711 24.5493 241.06 24.368 240.271 24.368C239.503 24.368 238.831 24.5493 238.255 24.912C237.7 25.2533 237.273 25.7867 236.975 26.512C236.676 27.216 236.527 28.112 236.527 29.2C236.527 30.1813 236.665 31.0347 236.943 31.76C237.22 32.464 237.647 33.008 238.223 33.392C238.799 33.776 239.545 33.968 240.463 33.968C241.273 33.968 241.935 33.8293 242.447 33.552C242.98 33.2747 243.353 32.9013 243.567 32.432H248.878C248.623 33.6267 248.111 34.6933 247.343 35.632C246.596 36.5707 245.636 37.3067 244.463 37.84C243.311 38.3733 241.977 38.64 240.463 38.64ZM252.268 38V20.336H256.876V27.92H256.62C256.62 26.0853 256.855 24.5707 257.324 23.376C257.794 22.16 258.487 21.2533 259.404 20.656C260.343 20.0587 261.474 19.76 262.796 19.76H263.052C265.058 19.76 266.604 20.432 267.692 21.776C268.802 23.0987 269.356 25.136 269.356 27.888V38H263.532V27.728C263.532 26.9173 263.287 26.256 262.796 25.744C262.327 25.2107 261.676 24.944 260.844 24.944C260.012 24.944 259.34 25.2107 258.828 25.744C258.338 26.256 258.092 26.9387 258.092 27.792V38H252.268ZM273.268 38V20.336H277.876V27.92H277.62C277.62 26.0853 277.855 24.5707 278.324 23.376C278.794 22.16 279.487 21.2533 280.404 20.656C281.343 20.0587 282.474 19.76 283.796 19.76H284.052C286.058 19.76 287.604 20.432 288.692 21.776C289.802 23.0987 290.356 25.136 290.356 27.888V38H284.532V27.728C284.532 26.9173 284.287 26.256 283.796 25.744C283.327 25.2107 282.676 24.944 281.844 24.944C281.012 24.944 280.34 25.2107 279.828 25.744C279.338 26.256 279.092 26.9387 279.092 27.792V38H273.268ZM295.1 38V20.336H300.924V38H295.1ZM292.86 24.56V20.336H300.924V24.56H292.86ZM297.5 18.928C296.434 18.928 295.644 18.6613 295.132 18.128C294.642 17.5733 294.396 16.8693 294.396 16.016C294.396 15.1627 294.642 14.4693 295.132 13.936C295.644 13.3813 296.423 13.104 297.468 13.104C298.535 13.104 299.314 13.3813 299.804 13.936C300.295 14.4693 300.54 15.1627 300.54 16.016C300.54 16.8693 300.295 17.5733 299.804 18.128C299.314 18.6613 298.546 18.928 297.5 18.928ZM305.206 38V20.336H309.814V27.92H309.558C309.558 26.0853 309.792 24.5707 310.262 23.376C310.731 22.16 311.424 21.2533 312.342 20.656C313.28 20.0587 314.411 19.76 315.734 19.76H315.99C317.995 19.76 319.542 20.432 320.63 21.776C321.739 23.0987 322.294 25.136 322.294 27.888V38H316.47V27.728C316.47 26.9173 316.224 26.256 315.734 25.744C315.264 25.2107 314.614 24.944 313.782 24.944C312.95 24.944 312.278 25.2107 311.766 25.744C311.275 26.256 311.03 26.9387 311.03 27.792V38H305.206ZM333.278 45.072C332.403 45.072 331.496 45.04 330.558 44.976C329.64 44.912 328.808 44.8267 328.062 44.72V39.856C328.808 39.9413 329.64 40.016 330.558 40.08C331.475 40.1653 332.318 40.208 333.086 40.208C334.408 40.208 335.486 40.0693 336.318 39.792C337.171 39.5147 337.8 39.088 338.206 38.512C338.611 37.936 338.814 37.2 338.814 36.304V32.72L339.71 30.8C339.667 32.2933 339.379 33.5947 338.846 34.704C338.312 35.792 337.544 36.6347 336.542 37.232C335.56 37.8293 334.366 38.128 332.958 38.128C331.763 38.128 330.686 37.9147 329.726 37.488C328.766 37.0613 327.944 36.464 327.262 35.696C326.6 34.9067 326.088 33.9787 325.726 32.912C325.363 31.8453 325.182 30.6827 325.182 29.424V28.656C325.182 27.3973 325.374 26.2347 325.758 25.168C326.142 24.08 326.696 23.1413 327.422 22.352C328.147 21.5413 329 20.9227 329.982 20.496C330.984 20.048 332.094 19.824 333.31 19.824C334.718 19.824 335.934 20.144 336.958 20.784C337.982 21.4027 338.782 22.3093 339.358 23.504C339.934 24.6987 340.243 26.1493 340.286 27.856L339.646 28.08V20.336H344.254V35.92C344.254 38.096 343.848 39.856 343.038 41.2C342.227 42.544 341 43.5253 339.358 44.144C337.736 44.7627 335.71 45.072 333.278 45.072ZM334.91 33.328C335.614 33.328 336.243 33.168 336.798 32.848C337.374 32.528 337.832 32.0693 338.174 31.472C338.515 30.8533 338.686 30.1173 338.686 29.264V28.496C338.686 27.664 338.504 26.96 338.142 26.384C337.8 25.808 337.342 25.3707 336.766 25.072C336.19 24.7733 335.571 24.624 334.91 24.624C334.142 24.624 333.459 24.8053 332.862 25.168C332.286 25.5307 331.827 26.0427 331.486 26.704C331.166 27.3653 331.006 28.144 331.006 29.04C331.006 29.936 331.166 30.704 331.486 31.344C331.827 31.984 332.286 32.4747 332.862 32.816C333.459 33.1573 334.142 33.328 334.91 33.328ZM355.087 38V14.64H361.039V38H355.087ZM360.399 38V32.816H369.871V38H360.399ZM380.963 38.64C379.469 38.64 378.147 38.384 376.995 37.872C375.843 37.36 374.872 36.6667 374.083 35.792C373.293 34.9173 372.685 33.936 372.259 32.848C371.853 31.76 371.651 30.64 371.651 29.488V28.848C371.651 27.6533 371.853 26.512 372.259 25.424C372.685 24.3147 373.283 23.3333 374.051 22.48C374.84 21.6267 375.8 20.9547 376.931 20.464C378.061 19.952 379.341 19.696 380.771 19.696C382.669 19.696 384.28 20.1227 385.603 20.976C386.925 21.8293 387.939 22.96 388.642 24.368C389.347 25.7547 389.699 27.2693 389.699 28.912V30.768H374.083V27.632H386.339L384.323 29.04C384.323 28.0373 384.184 27.1947 383.907 26.512C383.651 25.808 383.256 25.2747 382.723 24.912C382.211 24.5493 381.56 24.368 380.771 24.368C380.003 24.368 379.331 24.5493 378.755 24.912C378.2 25.2533 377.773 25.7867 377.475 26.512C377.176 27.216 377.027 28.112 377.027 29.2C377.027 30.1813 377.165 31.0347 377.443 31.76C377.72 32.464 378.147 33.008 378.723 33.392C379.299 33.776 380.045 33.968 380.963 33.968C381.773 33.968 382.435 33.8293 382.947 33.552C383.48 33.2747 383.853 32.9013 384.067 32.432H389.378C389.123 33.6267 388.611 34.6933 387.843 35.632C387.096 36.5707 386.136 37.3067 384.963 37.84C383.811 38.3733 382.477 38.64 380.963 38.64ZM392.771 45.04V40.176H396.835C397.326 40.176 397.742 40.112 398.083 39.984C398.425 39.856 398.702 39.6427 398.915 39.344C399.129 39.0667 399.289 38.672 399.395 38.16L403.363 20.336H408.867L404.227 39.28C403.886 40.7307 403.406 41.872 402.787 42.704C402.19 43.5573 401.358 44.1547 400.291 44.496C399.246 44.8587 397.881 45.04 396.195 45.04H392.771ZM398.371 37.616V33.136H402.083V37.616H398.371ZM395.683 37.616L390.531 20.336H396.355L401.187 37.616H395.683ZM417.995 38.576C415.435 38.576 413.419 38.0533 411.947 37.008C410.475 35.9413 409.686 34.448 409.579 32.528H414.699C414.784 33.0613 415.115 33.52 415.691 33.904C416.267 34.288 417.078 34.48 418.123 34.48C418.87 34.48 419.51 34.3733 420.043 34.16C420.598 33.9253 420.875 33.552 420.875 33.04C420.875 32.592 420.662 32.2293 420.235 31.952C419.808 31.6533 419.03 31.4507 417.899 31.344L416.683 31.216C414.422 30.9813 412.758 30.3627 411.691 29.36C410.624 28.3573 410.091 27.0987 410.091 25.584C410.091 24.2827 410.411 23.216 411.051 22.384C411.691 21.5307 412.576 20.8907 413.707 20.464C414.838 20.0373 416.128 19.824 417.579 19.824C419.947 19.824 421.856 20.3467 423.307 21.392C424.758 22.416 425.526 23.8987 425.611 25.84H420.491C420.406 25.3067 420.118 24.8587 419.627 24.496C419.136 24.112 418.432 23.92 417.515 23.92C416.854 23.92 416.31 24.0373 415.883 24.272C415.478 24.5067 415.275 24.8373 415.275 25.264C415.275 25.712 415.467 26.0427 415.851 26.256C416.256 26.4693 416.896 26.6293 417.771 26.736L418.987 26.864C421.248 27.0987 422.987 27.728 424.203 28.752C425.44 29.7547 426.059 31.0773 426.059 32.72C426.059 33.936 425.728 34.9813 425.067 35.856C424.427 36.7307 423.499 37.4027 422.283 37.872C421.088 38.3413 419.659 38.576 417.995 38.576ZM437.244 38.64C435.75 38.64 434.428 38.384 433.276 37.872C432.124 37.36 431.153 36.6667 430.364 35.792C429.574 34.9173 428.966 33.936 428.54 32.848C428.134 31.76 427.932 30.64 427.932 29.488V28.848C427.932 27.6533 428.134 26.512 428.54 25.424C428.966 24.3147 429.564 23.3333 430.332 22.48C431.121 21.6267 432.081 20.9547 433.212 20.464C434.342 19.952 435.622 19.696 437.052 19.696C438.95 19.696 440.561 20.1227 441.884 20.976C443.206 21.8293 444.22 22.96 444.924 24.368C445.628 25.7547 445.98 27.2693 445.98 28.912V30.768H430.364V27.632H442.62L440.604 29.04C440.604 28.0373 440.465 27.1947 440.188 26.512C439.932 25.808 439.537 25.2747 439.004 24.912C438.492 24.5493 437.841 24.368 437.052 24.368C436.284 24.368 435.612 24.5493 435.036 24.912C434.481 25.2533 434.054 25.7867 433.756 26.512C433.457 27.216 433.308 28.112 433.308 29.2C433.308 30.1813 433.446 31.0347 433.724 31.76C434.001 32.464 434.428 33.008 435.004 33.392C435.58 33.776 436.326 33.968 437.244 33.968C438.054 33.968 438.716 33.8293 439.228 33.552C439.761 33.2747 440.134 32.9013 440.348 32.432H445.66C445.404 33.6267 444.892 34.6933 444.124 35.632C443.377 36.5707 442.417 37.3067 441.244 37.84C440.092 38.3733 438.758 38.64 437.244 38.64ZM449.049 38V20.336H453.658V28.016H453.594C453.594 25.5413 454.106 23.6 455.13 22.192C456.175 20.784 457.668 20.08 459.61 20.08H460.314V25.072H458.97C457.668 25.072 456.655 25.424 455.93 26.128C455.226 26.832 454.874 27.8453 454.874 29.168V38H449.049Z" fill="white"/>
</svg>
