<?xml version="1.0" encoding="UTF-8" standalone="no"?>
<!DOCTYPE svg PUBLIC "-//W3C//DTD SVG 1.1//EN" "http://www.w3.org/Graphics/SVG/1.1/DTD/svg11.dtd">
<svg width="100%" height="100%" viewBox="0 0 860 192" version="1.1" xmlns="http://www.w3.org/2000/svg" xmlns:xlink="http://www.w3.org/1999/xlink" xml:space="preserve" xmlns:serif="http://www.serif.com/" style="fill-rule:evenodd;clip-rule:evenodd;stroke-linecap:round;stroke-linejoin:round;stroke-miterlimit:1.5;">
    <g id="Artboard1" transform="matrix(0.804498,0,0,1,-47.324,-72.9136)">
        <rect x="58.824" y="72.914" width="1068.4" height="191.819" style="fill:none;"/>
        <g transform="matrix(0.521908,0,0,0.419874,67.3147,66.2753)">
            <path d="M193.557,140.504C193.557,140.504 192.132,175.813 228.866,175.813C265.6,175.813 213.276,347.966 141.568,347.966L138.936,347.966C67.228,347.966 14.905,175.813 51.638,175.813C88.372,175.813 86.947,140.504 86.947,140.504L193.557,140.504Z" style="fill:none;stroke:black;stroke-width:21.43px;"/>
        </g>
        <g transform="matrix(1.24301,0,0,1,-122.678,3.01091)">
            <text x="279.111px" y="184.304px" style="font-family:'Sora-Regular_Bold', 'Sora';font-size:60px;">E<tspan x="314.391px " y="184.304px ">g</tspan>il J<tspan x="439.851px " y="184.304px ">.</tspan> Sw<tspan x="560.871px " y="184.304px ">e</tspan>nning L<tspan x="817.851px 854.331px 886.911px " y="184.304px 184.304px 184.304px ">eys</tspan>er</text>
        </g>
    </g>
</svg>
