<svg xmlns="http://www.w3.org/2000/svg" fill="none" class="test" viewBox="0 0 488 54">
  <path stroke="#000" stroke-linecap="round" stroke-linejoin="round" stroke-miterlimit="1.5" stroke-width="7" d="M38.4129 4s-.3185 7.829 7.891 7.829C54.5135 11.829 42.8198 50 26.7941 50h-.5883C10.1801 50-1.51332 11.829 6.69599 11.829 14.9055 11.829 14.587 4 14.587 4h23.8259Z" clip-rule="evenodd"/>
  <path fill="#000" d="M78.368 38V14.64h5.76V38h-5.76Zm5.12 0v-4.864h9.856V38h-9.856Zm0-9.44v-4.864h9.184v4.864h-9.184Zm0-9.056V14.64h9.664v4.864h-9.664Zm20.259 25.568c-.875 0-1.782-.032-2.72-.096-.918-.064-1.7498-.1493-2.4965-.256v-4.864c.7467.0853 1.5785.16 2.4965.224.917.0853 1.76.128 2.528.128 1.322 0 2.4-.1387 3.232-.416.853-.2773 1.482-.704 1.888-1.28.405-.576.608-1.312.608-2.208V32.72l.896-1.92c-.043 1.4933-.331 2.7947-.864 3.904-.534 1.088-1.302 1.9307-2.304 2.528-.982.5973-2.176.896-3.584.896-1.195 0-2.272-.2133-3.232-.64-.9605-.4267-1.7818-1.024-2.4645-1.792-.6613-.7893-1.1733-1.7173-1.536-2.784-.3627-1.0667-.544-2.2293-.544-3.488v-.768c0-1.2587.192-2.4213.576-3.488.384-1.088.9387-2.0267 1.664-2.816.7253-.8107 1.5787-1.4293 2.5605-1.856 1.002-.448 2.112-.672 3.328-.672 1.408 0 2.624.32 3.648.96 1.024.6187 1.824 1.5253 2.4 2.72.576 1.1947.885 2.6453.928 4.352l-.64.224v-7.744h4.608V35.92c0 2.176-.406 3.936-1.216 5.28-.811 1.344-2.038 2.3253-3.68 2.944-1.622.6187-3.648.928-6.08.928Zm1.632-11.744c.704 0 1.333-.16 1.888-.48.576-.32 1.034-.7787 1.376-1.376.341-.6187.512-1.3547.512-2.208v-.768c0-.832-.182-1.536-.544-2.112-.342-.576-.8-1.0133-1.376-1.312-.576-.2987-1.195-.448-1.856-.448-.768 0-1.451.1813-2.048.544-.576.3627-1.035.8747-1.376 1.536-.32.6613-.48 1.44-.48 2.336 0 .896.16 1.664.48 2.304.341.64.8 1.1307 1.376 1.472.597.3413 1.28.512 2.048.512ZM119.6 38V20.336h5.824V38H119.6Zm-2.24-13.44v-4.224h8.064v4.224h-8.064Zm4.64-5.632c-1.066 0-1.856-.2667-2.368-.8-.49-.5547-.736-1.2587-.736-2.112 0-.8533.246-1.5467.736-2.08.512-.5547 1.291-.832 2.336-.832 1.067 0 1.846.2773 2.336.832.491.5333.736 1.2267.736 2.08 0 .8533-.245 1.5573-.736 2.112-.49.5333-1.258.8-2.304.8ZM129.962 38V14.64h5.824V38h-5.824Zm-1.984-19.136V14.64h7.808v4.224h-7.808Zm26.346 19.776c-1.856 0-3.445-.3413-4.768-1.024-1.301-.6827-2.304-1.664-3.008-2.944-.683-1.3013-1.024-2.8693-1.024-4.704v-1.28h5.888v1.472c0 .8533.245 1.5573.736 2.112.512.5333 1.227.8 2.144.8s1.621-.2667 2.112-.8c.512-.5547.768-1.2587.768-2.112V19.184h5.952v10.784c0 1.8347-.352 3.4027-1.056 4.704-.683 1.28-1.675 2.2613-2.976 2.944-1.301.6827-2.891 1.024-4.768 1.024Zm-6.176-18.816V14.64h14.976v5.184h-14.976ZM164.905 38v-6.336h6.272V38h-6.272Zm24.783.64c-2.176 0-4.011-.3413-5.504-1.024-1.472-.6827-2.592-1.6107-3.36-2.784-.747-1.1947-1.12-2.56-1.12-4.096h5.76c0 .5547.149 1.0667.448 1.536.32.448.789.8 1.408 1.056.619.256 1.408.384 2.368.384.832 0 1.536-.1067 2.112-.32.597-.2133 1.045-.512 1.344-.896.32-.384.48-.8427.48-1.376 0-.6827-.288-1.2053-.864-1.568-.576-.384-1.547-.6293-2.912-.736l-1.504-.128c-2.411-.2133-4.331-.9707-5.76-2.272-1.429-1.3013-2.144-3.0293-2.144-5.184 0-1.536.352-2.848 1.056-3.936.725-1.088 1.739-1.92 3.04-2.496 1.301-.576 2.837-.864 4.608-.864 1.92 0 3.541.32 4.864.96 1.344.64 2.368 1.5467 3.072 2.72.704 1.152 1.056 2.496 1.056 4.032h-5.76c0-.512-.128-.9813-.384-1.408-.256-.4267-.629-.7573-1.12-.992-.469-.256-1.045-.384-1.728-.384-.64 0-1.184.1067-1.632.32-.427.192-.757.4693-.992.832-.213.3627-.32.768-.32 1.216 0 .5973.203 1.1093.608 1.536.405.4267 1.109.6827 2.112.768l1.504.128c1.749.1493 3.296.5333 4.64 1.152 1.344.5973 2.4 1.4187 3.168 2.464.768 1.0453 1.152 2.3253 1.152 3.84s-.395 2.8373-1.184 3.968c-.768 1.1307-1.877 2.0053-3.328 2.624-1.429.6187-3.157.928-5.184.928Zm19.43-.64 3.136-17.088h6.08L221.918 38h-4.416l-3.712-16.96h2.688L213.086 38h-3.968Zm-1.088 0-.032-4.864h3.52L211.55 38h-3.52Zm-2.848 0-4.64-17.664h5.696L210.526 38h-5.344Zm13.888 0 .032-4.864h3.52L222.59 38h-3.52Zm1.408 0 3.872-17.664h5.312L225.438 38h-4.96Zm19.985.64c-1.494 0-2.816-.256-3.968-.768-1.152-.512-2.123-1.2053-2.912-2.08-.79-.8747-1.398-1.856-1.824-2.944-.406-1.088-.608-2.208-.608-3.36v-.64c0-1.1947.202-2.336.608-3.424.426-1.1093 1.024-2.0907 1.792-2.944.789-.8533 1.749-1.5253 2.88-2.016 1.13-.512 2.41-.768 3.84-.768 1.898 0 3.509.4267 4.832 1.28 1.322.8533 2.336 1.984 3.039 3.392.705 1.3867 1.057 2.9013 1.057 4.544v1.856h-15.616v-3.136h12.256l-2.016 1.408c0-1.0027-.139-1.8453-.416-2.528-.256-.704-.651-1.2373-1.184-1.6-.512-.3627-1.163-.544-1.952-.544-.768 0-1.44.1813-2.016.544-.555.3413-.982.8747-1.28 1.6-.299.704-.448 1.6-.448 2.688 0 .9813.138 1.8347.416 2.56.277.704.704 1.248 1.28 1.632.576.384 1.322.576 2.24.576.81 0 1.472-.1387 1.984-.416.533-.2773.906-.6507 1.12-1.12h5.311c-.255 1.1947-.767 2.2613-1.535 3.2-.747.9387-1.707 1.6747-2.88 2.208-1.152.5333-2.486.8-4 .8Zm11.805-.64V20.336h4.608v7.584h-.256c0-1.8347.235-3.3493.704-4.544.47-1.216 1.163-2.1227 2.08-2.72.939-.5973 2.07-.896 3.392-.896h.256c2.006 0 3.552.672 4.64 2.016 1.11 1.3227 1.664 3.36 1.664 6.112V38h-5.824V27.728c0-.8107-.245-1.472-.736-1.984-.469-.5333-1.12-.8-1.952-.8-.832 0-1.504.2667-2.016.8-.49.512-.736 1.1947-.736 2.048V38h-5.824Zm21 0V20.336h4.608v7.584h-.256c0-1.8347.235-3.3493.704-4.544.47-1.216 1.163-2.1227 2.08-2.72.939-.5973 2.07-.896 3.392-.896h.256c2.006 0 3.552.672 4.64 2.016 1.11 1.3227 1.664 3.36 1.664 6.112V38h-5.824V27.728c0-.8107-.245-1.472-.736-1.984-.469-.5333-1.12-.8-1.952-.8-.832 0-1.504.2667-2.016.8-.49.512-.736 1.1947-.736 2.048V38h-5.824Zm21.832 0V20.336h5.824V38H295.1Zm-2.24-13.44v-4.224h8.064v4.224h-8.064Zm4.64-5.632c-1.066 0-1.856-.2667-2.368-.8-.49-.5547-.736-1.2587-.736-2.112 0-.8533.246-1.5467.736-2.08.512-.5547 1.291-.832 2.336-.832 1.067 0 1.846.2773 2.336.832.491.5333.736 1.2267.736 2.08 0 .8533-.245 1.5573-.736 2.112-.49.5333-1.258.8-2.304.8ZM305.206 38V20.336h4.608v7.584h-.256c0-1.8347.234-3.3493.704-4.544.469-1.216 1.162-2.1227 2.08-2.72.938-.5973 2.069-.896 3.392-.896h.256c2.005 0 3.552.672 4.64 2.016 1.109 1.3227 1.664 3.36 1.664 6.112V38h-5.824V27.728c0-.8107-.246-1.472-.736-1.984-.47-.5333-1.12-.8-1.952-.8-.832 0-1.504.2667-2.016.8-.491.512-.736 1.1947-.736 2.048V38h-5.824Zm28.072 7.072c-.875 0-1.782-.032-2.72-.096-.918-.064-1.75-.1493-2.496-.256v-4.864c.746.0853 1.578.16 2.496.224.917.0853 1.76.128 2.528.128 1.322 0 2.4-.1387 3.232-.416.853-.2773 1.482-.704 1.888-1.28.405-.576.608-1.312.608-2.208V32.72l.896-1.92c-.043 1.4933-.331 2.7947-.864 3.904-.534 1.088-1.302 1.9307-2.304 2.528-.982.5973-2.176.896-3.584.896-1.195 0-2.272-.2133-3.232-.64-.96-.4267-1.782-1.024-2.464-1.792-.662-.7893-1.174-1.7173-1.536-2.784-.363-1.0667-.544-2.2293-.544-3.488v-.768c0-1.2587.192-2.4213.576-3.488.384-1.088.938-2.0267 1.664-2.816.725-.8107 1.578-1.4293 2.56-1.856 1.002-.448 2.112-.672 3.328-.672 1.408 0 2.624.32 3.648.96 1.024.6187 1.824 1.5253 2.4 2.72.576 1.1947.885 2.6453.928 4.352l-.64.224v-7.744h4.608V35.92c0 2.176-.406 3.936-1.216 5.28-.811 1.344-2.038 2.3253-3.68 2.944-1.622.6187-3.648.928-6.08.928Zm1.632-11.744c.704 0 1.333-.16 1.888-.48.576-.32 1.034-.7787 1.376-1.376.341-.6187.512-1.3547.512-2.208v-.768c0-.832-.182-1.536-.544-2.112-.342-.576-.8-1.0133-1.376-1.312-.576-.2987-1.195-.448-1.856-.448-.768 0-1.451.1813-2.048.544-.576.3627-1.035.8747-1.376 1.536-.32.6613-.48 1.44-.48 2.336 0 .896.16 1.664.48 2.304.341.64.8 1.1307 1.376 1.472.597.3413 1.28.512 2.048.512ZM355.087 38V14.64h5.952V38h-5.952Zm5.312 0v-5.184h9.472V38h-9.472Zm20.564.64c-1.494 0-2.816-.256-3.968-.768-1.152-.512-2.123-1.2053-2.912-2.08-.79-.8747-1.398-1.856-1.824-2.944-.406-1.088-.608-2.208-.608-3.36v-.64c0-1.1947.202-2.336.608-3.424.426-1.1093 1.024-2.0907 1.792-2.944.789-.8533 1.749-1.5253 2.88-2.016 1.13-.512 2.41-.768 3.84-.768 1.898 0 3.509.4267 4.832 1.28 1.322.8533 2.336 1.984 3.039 3.392.705 1.3867 1.057 2.9013 1.057 4.544v1.856h-15.616v-3.136h12.256l-2.016 1.408c0-1.0027-.139-1.8453-.416-2.528-.256-.704-.651-1.2373-1.184-1.6-.512-.3627-1.163-.544-1.952-.544-.768 0-1.44.1813-2.016.544-.555.3413-.982.8747-1.28 1.6-.299.704-.448 1.6-.448 2.688 0 .9813.138 1.8347.416 2.56.277.704.704 1.248 1.28 1.632.576.384 1.322.576 2.24.576.81 0 1.472-.1387 1.984-.416.533-.2773.906-.6507 1.12-1.12h5.311c-.255 1.1947-.767 2.2613-1.535 3.2-.747.9387-1.707 1.6747-2.88 2.208-1.152.5333-2.486.8-4 .8Zm11.808 6.4v-4.864h4.064c.491 0 .907-.064 1.248-.192.342-.128.619-.3413.832-.64.214-.2773.374-.672.48-1.184l3.968-17.824h5.504l-4.64 18.944c-.341 1.4507-.821 2.592-1.44 3.424-.597.8533-1.429 1.4507-2.496 1.792-1.045.3627-2.41.544-4.096.544h-3.424Zm5.6-7.424v-4.48h3.712v4.48h-3.712Zm-2.688 0-5.152-17.28h5.824l4.832 17.28h-5.504Zm22.312.96c-2.56 0-4.576-.5227-6.048-1.568-1.472-1.0667-2.261-2.56-2.368-4.48h5.12c.085.5333.416.992.992 1.376.576.384 1.387.576 2.432.576.747 0 1.387-.1067 1.92-.32.555-.2347.832-.608.832-1.12 0-.448-.213-.8107-.64-1.088-.427-.2987-1.205-.5013-2.336-.608l-1.216-.128c-2.261-.2347-3.925-.8533-4.992-1.856-1.067-1.0027-1.6-2.2613-1.6-3.776 0-1.3013.32-2.368.96-3.2.64-.8533 1.525-1.4933 2.656-1.92 1.131-.4267 2.421-.64 3.872-.64 2.368 0 4.277.5227 5.728 1.568 1.451 1.024 2.219 2.5067 2.304 4.448h-5.12c-.085-.5333-.373-.9813-.864-1.344-.491-.384-1.195-.576-2.112-.576-.661 0-1.205.1173-1.632.352-.405.2347-.608.5653-.608.992 0 .448.192.7787.576.992.405.2133 1.045.3733 1.92.48l1.216.128c2.261.2347 4 .864 5.216 1.888 1.237 1.0027 1.856 2.3253 1.856 3.968 0 1.216-.331 2.2613-.992 3.136-.64.8747-1.568 1.5467-2.784 2.016-1.195.4693-2.624.704-4.288.704Zm19.249.064c-1.494 0-2.816-.256-3.968-.768-1.152-.512-2.123-1.2053-2.912-2.08-.79-.8747-1.398-1.856-1.824-2.944-.406-1.088-.608-2.208-.608-3.36v-.64c0-1.1947.202-2.336.608-3.424.426-1.1093 1.024-2.0907 1.792-2.944.789-.8533 1.749-1.5253 2.88-2.016 1.13-.512 2.41-.768 3.84-.768 1.898 0 3.509.4267 4.832 1.28 1.322.8533 2.336 1.984 3.04 3.392.704 1.3867 1.056 2.9013 1.056 4.544v1.856h-15.616v-3.136h12.256l-2.016 1.408c0-1.0027-.139-1.8453-.416-2.528-.256-.704-.651-1.2373-1.184-1.6-.512-.3627-1.163-.544-1.952-.544-.768 0-1.44.1813-2.016.544-.555.3413-.982.8747-1.28 1.6-.299.704-.448 1.6-.448 2.688 0 .9813.138 1.8347.416 2.56.277.704.704 1.248 1.28 1.632.576.384 1.322.576 2.24.576.81 0 1.472-.1387 1.984-.416.533-.2773.906-.6507 1.12-1.12h5.312c-.256 1.1947-.768 2.2613-1.536 3.2-.747.9387-1.707 1.6747-2.88 2.208-1.152.5333-2.486.8-4 .8Zm11.805-.64V20.336h4.609v7.68h-.064c0-2.4747.512-4.416 1.536-5.824 1.045-1.408 2.538-2.112 4.48-2.112h.704v4.992h-1.344c-1.302 0-2.315.352-3.04 1.056-.704.704-1.056 1.7173-1.056 3.04V38h-5.825Z"/>
</svg>
